<?xml version="1.0" encoding="utf-8"?>
<!-- Generator: Adobe Illustrator 24.1.2, SVG Export Plug-In . SVG Version: 6.00 Build 0)  -->
<svg version="1.1" id="Warstwa_1" xmlns="http://www.w3.org/2000/svg" xmlns:xlink="http://www.w3.org/1999/xlink" x="0px" y="0px"
	 viewBox="0 0 7861.8 4778.5" style="enable-background:new 0 0 7861.8 4778.5;" xml:space="preserve">
<style type="text/css">
	.st0{fill:#FFFFFF;}
</style>
<g>
	<path class="st0" d="M112.4-1259.1v416.1c0,30.1,24.4,54.5,54.5,54.5c0,0,0,0,0,0l0,0v5.8H0v-5.8c30.1,0,54.5-24.4,54.6-54.5
		v-416.2c0-30.1-24.4-54.5-54.5-54.5c0,0,0,0,0,0l0,0v-5.8h166.9v5.8C136.8-1313.6,112.4-1289.2,112.4-1259.1L112.4-1259.1
		L112.4-1259.1z"/>
	<path class="st0" d="M620-792v5.8H453.1v-5.8c30.1,0,54.5-24.4,54.5-54.5v-101.2c0-90.6-28.4-170.1-104.7-170.1
		c-40.2,0-74.5,18.7-98.9,48.9v222.4c0,30.1,24.4,54.5,54.5,54.5c0,0,0,0,0,0v5.8H191.8v-5.8c30.1,0,54.5-24.4,54.5-54.5l0,0v-208.1
		c0-30.1-24.4-54.5-54.5-54.5v-5.8h112.3v37.1c25.1-28.4,59.3-45.8,98.9-45.8c108.2,0,162.5,82.1,162.5,175.9v101.2
		c0,30.1,24.4,54.5,54.5,54.6C619.9-792,619.9-792,620-792L620-792z"/>
	<path class="st0" d="M804.2-792v5.8H637.3v-5.8c30.1,0,54.5-24.4,54.5-54.5v-208.1c0-30.1-24.4-54.5-54.5-54.5l0,0v-5.8h112.3
		v268.4C749.6-816.4,774-792,804.2-792z M692.6-1204.6c-3.7-15.5,5.9-31.1,21.5-34.8c0,0,0,0,0,0c15.5-3.7,31.1,5.9,34.8,21.5
		c3.7,15.5-5.9,31.1-21.5,34.8l0,0C711.9-1179.5,696.3-1189.1,692.6-1204.6C692.6-1204.6,692.6-1204.6,692.6-1204.6z"/>
	<path class="st0" d="M1120.9-861.7c-20.8,51.8-78.4,84-125.5,84c-92.8,0-174-82.1-174-175.9s81.3-170.1,174-170.1
		c35.5,0,80,11.2,107.1,30.2v93.2h-5.8v-16.3c0-31.8-13.5-62.8-38.5-82.5c-15.3-12-44.3-18.9-62.8-18.9
		c-60.9,0-116.2,73.8-116.2,164.4s55.3,164.3,116.2,164.3c43.2,0,100.2-25,120.1-74.6L1120.9-861.7z"/>
	<path class="st0" d="M1148.9-1115h112.3v375.3c0,93.8-35,170.1-127.8,170.1v-5.8c60.9,0,70-73.7,70-164.3v-314.9
		c0-30.1-24.4-54.5-54.5-54.5L1148.9-1115z M1203.4-1211.2c0-16,12.9-28.9,28.9-28.9l0,0c16,0,28.9,12.9,28.9,28.9l0,0
		c0,16-12.9,28.9-28.9,28.9l0,0C1216.4-1182.3,1203.5-1195.3,1203.4-1211.2L1203.4-1211.2z"/>
	<path class="st0" d="M1674.6-792v5.8h-112.3v-46.9c-22.5,32-58.2,55.4-105,55.4c-85.5,2.7-135.2-35.9-139.3-83.4
		c-7.3-84.1,88.2-110.8,204.8-153.3v5.1c-85.5,31.1-158.8,58.4-147,142.3c7.1,50.6,51.5,83.4,81.5,83.4c48.3,0,84-25.6,105-59.6
		v-110.5c0-90.6-20.7-164.3-81.6-164.3c-18.5,0-35.9,6.8-51.3,18.9c-25.1,19.7-38.6,50.6-38.6,82.5v16.3h-5.8v-93.2
		c28-19.7,61.4-30.2,95.6-30.2c92.8,0,139.3,76.3,139.3,170.1v107C1620-816.4,1644.4-792,1674.6-792
		C1674.6-792,1674.6-792,1674.6-792L1674.6-792z"/>
	<path class="st0" d="M1760.4-1109.2v161.4c0,90.6,9.1,164.3,70,164.3v5.8c-92.8,0-127.8-76.3-127.8-170.1v-161.4h-49.2v-5.8
		c88.5,0,103.4-108.1,103.4-150.3h3.6v150.3h70v5.8H1760.4z"/>
	<path class="st0" d="M2164.9-1115h132.2v5.8c-38.9,0-74.1,23.2-89.4,59l-113.8,264.9c-30.6,63.6-97.2,180.1-188.1,215.5h-65.3v-5.8
		c92.1-17.5,146.9-44.7,203-131.3c16.4-25.5,31.3-52.1,44.5-79.4h-48.4l-114.9-268.4c-14.2-33.1-46.8-54.6-82.8-54.6v-5.8h166.9v5.8
		c-18.1,0-32.8,14.7-32.8,32.8c0,4.4,0.9,8.8,2.7,12.9l114.2,266.7h0.2l109.4-255.6c8.8-20.7-0.7-44.6-21.4-53.4
		c-5.1-2.2-10.5-3.3-16-3.3L2164.9-1115L2164.9-1115z"/>
	<path class="st0" d="M2836.3-1115h132.2v5.8c-38.9,0-74.1,23.2-89.4,59l-113,264h-55.2l-77.2-180.3l-77.2,180.3h-55.2l-114.8-268.4
		c-14.2-33.1-46.8-54.6-82.8-54.6v-5.8h166.9v5.8c-18.1,0-32.7,14.6-32.8,32.7c0,0,0,0,0,0c0,4.4,0.9,8.8,2.6,12.9l114.2,266.9
		l75.9-177.3l-34.5-80.7c-14.2-33.1-46.8-54.6-82.8-54.6v-5.8h245.7v5.8c-38.9,0-74.1,23.2-89.4,59l-6.9,16.1l101.6,237.4
		l109.5-255.8c8.8-20.7-0.8-44.6-21.4-53.4c-5.1-2.2-10.5-3.3-16-3.3L2836.3-1115z M2659.4-1041.4l17.6-41.1
		c12-28-10.5-26.7-17.6-26.7s-29.6-1.4-17.6,26.7L2659.4-1041.4z"/>
	<path class="st0" d="M3304.2-792v5.8h-112.3v-46.9c-22.5,32-58.2,55.4-105,55.4c-85.5,2.7-135.2-35.9-139.3-83.4
		c-7.3-84.1,88.2-110.8,204.8-153.3v5.1c-85.5,31.1-158.8,58.4-147,142.3c7.1,50.6,51.5,83.4,81.5,83.4c48.3,0,84-25.6,105-59.6
		v-110.5c0-90.6-20.6-164.3-81.6-164.3c-18.5,0-35.9,6.8-51.3,18.9c-25.1,19.7-38.6,50.6-38.6,82.5v16.3h-5.8v-93.2
		c28-19.7,61.4-30.2,95.6-30.2c92.8,0,139.4,76.3,139.4,170.1v107C3249.6-816.4,3274-792,3304.2-792L3304.2-792L3304.2-792z"/>
	<path class="st0" d="M3845.6-1319.4c66.3,0,120.1,53.8,120.1,120.1c0,67.1-54.4,121.5-121.6,121.5H3775v-5.8h17
		c63.9,0,115.8-51.9,115.8-115.8c0-63.2-51.2-114.4-114.4-114.4h-52.3c-30.1,0-54.5,24.4-54.5,54.5l0,0l0,0v416.1
		c0,30.1,24.4,54.5,54.5,54.5l0,0l0,0v5.8h-166.8v-5.8c30.1,0,54.5-24.4,54.5-54.5l0,0v-416.1c0-30.1-24.4-54.5-54.5-54.5v-5.8
		L3845.6-1319.4z"/>
	<path class="st0" d="M4282.1-1103.1v40.6c-16.5-33.6-43.2-55.4-83-55.4c-40.2,0-74.5,18.7-98.9,48.9v222.4
		c0,30.1,24.4,54.5,54.5,54.5c0,0,0,0,0,0v5.8h-166.9v-5.8c30.1,0,54.5-24.4,54.5-54.5l0,0v-208.1c0-30.1-24.4-54.5-54.5-54.5l0,0
		l0,0v-5.8h112.3v37.1c25.1-28.4,59.3-45.8,98.9-45.8C4231.6-1123.6,4259.3-1116.1,4282.1-1103.1z"/>
	<path class="st0" d="M4605.7-914.3h5.8v128h-296.3l233.6-323h-105.5c-67.5,0-122.2,54.8-122.2,122.3l0,0l0,0h-5.8V-1115h296.3
		l-233.6,323h105.5C4551-792,4605.7-846.8,4605.7-914.3L4605.7-914.3z"/>
	<path class="st0" d="M4952.9-863.8l5.4,2.1c-20.8,51.8-78.4,84-125.5,84c-92.8,0-174-82.1-174-175.9s81.3-170.1,174-170.1
		c54.5,0,89.6,20.1,111,52c35.6,53.1,3.1,125.5-59.9,136.8l-119.7,21.4v-5.9l54.4-9.7c67.4-12.1,107.6-84.3,79.3-146.6
		c-11.8-25.9-31.7-42.2-65.1-42.2c-60.9,0-116.2,73.7-116.2,164.3s55.3,164.3,116.2,164.3C4875.9-789.2,4933-814.3,4952.9-863.8z"/>
	<path class="st0" d="M5372.6-953.6c0,93.8-71.6,175.8-179.8,175.8c-39.6,0-73.8-17.4-98.9-45.8v37.2h-112.3v-5.8
		c30.1,0,54.5-24.4,54.5-54.5v-416.1c0-30.1-24.4-54.5-54.5-54.5l0,0l0,0v-5.8h166.9v5.8c-30.1,0-54.5,24.4-54.5,54.5c0,0,0,0,0,0
		v430.4c24.4,30.2,58.7,48.9,98.9,48.9c76.3,0,122-79.5,122-170.1s-45.7-164.4-122-164.4c-26.1,0-49.6,7.2-69.4,20v-6.8
		c20.9-12.6,45-19.2,69.4-19C5301-1123.6,5372.6-1047.3,5372.6-953.6z"/>
	<path class="st0" d="M5761.7-1054.7v208.1c0,30.1,24.4,54.5,54.5,54.5v5.8h-112.3v-37.1c-25.1,28.4-59.3,45.8-98.9,45.8
		c-108.2,0-162.5-82.1-162.5-175.9v-101.2c0-30.1-24.4-54.5-54.5-54.5l0,0l0,0v-5.8h166.9v5.8c-30.1,0-54.5,24.4-54.5,54.5l0,0
		v101.2c0,90.6,28.4,170.1,104.7,170.1c40.2,0,74.5-18.7,98.9-48.9v-222.4c0-30.1-24.4-54.5-54.5-54.5l0,0l0,0v-5.8h166.9v5.8
		C5786.1-1109.2,5761.7-1084.8,5761.7-1054.7z"/>
	<path class="st0" d="M6226.9-786.2h-112.3V-1069c-24.4-30.2-58.7-48.9-98.9-48.9c-76.3,0-122,79.5-122,170.1s45.7,164.3,122,164.3
		c26.1,0,49.5-7.2,69.4-20v6.8c-20.9,12.6-44.9,19.2-69.4,19c-108.2,0-179.8-76.3-179.8-170.1s71.6-175.9,179.8-175.9
		c39.6,0,73.7,17.4,98.9,45.8v-184.8c0-30.1-24.4-54.5-54.5-54.5l0,0l0,0v-5.8h166.9v5.8c-30.1,0-54.5,24.4-54.5,54.5l0,0v416.2
		c0,30.1,24.4,54.5,54.5,54.5L6226.9-786.2z"/>
	<path class="st0" d="M6549.7-914.3h5.8v128h-296.3l233.6-323h-105.5c-67.5,0-122.2,54.8-122.2,122.3l0,0v0.1h-5.8V-1115h296.3
		l-233.6,323h105.5C6495-792,6549.7-846.7,6549.7-914.3z"/>
	<path class="st0" d="M6896.9-863.8l5.4,2.1c-20.8,51.8-78.4,84-125.5,84c-92.8,0-174-82.1-174-175.9s81.3-170.1,174-170.1
		c54.5,0,89.6,20.1,111,52c35.6,53.1,3.1,125.5-59.9,136.8l-119.7,21.4v-5.9l54.4-9.7c67.4-12.1,107.6-84.3,79.3-146.6
		c-11.8-25.9-31.7-42.2-65.1-42.2c-60.9,0-116.2,73.7-116.2,164.3s55.3,164.3,116.2,164.3C6820-789.2,6877-814.3,6896.9-863.8z"/>
	<path class="st0" d="M7360.7-792v5.8h-166.9v-5.8c30.1,0,54.5-24.4,54.5-54.5v-101.2c0-90.6-28.3-170.1-104.7-170.1
		c-40.2,0-74.5,18.7-98.9,48.9v222.4c0,30.1,24.4,54.5,54.5,54.5v5.8h-166.9v-5.8c30.1,0,54.5-24.4,54.5-54.5v-208.1
		c0-30.1-24.4-54.5-54.5-54.5l0,0l0,0v-5.8h112.3v37.1c25.1-28.4,59.3-45.8,98.9-45.8c108.2,0,162.5,82.1,162.5,175.9v101.2
		C7306.1-816.4,7330.5-792,7360.7-792L7360.7-792z"/>
	<path class="st0" d="M7544.9-792v5.8H7378v-5.8c30.1,0,54.5-24.4,54.5-54.5v-208.1c0-30.1-24.4-54.5-54.5-54.5l0,0l0,0v-5.8h112.3
		v268.4C7490.3-816.4,7514.8-792,7544.9-792L7544.9-792z M7433.3-1204.6c-3.7-15.5,5.9-31.1,21.5-34.8l0,0
		c15.5-3.7,31.1,5.9,34.8,21.5c3.7,15.5-6,31.1-21.5,34.8C7452.5-1179.5,7437-1189.1,7433.3-1204.6z"/>
	<path class="st0" d="M7856.2-863.8l5.4,2.1c-20.8,51.8-78.4,84-125.5,84c-92.8,0-174-82.1-174-175.9s81.3-170.1,174-170.1
		c54.5,0,89.6,20.1,111,52c35.6,53.1,3.1,125.5-59.9,136.8l-119.7,21.4v-5.9l54.4-9.7c67.4-12.1,107.6-84.3,79.3-146.6
		c-11.8-25.9-31.7-42.2-65.1-42.2c-60.9,0-116.2,73.7-116.2,164.3s55.3,164.3,116.2,164.3C7779.3-789.2,7836.3-814.3,7856.2-863.8z"
		/>
</g>
<g>
	<path class="st0" d="M3745.7-2475.1c-16.5-44.3-10-80.3,9.3-113.9c9.9-17.2,15.3-32.7,13.2-53.4c-6.6-66.2,25.5-113.5,83.2-140.5
		c63.2-29.6,125.1-19.5,179,24.6c49.9,40.9,75.7,97.1,92.8,158.2c34.4,123.6,15.1,242.9-25.8,361.3
		c-29.2,84.7-61.5,168.9-81.8,255.9c-34.1,146.5,5.2,274.7,122.8,372c93.6,77.4,197.4,82,301.8,20.7c2.4-1.4,5.1-2.4,8.8-2
		c-16.6,25.5-40.4,42-68.4,52.4c-63.3,23.5-124.8,10.9-183.3-15.3c-166.1-74.4-252.3-244.9-220.1-425.7
		c16.6-93,52.9-179.2,86.1-266.5c45.7-120.4,59.5-242.5,22.2-367.4c-16.7-55.9-41.8-108.1-94.6-139.6c-46.7-27.8-95-29-141.2,1.4
		c-46,30.3-70.1,71.7-60.7,128.9c1.2,7.2-2.3,15.8-5.5,22.8c-8.1,17.8-17.3,35.2-23.9,54.9c35.5-32.2,78.4-39.6,122.6-46.5
		c42.2-6.6,73.3-30.3,84-75.5c2.5,0.8,4.9,1.6,7.4,2.3c-1.6,13.6-0.3,28.3-5.2,40.6c-18.2,46.1-56.3,62.9-102.9,62.3
		c-40.5-0.6-74.2,10.6-96.6,46.1C3761.5-2505.5,3755.6-2493.2,3745.7-2475.1z"/>
	<path class="st0" d="M3945.9-2570.7c31.8,25.6,44.4,61.7,47.2,99.7c5.4,72.9-24.6,135.4-63.2,195.4
		c-48,74.7-100.4,147.7-138.6,227.3c-94.3,196.8-89.2,393.6,25.9,581.8c27.4,44.8,67.6,81.8,97,116.5
		c-39.1-21.6-77.7-57.2-109.2-99.7c-117.9-159-139.6-334.5-85.9-521.8c30.5-106.5,92-196.3,154.8-285.7
		c29.4-41.7,56.9-85.7,78.6-131.7C3980.8-2448.8,3980.1-2510.8,3945.9-2570.7z"/>
	<path class="st0" d="M3224.5-2741.6c36.5-10,72.4-15.4,103.7,9.3c66.5,52.7,119.2,117.1,133.5,202.5c7.8,46.8,3.4,96.1,0,144
		c-5.6,78.3-10.2,155.9,10.1,233.1c20.9,79.1,61.2,146.6,116.6,205.8c12.3,13.2,24.8,26.3,34.3,43.2c-6-3.8-12.4-7.1-17.9-11.5
		c-116.4-94.1-181.5-214.4-182.1-365.5c-0.2-58.1,7.6-116.2,10.1-174.3c4.8-111.6-51.2-192.8-135.4-257.1
		C3277.8-2727.2,3250.2-2731.6,3224.5-2741.6z"/>
	<path class="st0" d="M4639.5-2740.7c-116.1,26.6-169.4,109.4-203.3,205.9c-12.5,35.7-9.9,78.9-5.9,117.8
		c10.1,99.4,12.5,197.2-21.8,293.1c-31.7,88.7-109.2,186-185.5,230.5c-1.6-1.5-3.3-3-4.9-4.5c5.5-3.9,11.6-7.3,16.6-11.9
		c128.7-118.1,184.4-263.9,166.1-437.9c-3.8-35.8-6.3-71.8-8.6-107.7c-5.4-85.4,26.1-157.5,82.3-219.7
		c17.8-19.8,36.9-38.8,57.3-55.8C4562.8-2756.7,4598.3-2752.4,4639.5-2740.7z"/>
	<path class="st0" d="M3056.9-2274.3c57.2,0.7,104.3,25.5,138.5,69.1c28.6,36.5,54.5,76.4,74.5,118.2
		c48.7,102.1,120.3,179.6,221.5,231.1c36.7,18.7,70.3,43.6,104.6,66.6c12.5,8.4,23,19.7,31.6,34.2c-7.9-4.6-15.7-9.5-23.9-13.6
		c-41.8-20.9-82.7-44.1-125.9-61.6c-102.4-41.6-175.9-112-222.6-211.6c-14-29.8-29.1-59.2-45.1-88
		C3174.7-2194,3126.8-2245.2,3056.9-2274.3z"/>
	<path class="st0" d="M4218.8-1755.4c24.4-18.7,47.8-39,73.6-55.6c39.3-25.2,80.3-47.8,120.6-71.4c76.6-44.8,130-110.1,169.8-188.4
		c20.1-39.5,41.8-78.6,66.8-115.1c32.8-47.8,78.3-79.3,136.9-88.9c4.5-0.7,9.1-0.9,13.7-0.9c1.1,0,2.3,1.3,4.7,2.7
		c-16.5,8.9-32.9,16.5-48.1,26c-63.2,39.3-100.7,99-130.8,164.9c-35.4,77.4-77.6,150.2-149.7,199.7c-23.3,16-48.5,29.4-73.8,41.9
		c-60.2,29.6-121,58-181.6,86.9C4220.1-1754.2,4219.5-1754.8,4218.8-1755.4z"/>
	<path class="st0" d="M3526.8-2983.8c55,16.8,92.3,51.5,120.1,97.3c64.6,106.2,53.1,215.3,9.9,324.9
		c-14.9,37.8-31.3,74.9-47.5,112.2c-52.2,120.3-51.8,241-3.4,362.3c1.4,3.5,2.5,7,3.8,10.6c-1.8,0.8-3.7,1.5-5.5,2.3
		c-9.5-22.9-20.8-45.2-28.1-68.7c-32.2-104.8-27.6-208.4,10.4-311.3c23.4-63.2,47.5-126.5,64.6-191.5
		c25.6-97.1,10.4-189.3-53.3-269.4C3578.1-2940,3552.1-2959.7,3526.8-2983.8z"/>
	<path class="st0" d="M4332.8-2979.1c-15.1,12.7-31.2,24.3-45.1,38.3c-92.5,93-108.2,204.6-73.4,325.5
		c18.8,65.4,44.7,128.8,67.2,193.1c36.2,103.1,29,205.1-8.4,306.1c-5.4,14.6-13.2,28.3-22.2,47.2c11.9-46.9,24-87.8,32.3-129.4
		c19.8-99.2-6.8-191.4-46.2-281.2c-28.7-65.3-59.3-129.9-66.2-202.3c-10.8-114.4,23.4-210.2,118.4-279.7c12.4-9.1,27.4-14.8,41.2-22
		C4331.1-2982.1,4332-2980.6,4332.8-2979.1z"/>
	<path class="st0" d="M3172.9-1931.4c7.6,14.1,15.3,28.1,22.8,42.2c47.7,89.4,126.9,133.7,221.9,155.6c37.3,8.6,74.6,17,111.8,26.1
		c8.4,2,16.3,6.3,23.7,12c-83.1-10.7-168.7-4.6-247.3-39.8c-73.9-33.1-116.4-92-135.4-169.2c-2.1-8.5-1.5-17.7-2.2-26.5
		C3169.8-1931.2,3171.3-1931.3,3172.9-1931.4z"/>
	<path class="st0" d="M4691.8-1931.7c1.9,43.5-17.7,78.6-40.8,111.9c-43.1,62.2-104,96.7-177.9,107.5c-53.8,7.9-108,12.4-164.2,14.5
		c4.9-2.5,9.6-6,14.8-7.3c28.2-7.1,56.4-14.6,85-20.2C4535.1-1749.7,4634.8-1810.1,4691.8-1931.7z"/>
	<path class="st0" d="M3267.8-2626.3c3.8,25.9,11.3,51.8,10.6,77.5c-1,36.5-4,74-13.2,109.2c-21.3,80.8-7.1,154.8,33.1,225.9
		c3.4,6,6.3,12.3,9.3,18.5c0.5,1.1,0.1,2.7,0.1,7.2c-57.2-70.6-93.9-144.2-72.1-236c6.7-28.3,14.6-56.6,18.7-85.3
		c5.5-38.3,8-77.1,11.7-115.6C3266.6-2625.5,3267.2-2625.9,3267.8-2626.3z"/>
	<path class="st0" d="M4600.3-2629.2c-11.4,66.4,8.8,129.2,22.1,192.8c20,95.2-0.1,169.1-69.2,245.6c2.1-6.7,2.4-9.8,3.8-12.1
		c49.3-80.5,58.6-165.5,34.4-256.6C4575-2521.5,4580.8-2589.2,4600.3-2629.2z"/>
	<path class="st0" d="M3918.3-2843.5c6.4-23.2,9.5-47.9,19.8-69.3c16.9-35,39.1-67.7,5.7-107.6c48.1,7.9,69.3,60.5,44.2,99
		c-7.4,11.4-17.9,20.9-26.8,31.4c-13,15.4-25.7,31-38.6,46.6C3921.3-2843.5,3919.8-2843.5,3918.3-2843.5z"/>
	<path class="st0" d="M3650.4-1555c-78.5,47.2-194.6,28.1-241.1-41.2C3486.3-1550.5,3563-1534,3650.4-1555z"/>
	<path class="st0" d="M3955.3-2843.8c31.1-38.8,58.6-73.2,86.1-107.5c24.3,25.2,15.2,60-22.3,79
		C4000.3-2862.8,3980.7-2855,3955.3-2843.8z"/>
	<path class="st0" d="M3929.7-2939c-22.4,35.7-45.5,69-34.6,112.6c-25.7-20.8-35.5-50.2-25.7-75.8
		C3879.3-2928,3897.7-2940.1,3929.7-2939z"/>
	<path class="st0" d="M3896.5-2706.8c-8,41.8-22.3,56.5-51.9,54.7C3837-2686.6,3859.3-2710.9,3896.5-2706.8z"/>
</g>
</svg>
