<svg id="Warstwa_1" data-name="Warstwa 1" xmlns="http://www.w3.org/2000/svg" viewBox="0 0 7861.81 2506.66"><path d="M112.36-2738.34v416.15a54.53,54.53,0,0,0,54.53,54.53h0v5.79H0v-5.79a54.54,54.54,0,0,0,54.56-54.5v-416.18A54.54,54.54,0,0,0,0-2792.88H0v-5.77H166.9v5.77a54.54,54.54,0,0,0-54.54,54.54Z" transform="translate(0 4555.57)" fill="#fff"/><path d="M620-2271.29v5.78H453.09v-5.78a54.55,54.55,0,0,0,54.54-54.53V-2427c0-90.61-28.35-170.1-104.67-170.1-40.2,0-74.48,18.68-98.88,48.88v222.45a54.53,54.53,0,0,0,54.54,54.53v5.78H191.75v-5.78a54.54,54.54,0,0,0,54.53-54.53h0v-208.12a54.54,54.54,0,0,0-54.53-54.54v-5.78H304.08v37.07c25.13-28.43,59.3-45.78,98.88-45.78,108.19,0,162.47,82.08,162.47,175.88v101.23a54.52,54.52,0,0,0,54.49,54.57Z" transform="translate(0 4555.57)" fill="#fff"/><path d="M804.16-2271.29v5.78H637.29v-5.78a54.55,54.55,0,0,0,54.54-54.53v-208.12a54.54,54.54,0,0,0-54.54-54.54v-5.78H749.63v268.44A54.54,54.54,0,0,0,804.16-2271.29ZM692.59-2683.9a28.89,28.89,0,0,1,21.49-34.76,28.9,28.9,0,0,1,34.77,21.47,28.89,28.89,0,0,1-21.47,34.76h0A28.9,28.9,0,0,1,692.59-2683.9Z" transform="translate(0 4555.57)" fill="#fff"/><path d="M1120.88-2341c-20.82,51.81-78.36,84-125.51,84-92.77,0-174-82.09-174-175.88s81.26-170.09,174-170.09c35.48,0,80,11.18,107.15,30.22v93.24h-5.78v-16.34c0-31.84-13.51-62.8-38.54-82.47-15.33-12-44.32-18.91-62.83-18.91-60.9,0-116.23,73.75-116.23,164.35s55.33,164.32,116.23,164.32c43.19,0,100.22-25,120.15-74.59Z" transform="translate(0 4555.57)" fill="#fff"/><path d="M1148.9-2594.26h112.33V-2219c0,93.78-35,170.09-127.78,170.09v-5.78c60.9,0,70-73.71,70-164.31v-314.94a54.54,54.54,0,0,0-54.53-54.54Zm54.53-96.26a28.9,28.9,0,0,1,28.9-28.9h0a28.89,28.89,0,0,1,28.9,28.88v0a28.9,28.9,0,0,1-28.88,28.9h0a28.89,28.89,0,0,1-28.9-28.88Z" transform="translate(0 4555.57)" fill="#fff"/><path d="M1674.6-2271.29v5.78H1562.26v-46.87c-22.51,32-58.18,55.42-105,55.42-85.5,2.66-135.21-35.9-139.34-83.4-7.35-84.15,88.16-110.83,204.76-153.28v5.15c-85.47,31.12-158.76,58.36-147,142.34,7.09,50.61,51.47,83.41,81.54,83.41,48.31,0,84-25.59,105-59.56v-110.54c0-90.6-20.65-164.31-81.55-164.31-18.5,0-35.94,6.83-51.26,18.87-25.05,19.67-38.55,50.63-38.55,82.47v16.34h-5.77v-93.24a165.89,165.89,0,0,1,95.58-30.22c92.77,0,139.35,76.3,139.35,170.09v107a54.54,54.54,0,0,0,54.53,54.55Z" transform="translate(0 4555.57)" fill="#fff"/><path d="M1760.39-2588.48v161.42c0,90.6,9.08,164.32,70,164.32v5.77c-92.77,0-127.78-76.3-127.78-170.09v-161.42h-49.23v-5.78c88.49,0,103.41-108.07,103.41-150.25h3.6v150.25h70v5.78Z" transform="translate(0 4555.57)" fill="#fff"/><path d="M2164.92-2594.27h132.19v5.78a97.31,97.31,0,0,0-89.45,59l-113.82,264.95c-30.59,63.61-97.19,180.12-188.06,215.52h-65.29v-5.78c92.14-17.54,146.88-44.71,203-131.28a741.27,741.27,0,0,0,44.45-79.44h-48.39l-114.9-268.35a90.07,90.07,0,0,0-82.8-54.61v-5.78h166.88v5.78a32.77,32.77,0,0,0-32.77,32.76,32.68,32.68,0,0,0,2.65,12.89l114.16,266.7h.16l109.42-255.62a40.72,40.72,0,0,0-21.41-53.45,40.81,40.81,0,0,0-16-3.28v-5.78Z" transform="translate(0 4555.57)" fill="#fff"/><path d="M2836.27-2594.26h132.19v5.78a97.31,97.31,0,0,0-89.45,59l-113,264h-55.17l-77.18-180.32-77.19,180.32h-55.16l-114.84-268.38a90.07,90.07,0,0,0-82.79-54.62v-5.78h166.87v5.78a32.74,32.74,0,0,0-32.76,32.74,32.74,32.74,0,0,0,2.65,12.91l114.23,266.89,75.87-177.25L2596-2533.86a90.07,90.07,0,0,0-82.79-54.62v-5.78h245.72v5.78a97.31,97.31,0,0,0-89.45,59l-6.9,16.12,101.62,237.42,109.5-255.81a40.73,40.73,0,0,0-21.43-53.45,40.75,40.75,0,0,0-16-3.28Zm-176.83,73.57,17.6-41.11c12-28-10.46-26.68-17.6-26.68s-29.59-1.37-17.59,26.68Z" transform="translate(0 4555.57)" fill="#fff"/><path d="M3304.19-2271.29v5.78H3191.85v-46.87c-22.51,32-58.18,55.42-105,55.42-85.5,2.66-135.21-35.9-139.34-83.4-7.33-84.15,88.18-110.84,204.78-153.28v5.15c-85.47,31.12-158.76,58.36-147,142.34,7.09,50.61,51.47,83.41,81.54,83.41,48.31,0,84-25.59,105-59.56v-110.54c0-90.6-20.65-164.31-81.55-164.31-18.5,0-35.94,6.83-51.26,18.87-25.05,19.67-38.55,50.63-38.55,82.47v16.34h-5.77v-93.24a165.89,165.89,0,0,1,95.58-30.22c92.77,0,139.35,76.3,139.35,170.09v107a54.54,54.54,0,0,0,54.53,54.55Z" transform="translate(0 4555.57)" fill="#fff"/><path d="M3845.55-2798.65a120.14,120.14,0,0,1,120.13,120.12A121.57,121.57,0,0,1,3844.11-2557H3775v-5.77h17a115.82,115.82,0,0,0,115.8-115.8,114.36,114.36,0,0,0-114.36-114.35h-52.26a54.54,54.54,0,0,0-54.54,54.54h0v416.15a54.53,54.53,0,0,0,54.53,54.53h0v5.79H3574.39v-5.79a54.54,54.54,0,0,0,54.53-54.53h0v-416.15a54.54,54.54,0,0,0-54.53-54.54v-5.77Z" transform="translate(0 4555.57)" fill="#fff"/><path d="M4282.05-2582.41v40.63c-16.48-33.64-43.24-55.41-83.05-55.41-40.22,0-74.49,18.68-98.89,48.88v222.45a54.53,54.53,0,0,0,54.54,54.53v5.78H3987.73v-5.78a54.54,54.54,0,0,0,54.53-54.53h0v-208.08a54.53,54.53,0,0,0-54.52-54.54h0v-5.78h112.33v37.07c25.13-28.43,59.3-45.78,98.89-45.78C4231.58-2602.93,4259.25-2595.42,4282.05-2582.41Z" transform="translate(0 4555.57)" fill="#fff"/><path d="M4605.69-2393.55h5.77v128H4315.17l233.58-323H4443.21A122.26,122.26,0,0,0,4321-2466.24v0h-5.78v-128.07h296.29l-233.58,323h105.54a122.28,122.28,0,0,0,122.27-122.26Z" transform="translate(0 4555.57)" fill="#fff"/><path d="M4952.89-2343.11l5.37,2.15c-20.83,51.81-78.37,84-125.52,84-92.77,0-174-82.09-174-175.88s81.25-170.09,174-170.09c54.52,0,89.61,20.09,111,52,35.6,53.13,3.1,125.5-59.86,136.75l-119.69,21.39v-5.87l54.35-9.71c67.4-12.05,107.64-84.28,79.31-146.61-11.78-25.92-31.67-42.2-65.13-42.2-60.9,0-116.22,73.71-116.22,164.31s55.32,164.32,116.22,164.32C4875.94-2268.52,4933-2293.54,4952.89-2343.11Z" transform="translate(0 4555.57)" fill="#fff"/><path d="M5372.59-2432.84C5372.59-2339,5301-2257,5192.8-2257c-39.59,0-73.76-17.36-98.89-45.78v37.23H4981.58v-5.78a54.54,54.54,0,0,0,54.53-54.53V-2742a54.53,54.53,0,0,0-54.52-54.54h0v-5.77h166.86v5.77a54.53,54.53,0,0,0-54.53,54.54v430.37c24.4,30.2,58.68,48.89,98.89,48.89,76.31,0,122-79.5,122-170.1s-45.7-164.35-122-164.35c-26.13,0-49.56,7.21-69.39,20v-6.76a132.48,132.48,0,0,1,69.39-19C5301-2602.93,5372.59-2526.63,5372.59-2432.84Z" transform="translate(0 4555.57)" fill="#fff"/><path d="M5761.7-2533.94v208.12a54.54,54.54,0,0,0,54.53,54.53v5.78H5703.9v-37.1c-25.13,28.42-59.3,45.77-98.88,45.77-108.18,0-162.47-82.08-162.47-175.87v-101.23a54.53,54.53,0,0,0-54.52-54.54h0v-5.78h166.87v5.78a54.54,54.54,0,0,0-54.54,54.54v101.23c0,90.6,28.36,170.1,104.67,170.1,40.2,0,74.48-18.69,98.88-48.89v-222.44a54.54,54.54,0,0,0-54.54-54.54h0v-5.78h166.87v5.78A54.54,54.54,0,0,0,5761.7-2533.94Z" transform="translate(0 4555.57)" fill="#fff"/><path d="M6226.89-2265.5H6114.55v-282.76c-24.4-30.2-58.67-48.88-98.87-48.88-76.32,0-122,79.49-122,170.1s45.69,164.31,122,164.31c26.12,0,49.54-7.21,69.38-20v6.76a132.78,132.78,0,0,1-69.38,19c-108.19,0-179.81-76.3-179.81-170.09s71.62-175.88,179.81-175.88c39.59,0,73.74,17.35,98.87,45.78V-2742a54.53,54.53,0,0,0-54.52-54.54h0v-5.77h166.87v5.77a54.54,54.54,0,0,0-54.54,54.54v416.18a54.55,54.55,0,0,0,54.54,54.53Z" transform="translate(0 4555.57)" fill="#fff"/><path d="M6549.7-2393.55h5.78v128h-296.3l233.59-323H6387.23A122.26,122.26,0,0,0,6265-2466.26v.07h-5.78v-128.07h296.3l-233.59,323h105.55A122.26,122.26,0,0,0,6549.7-2393.55Z" transform="translate(0 4555.57)" fill="#fff"/><path d="M6896.9-2343.11l5.37,2.15c-20.82,51.81-78.36,84-125.51,84-92.77,0-174-82.09-174-175.88s81.26-170.09,174-170.09c54.51,0,89.6,20.09,111,52,35.6,53.13,3.1,125.5-59.86,136.75l-119.69,21.39v-5.87l54.35-9.71c67.4-12.05,107.64-84.28,79.31-146.61-11.78-25.92-31.66-42.2-65.12-42.2-60.9,0-116.23,73.71-116.23,164.31s55.33,164.32,116.23,164.32C6820-2268.52,6877-2293.54,6896.9-2343.11Z" transform="translate(0 4555.57)" fill="#fff"/><path d="M7360.69-2271.29v5.78H7193.82v-5.78a54.54,54.54,0,0,0,54.53-54.53V-2427c0-90.61-28.34-170.1-104.66-170.1-40.2,0-74.48,18.68-98.88,48.88v222.45a54.54,54.54,0,0,0,54.53,54.53v5.78H6932.47v-5.78a54.54,54.54,0,0,0,54.53-54.53v-208.12a54.54,54.54,0,0,0-54.54-54.54h0v-5.78H7044.8v37.07c25.13-28.43,59.3-45.78,98.88-45.78,108.19,0,162.46,82.08,162.46,175.88v101.23a54.55,54.55,0,0,0,54.53,54.57Z" transform="translate(0 4555.57)" fill="#fff"/><path d="M7544.89-2271.29v5.78H7378v-5.78a54.54,54.54,0,0,0,54.53-54.53v-208.12a54.53,54.53,0,0,0-54.52-54.54h0v-5.78h112.33v268.44a54.54,54.54,0,0,0,54.55,54.53ZM7433.32-2683.9a28.89,28.89,0,0,1,21.47-34.76h0a28.9,28.9,0,0,1,34.77,21.47,28.92,28.92,0,0,1-21.49,34.77A28.9,28.9,0,0,1,7433.32-2683.9Z" transform="translate(0 4555.57)" fill="#fff"/><path d="M7856.24-2343.11l5.37,2.15c-20.83,51.81-78.37,84-125.52,84-92.77,0-174-82.09-174-175.88s81.25-170.09,174-170.09c54.52,0,89.61,20.09,111,52,35.6,53.13,3.1,125.5-59.86,136.75l-119.69,21.39v-5.87l54.35-9.71c67.4-12.05,107.64-84.28,79.31-146.61-11.78-25.92-31.67-42.2-65.13-42.2-60.9,0-116.22,73.71-116.22,164.31s55.32,164.32,116.22,164.32C7779.29-2268.52,7836.32-2293.54,7856.24-2343.11Z" transform="translate(0 4555.57)" fill="#fff"/><path d="M3815.8-2906.52a243.38,243.38,0,0,1,9.75-68.47,556.56,556.56,0,0,1,22.38-65.65c8.68-21.48,18.12-42.56,27.79-63.5l14.32-31.33,14.63-31.33,14.64-31.33,7.29-15.7,3.67-7.84a79.13,79.13,0,0,0,3.09-7.51,63.93,63.93,0,0,0,2.78-31.6c-1.62-10.52-6.27-20-14.77-24.08a32.21,32.21,0,0,0-14.23-3.22,57.6,57.6,0,0,0-7.88.36c-2.78.36-5.59.58-8.32,1a170.65,170.65,0,0,0-32.41,8.1,177,177,0,0,0-56.92,34.32l-11.5,9.72,1-15.35c.27-4.48,0-8.37.27-14.06a20.11,20.11,0,0,1,1.07-5.14l.59-1.39.35-.76.72-1.48c.9-2,1.88-4,2.64-6a138.06,138.06,0,0,0,7.56-25.42,460,460,0,0,0,6-54.15,256.6,256.6,0,0,1,3.35-28.33,90,90,0,0,1,10.52-27.93,78.4,78.4,0,0,1,20.14-22.37,98.05,98.05,0,0,1,26.13-13.92,138,138,0,0,1,57.38-8,97.6,97.6,0,0,1,54.33,21.57,106.22,106.22,0,0,1,19.82,21.71,135.43,135.43,0,0,1,13.88,25.5,165.22,165.22,0,0,1,11.59,56.13,391.56,391.56,0,0,1-2.46,56.25,530.93,530.93,0,0,1-8.82,55.22c-3.89,18.22-8.46,36.25-12.93,54.11a480.71,480.71,0,0,0-9.89,54.15c-4.12,36.43-6.45,73.62,1.88,109.47a237.49,237.49,0,0,0,48.28,98.45,247.79,247.79,0,0,1-32.08-45.33,226.85,226.85,0,0,1-20.37-52,243.63,243.63,0,0,1-7.56-55.45,430.51,430.51,0,0,1,2.37-55.85,490.74,490.74,0,0,1,9-55.22c4.12-18.13,8.33-36,11.82-54.16a535.34,535.34,0,0,0,7.92-54.37,421.69,421.69,0,0,0,1.61-54.6,152.39,152.39,0,0,0-11.23-52,108.39,108.39,0,0,0-30.48-42,84.82,84.82,0,0,0-47.3-18.57,125.4,125.4,0,0,0-51.74,7.48,72.7,72.7,0,0,0-39.29,30.74,75.41,75.41,0,0,0-9,23.76,247.37,247.37,0,0,0-3.27,26.86,465.75,465.75,0,0,1-6.53,55.85,149.64,149.64,0,0,1-8.37,27.7c-.85,2.28-1.93,4.48-3,6.67l-1.25,2.64a6.62,6.62,0,0,0-.27,1.65c0,3.54,0,9-.31,13.7l-10.61-5.19a189.08,189.08,0,0,1,61.31-36,179.48,179.48,0,0,1,34.73-8.32c11.24-1.52,25-3.14,37.37,3.35a34.15,34.15,0,0,1,14.37,14.24,52.88,52.88,0,0,1,5.73,18.3,74.26,74.26,0,0,1-3.94,36.56c-1.08,2.87-2.33,5.73-3.63,8.37l-3.94,7.52-7.6,15.53-15.26,31-15.27,31.06-15,31.33c-9.93,20.81-20.23,41.39-29.53,62.43a555.4,555.4,0,0,0-24.48,64.44A254.6,254.6,0,0,0,3815.8-2906.52Z" transform="translate(0 4555.57)" fill="#fff"/><path d="M3935-3397.28a99.19,99.19,0,0,0-27.35,9.27,96.85,96.85,0,0,0-12.21,7.61,94.46,94.46,0,0,0-10.66,9.53,98.12,98.12,0,0,0-16.06,23.18,24.23,24.23,0,0,0-2.87,11.9,17.86,17.86,0,0,0,4.48,10.34l-7.56-1.3a36.37,36.37,0,0,0,11.09-18.57,128.82,128.82,0,0,1,4.88-12.44,29,29,0,0,1,4.48-7,14.86,14.86,0,0,1,4.47-3.4,13.09,13.09,0,0,1,6.13-1.17,20,20,0,0,1,9,3,18.66,18.66,0,0,1,1.92,1.26,13.29,13.29,0,0,1,2,1.7,12.26,12.26,0,0,1,3.27,5.73,11.49,11.49,0,0,1-.27,6.57,19.32,19.32,0,0,1-1.93,4.48c-1.38,2.28-2.64,3.76-3.71,5.41-3,4.48-6,7.16-7.92,10a18.91,18.91,0,0,0-3.45,9l-7-5a137.51,137.51,0,0,0,24.79-10.34,69.72,69.72,0,0,0,20.59-16.82,63.24,63.24,0,0,0,12-24.17c.54-2.24,1.12-4.47,1.52-6.71a26.92,26.92,0,0,0,.81-6.8,5.15,5.15,0,0,0-3.58-5.24A15.16,15.16,0,0,0,3935-3397.28Zm0,0a15.48,15.48,0,0,1,6.84,0,5.51,5.51,0,0,1,3.76,5.29,27.34,27.34,0,0,1-.53,6.93l-1.12,6.8a75.29,75.29,0,0,1-10.16,26,80.48,80.48,0,0,1-19.56,20.59,128.12,128.12,0,0,1-24.75,14.18l-6.8,3v-7.92a27.91,27.91,0,0,1,3.63-15c2.55-4.47,5.59-7.65,7.11-10.47l3.09-5.28c.89-1.43.67-2.19.67-1.21s0,0-1.12-.4a6.73,6.73,0,0,0-2.86-1.07c-.32,0,.22-.27-.49.31a14.06,14.06,0,0,0-2.33,3.71,116.4,116.4,0,0,0-4.79,11.06,70.92,70.92,0,0,1-6.31,12.44,37.47,37.47,0,0,1-10.56,10.47l-4.79,3-2.78-4.47a28.24,28.24,0,0,1-4.69-16.74,31.77,31.77,0,0,1,5.81-15.44,109.3,109.3,0,0,1,19.92-22.15,105,105,0,0,1,24.88-15.4A130.51,130.51,0,0,1,3935-3397.28Z" transform="translate(0 4555.57)" fill="#fff"/><path d="M3358.51-3034.51c-35.8-9.49-63.77-31.1-91-52.94-33.65-27.08-69.77-30.61-109.19-16.2-27.3,9.93-54.38,20.81-82.3,28.64-79.26,22.38-148.94,5.64-206.49-54.82-29.32-30.84-63.55-46.14-109.16-33.48,23.19-18.57,53.3-20,80.56-5.32a172.08,172.08,0,0,1,38.26,30.61c52.72,51.51,116.36,73.71,186.49,49.81,84.67-28.91,172.34-46.9,256.66-77,74.11-26.54,146.74-25.47,209.57,31.33a131.29,131.29,0,0,1,38.18,56.38c-5.6,1.7-6.45-1.74-7.75-3.76-44.17-67.62-110.76-96.21-190.19-82-52.95,9.44-102.35,32.49-156.86,40.77,43.45,11.63,72,46.14,109,67.13a188.6,188.6,0,0,0,72.63,22.69c-54.55,2.86-95.14,37.41-141.51,58.44-52,23.54-104.22,21.8-154.71-6.49-5.81-3.31-11.5-6.89-17.23-10.38-53.7-33.21-72.94-32.35-122.31,5.37,12.94-31.82,52.59-49.23,87.41-38.26a189.46,189.46,0,0,1,43.77,22.11c58.17,36.69,117.47,38.22,178,5.64C3298.54-3011.24,3325.17-3030.08,3358.51-3034.51Z" transform="translate(0 4555.57)" fill="#fff"/><path d="M4508.39-3037.64c0-1.43,0-3.94.54-4.21,49.67-20.14,82.79-68.34,137.66-81.05-44.35-5.72-85-21.61-127.19-33.47-101.54-28.6-167.64-2.1-237.64,96.35a154.79,154.79,0,0,1,52.1-78.76c50.25-42.38,109.77-55.5,170.06-35.36,86.28,28.78,176.19,44.53,261.13,77.74,81.94,32,156.63,19.82,219.78-44.76,15.93-16.29,33.61-29.44,56.26-34.77,20.89-4.83,40.68-3.71,58.93,10.65-48.78-12.84-82.65,10.07-115.59,42-64.8,62.66-141.51,70.62-224.12,41.35-19.65-6.93-39-14.77-58.54-22.37-38.62-14.86-74.34-10.48-107.41,15-26.58,20.41-53.34,40.72-85.83,51.38Z" transform="translate(0 4555.57)" fill="#fff"/><path d="M3734.17-4243.55c-4.08,41.62,18.88,71.6,40.54,102.12a633.5,633.5,0,0,1,38.67,57.38c26.85,47.93,24.7,95.14,0,142.94-22,42.29-54,78.18-75.05,121.05-8.64-3.26-4.48-9.39-4.92-13.78-2.64-42.2-24.22-74.51-53.71-102.31-17.32-16.33-36.47-30.7-54.19-46.63-35.18-31.68-45.07-70.53-31.33-115.59,1.52-5,3.4-9.9,5.28-14.73,23.58-60.33,24.21-76.08,5.46-135.64,14,9.75,20.14,20.36,22.91,41.48a163.3,163.3,0,0,1-9.17,79.12c-4.48,12.58-9.94,25-13.43,37.87-10.47,38.35.45,70.71,29.54,97,18.21,16.46,38.26,31,55.76,48.19a178,178,0,0,1,53.21,95.28c20.72-44.53,49.68-78.09,65.66-118.91,14.32-36.42,13.42-73.39-7.25-107.4-19.52-32.58-41.27-63.82-60.78-96.36C3728.3-4194.64,3721-4218.27,3734.17-4243.55Z" transform="translate(0 4555.57)" fill="#fff"/><path d="M4127.19-4248.43c15.39,22.38,13.42,45.2.85,66.41-13.43,22.38-29,43.32-43.77,64.76-52.72,76.08-53.71,123.52-4.07,201.39,12.71,20,24.48,40.68,38.71,64.44,12.53-63,57-98.81,101-135.24,40.59-33.61,50.21-69.55,32.53-119.63-8.41-23.89-17.36-47.57-17.9-73.39s3.36-50.21,24.26-69.9c-27.17,52.4-9.44,100.73,8.95,150.28,15.57,42,6,81-27.61,112.19-15.84,14.64-33,27.84-49,42.38-36.25,33-63.55,70.94-63.55,123.65-2.73-.8-5.72-.76-6.31-1.92-17.9-35.35-41.3-67.13-62.65-100.29-42.29-65-36.07-127.95,8-189.22,5.24-7.25,11-14.09,16.38-21.21C4108.26-4167.52,4134.57-4201.22,4127.19-4248.43Z" transform="translate(0 4555.57)" fill="#fff"/><path d="M5038.71-3719.59c-12.26,33.21-35.13,48.56-64,57-18.84,5.5-38.4,4.25-57.69,5.59-72.19,4.88-135.47,27.75-179.82,89-17.36,24-25.51,51.95-34.5,79.57-4.83,14.86-9.58,29.76-13.74,44.75-13,46.54-43.68,76.84-87.05,95.64-4.07,1.79-8.05,3.8-12,5.81-.63.32-.94,1.17-3.94,5.24,38.58-1.74,71.07,15.89,106.69,19.56,45.65,4.47,84.41-9.89,113.72-44.75,19.38-23,41.93-33.88,71.61-33.52,28.77.31,57.46-2.38,84.58-14.24-17.9,15.53-39.61,20.9-61.94,20.5-38-.72-68.07,10.7-94,41-32.63,38.17-77.6,48.51-126.29,38.22-39.61-8.37-77.92-23.36-120-24.79,12.62-5.69,25.37-11,37.77-17.1,46.54-22.87,78.18-57.64,91.52-109.06,10.25-39.52,19.6-79.75,43-114.48,43.81-65,109.15-89,183.49-95.91,8.95-.85,17.9-.49,26.85-.89C4982.77-3674.3,4995.39-3680.43,5038.71-3719.59Z" transform="translate(0 4555.57)" fill="#fff"/><path d="M3530.45-3391.55c-25.82-66.5-75-95-131.62-117.7-79.17-31.82-108.75-93.35-88.34-176.32,8.46-34.42,9-67.13-7-100,17.91,10.43,23,26.85,25.38,44.48,2.95,21.84-1.75,43-6.62,64.13-15.67,68.34,12.93,125,77.28,152.52,31.33,13.43,64.4,24.3,89.51,49.23,10.34,10.2,19.47,21.62,30.48,34,6.8-94.39-31-165.59-102.58-220.77C3518.28-3602.29,3534.25-3504.82,3530.45-3391.55Z" transform="translate(0 4555.57)" fill="#fff"/><path d="M4556.46-3785.82c3.67,4.47,0,8.5-1.79,12.17-13.74,25.91-13.43,52.54-6.14,80.33,23.28,89.51-6.13,148.94-90.58,185.19-80.1,34.37-80.1,34.37-126.65,105-20.54-65.16,14.95-182.9,68.61-221.7-45.24,53.21-63.32,115.23-60.46,189.3,29-53.12,78-71.6,126.61-92.06,59.47-25,86.59-81.89,73.35-146.83-4-19.74-9-39.25-7.75-59.61C4533.05-3758.57,4539.32-3771.9,4556.46-3785.82Z" transform="translate(0 4555.57)" fill="#fff"/><path d="M3946-4555.57c2.24,34.95,23,59.43,44.13,83.87a435.45,435.45,0,0,1,71.6,110c31.33,71.25,26.41,139.1-17.05,204-18.79,28.1-44.39,51.64-55.81,85-6.39-26.41,8.33-44.49,22-62.66,25.29-33.69,46.73-68.74,52.9-111.88,7.79-54.78-8.95-102.93-36.11-148.89-18.8-31.33-42.65-59.25-65.25-87.94C3945.94-4505.18,3937.7-4528.58,3946-4555.57Z" transform="translate(0 4555.57)" fill="#fff"/><path d="M3873.8-4073.76A174.52,174.52,0,0,0,3844-4124c-76.66-87.58-84.4-182.28-15-289.1a421.34,421.34,0,0,1,45.69-60.64c21-22.38,38.58-46.86,38.94-80.07,10.33,24.57,6.4,44.35-15.18,71.3-27.47,34.41-54.64,68.92-74.69,108.43-38.89,76.71-36.29,150.42,15.62,220.77,10.16,13.78,20,27.88,29,42.42C3875.27-4099.72,3879.66-4087.41,3873.8-4073.76Z" transform="translate(0 4555.57)" fill="#fff"/><path d="M4325.4-4015a79.63,79.63,0,0,1,18.21,58.59c-2.64,46.18-7.88,92.1-26.85,135-5.82,13.42-5.06,24.07,4,34.95,3.8,4.47,6.71,9.84,10.34,14.54,36.38,47.44,34.05,96.31,5,145.85a421.21,421.21,0,0,1-24,35c-23.72,32.23-25.15,35.81-28,75.5-9.35-24.25-6.18-46.63,11.77-74.11,11.77-17.9,24.61-35.53,33.52-55.27,17.18-38.26,21.26-75.85-7.56-111.16-21.53-26.32-24.39-52.32-11.64-86.11,17.5-46.41,26-96.17,14.77-146.83C4323.52-3996.47,4320.92-4004.66,4325.4-4015Z" transform="translate(0 4555.57)" fill="#fff"/><path d="M3536.85-4015.94c6,8.59,3,15.48,1.48,21.3-15.26,58.54-.23,113.9,18.66,168.23,7.29,20.85,6.67,37.81-7.74,53.7-42.47,46.63-36.66,95.91-8.51,146.39,7.61,13.65,16.47,26.58,24.66,39.92,13.43,21.84,18.62,45.15,11.19,70.89-1.21-17-2.19-34.24-11.54-48.87s-20.9-29-30.44-44.13c-48.24-76.35-39.25-120.83.94-170.33,13.12-16.07,14.14-30.79,6.76-49.23-15.75-39.16-20.5-80.82-23.41-122.49A97.06,97.06,0,0,1,3536.85-4015.94Z" transform="translate(0 4555.57)" fill="#fff"/><path d="M3032.62-4171.72c25.64-2.6,40.9,8,55,19.51,23.23,19,39.34,43.5,43.32,73.39,6.71,50.39,34.1,83,78.36,106.42,63.2,33.43,83.87,87.72,63,156a568.86,568.86,0,0,1-21.89,58.18c-1.83-17.32,3.85-33.2,8-49.23,20.28-78.31,5.46-118.55-63-160-39.61-24-64.49-55.9-70.62-102.4a100.8,100.8,0,0,0-34.24-66.23c14.1,34.32,11.77,70.17,11.06,105.88-6.67-16.64-4.48-34.55-6-51.91a119.26,119.26,0,0,0-16.29-52.81C3069.14-4151.18,3053.92-4160.94,3032.62-4171.72Z" transform="translate(0 4555.57)" fill="#fff"/><path d="M4829.85-4170.38c-66.05,27.43-61.31,85-67.53,137.79-2.42-34.46-5.37-68.56,12.71-102.93-19.6,11.46-32.13,26.85-35.49,55.23-6.67,56.7-38.13,92.45-86.15,119.44s-66.64,73.71-56.34,129.78c4.47,24.75,10.56,49.23,14.27,74.25-11-24.66-21.66-49.45-26.85-76.08-11.41-59.7,10.65-110.59,64.67-139,46.18-24.3,75.63-57.51,83.2-110.68,4.47-32.94,24.39-58.89,52.62-77.2C4796.82-4167.12,4809.13-4174.37,4829.85-4170.38Z" transform="translate(0 4555.57)" fill="#fff"/><path d="M3424.16-3995.35c-17.9-13.43-35.22-27.21-53.21-40.28-56.25-41-79.3-107.68-62.65-180.58,6.13-26.85,17.9-52,27.3-77.82,13.42-37.73,14.36-74.25-8.33-109.07a7.52,7.52,0,0,1,.45-10.38c20,15.66,28.46,36.47,31,60.46,3,29.09-6,55.9-16.29,82.39s-20.9,54.11-23.36,83.51c-5.06,61.22,15.62,110.9,65.43,147.68C3400.53-4027.44,3415.84-4014.91,3424.16-3995.35Z" transform="translate(0 4555.57)" fill="#fff"/><path d="M4428.6-3986c10.56-24.16,31.32-39,50.57-55.13,61.49-51.38,79.34-110.27,56.43-187.56-9-30.66-24.12-59.43-29.22-91.39-5.78-36.56.89-69,29.62-94.83,5.24,3.94,2.51,6.67,1.08,8.95-24,35.18-23.59,72.46-10.39,111.17,9.81,28.87,24.13,56.21,29.05,86.73,11.55,71.61-7,131.17-68,174.54C4467.13-4019.25,4445.74-4005.29,4428.6-3986Z" transform="translate(0 4555.57)" fill="#fff"/><path d="M4508.39-3037.64a22.34,22.34,0,0,0-17.18,7.11c34.81-3.8,59.7,13.88,85,28.47,71.6,41.48,139.27,37.63,207.87-7.79,46.9-31.06,87.68-21.08,116.9,23.5-4.48,3.31-6.62-1.3-8.95-3.36-35.8-31-59.7-33.07-101.19-8.68-14.77,8.63-29.13,18.48-44.75,25.1-49.9,21.17-99.58,21.17-148.94-3.58-42.92-21.48-81.63-53.3-133.36-54.82,15.48-2.6,29.4-11.41,45.06-5.82Z" transform="translate(0 4555.57)" fill="#fff"/><path d="M3261.08-3349.08c-45.11-14.27-74.6-44.21-89-89.06q-6.86-21.21-12.67-42.78c-32.09-117.92-102.93-173.46-225.78-176.41-24.88-.59-49.23-2.29-71.16-15.09a71.87,71.87,0,0,1-34.28-42.11c32.54,40.73,78,39.61,123.34,44.31,119.81,12.44,182.64,68.42,207.88,170.68,2.69,10.83,5.91,21.53,8.37,32.45A156.15,156.15,0,0,0,3244.26-3362c5.9,3.45,14.41,4.74,16.42,13.43Z" transform="translate(0 4555.57)" fill="#fff"/><path d="M3603-3441.85c-4.26,15.71-8,31.6-13,47-10.34,32-7.07,62.65,5.32,93.66a98.41,98.41,0,0,1,3.31,59.48c-14.54,63.19,4.48,115.82,49.23,161.11,23.1,23.27,44.17,48.15,47.22,83.55-15.8-41.08-50.66-66.54-77.74-98.45-32.76-38.58-45.07-84.14-32.71-133.81a145.92,145.92,0,0,0-7.12-91.7C3559.85-3366.31,3572.07-3406.67,3603-3441.85Z" transform="translate(0 4555.57)" fill="#fff"/><path d="M4256.3-3440.42c30.43,37.73,42.47,79.39,23.27,124.77a126.88,126.88,0,0,0-7.21,82.71c14.86,60.73-3.17,111.88-48.15,154a270.11,270.11,0,0,0-61.27,81.54,115.51,115.51,0,0,1,25.56-59.3c11.5-14.59,24.07-28.37,36.52-42.25,34.41-38.35,44.75-83.28,35.8-133.09-4.48-24.57-8.1-49.63,3-72.55,19.51-40,9-78.63-1.21-117.74C4261.13-3428.51,4258.49-3434.51,4256.3-3440.42Z" transform="translate(0 4555.57)" fill="#fff"/><path d="M4062.7-2928.94c-15-14.5-25-30.38-13.74-52.4,7.43-14.5,13-30,19.82-44.76,27.93-60.59,34.87-121.54,1.48-182.32-17.14-31.33-13.43-59.83,6.62-87.76,8.73-12.08,16.43-25,26.05-36.29,18.35-21.57,26.85-44.44,9.85-76.08,22.37,21.39,24.79,39,13.42,59.74-12.13,22.38-29,41.4-44,61.76-16.24,22.15-18.57,44.75-6,69.05a215.13,215.13,0,0,1,24.16,70.94c13.43-16.43,15.4-31.33,16.52-51.51,7.56,17.27,5.1,29.22-1.12,40a130.51,130.51,0,0,0-16.56,57.37A234.65,234.65,0,0,1,4068.6-3004C4055.49-2980.22,4049.5-2955.83,4062.7-2928.94Z" transform="translate(0 4555.57)" fill="#fff"/><path d="M3177.48-3626.14c-28.46-37.68-68.47-52.68-112.5-63-59.7-14-94.79-58.18-98.46-119.94a552.68,552.68,0,0,1,1.16-60.23c2.91-55.86-4.79-74.2-46-106.65,30.48,3.31,54.47,30.7,57.11,68.34,1.56,22.91,0,46.09-.54,69.14-1.52,86.1,25.64,122.67,109,143.21C3127.54-3685,3159.09-3664.67,3177.48-3626.14Z" transform="translate(0 4555.57)" fill="#fff"/><path d="M3674.6-3101.15c-27.34-26.49-26.27-58.89-17-92.63a254.2,254.2,0,0,1,25.42-57.11c17.09-30.34,17.63-60.82,3.53-92.23a594.81,594.81,0,0,1-29.31-86.78c-11.77-43.14-12.44-85,12.71-125,15.35-24.39,25.06-51,5.28-84.72,29.9,21.26,33.21,38.49,17.9,61.27-44.39,66-41.26,134.48-10.29,204.34,5.15,11.59,11,22.87,15.44,34.73a104.35,104.35,0,0,1-3.54,86.73c-6,12-12.48,23.76-18.35,35.8C3654.51-3171.27,3654.42-3146.35,3674.6-3101.15Z" transform="translate(0 4555.57)" fill="#fff"/><path d="M4177-3628.65a56.24,56.24,0,0,0,6.45,52.32c45,63.68,32.4,128.17,5.68,193.51-5.91,14.45-11.05,29.27-16.92,43.77-12.3,30.3-9.93,59.25,5.24,88.21,13.78,26.36,27.61,53,29.76,83.64,2.55,36.16-11.73,63.91-42.74,84,50.26-46.36,40.28-97.92,11.9-148.85-26.58-47.57-24.12-91.7-.22-140.07,30.39-61.41,43.95-125.63,2-189.18a102.06,102.06,0,0,1-11.37-24.25C4161.56-3601.53,4159.86-3617.5,4177-3628.65Z" transform="translate(0 4555.57)" fill="#fff"/><path d="M3475.36-3723c-36.56-26.27-77.06-44.76-107.68-77.25-35.22-37.23-53.92-79.79-48.1-131.48,3.89-34.37,2.64-68.16-10.88-103.92,11.23,3.94,13.87,11.51,17.05,18.17a122.41,122.41,0,0,1,9.44,72c-9.62,65.43,15.22,116.67,65.16,156.64,18.49,14.81,35,32.62,59,40.72C3466.68-3745.68,3470.12-3731.71,3475.36-3723Z" transform="translate(0 4555.57)" fill="#fff"/><path d="M4941.73-3974c-37.36,20.85-47.61,52.09-47.39,88.56,0,26.86,2.24,53.71.31,80.56-4.2,57.33-34.95,96.8-89.5,113.4-45.78,13.92-92.37,24-122.4,66.69a117,117,0,0,1,70.66-63.06c12.62-4.48,25.78-7.39,38.58-11.41q91.24-28.52,93-124.15c.45-26.85-1-53.7,0-80.55a80.07,80.07,0,0,1,29.27-60.64C4921-3970.11,4927.64-3977,4941.73-3974Z" transform="translate(0 4555.57)" fill="#fff"/><path d="M2822.15-3559c15.08,8.63,18.3,24.07,21.75,39.07,2.68,11.54,3.58,23.49,5.81,35.17,9.58,50.21,44.76,82.48,95.91,87.72a203.2,203.2,0,0,0,29,1.7c34-1.39,60.55,9.17,83.77,36.56,33.66,39.7,79.35,49.95,129.79,38,27.43-6.49,54.1-16.74,83-15.57,1.48-8.59-9.71-6.31-10.07-12.8l-.4.45c13.87.4,24.84,8.68,37.24,12.93-1.3,7.92-6.9,5.15-10.57,5-29.53-.94-57.55,6.27-85.39,15-63.32,20-117.74,7.79-160.17-45.43-13.42-16.91-30-25.91-51.86-25.55-11.15,0-22.38-1.12-33.43-1.92-62.26-4.48-102.94-39.83-113.45-100.79a262.71,262.71,0,0,0-20.46-70Z" transform="translate(0 4555.57)" fill="#fff"/><path d="M4222.73-3627.75c18.13-32.14,0-57.33-13.82-83.47-9.45-17.9-19.56-35.26-27.53-53.7-21-48.47-7.38-108.62,36.79-149.74-21,54.64,6.67,93.26,28.64,133.14,28.24,51.19,17.41,99.12-10.92,145.89A14.27,14.27,0,0,1,4222.73-3627.75Zm17.64-38.89c17.58-42.25,15.79-81.1-6.05-118.82-15.93-27.44-32.71-54.42-35.8-92.6-26,40.28-25.82,77.29-9,114.12,15.22,32.27,32.94,63.19,50.8,97.3Z" transform="translate(0 4555.57)" fill="#fff"/><path d="M3404.61-3335.16c-31.82-16.78-63.06-21.75-92.73-31.33-39.21-12.88-74.25-31.32-94.92-69.41a25.59,25.59,0,0,1-3.85-23.58c36.16,76.39,109.06,81.85,173,104.85-6.62-55.8-66.59-123-121.23-136.27-18.93-4.47-37.82-8.68-50.84-27.21,42,21.26,93,17.9,125.75,58.18C3369.34-3423.77,3392-3384.79,3404.61-3335.16Z" transform="translate(0 4555.57)" fill="#fff"/><path d="M3648.69-3906.74c42.2,41.35,52.09,92.32,29.45,143.47-8.69,19.7-18.94,38.76-29.14,57.69-13.11,24.3-27.88,48-9.93,79.48-37.46-26.4-51.92-97.2-31.33-142.36a309.25,309.25,0,0,1,21.26-39.16C3648.2-3838.09,3661.93-3869.42,3648.69-3906.74Zm-28,239.65c9-17.59,17.09-34.06,26-50,12.76-22.65,26.18-44.75,32.72-70.44,7.7-30.21,3.4-58.54-16.43-90.8-1.79,40.27-22.06,67.44-38,96.44C3604.74-3745,3603.26-3707.19,3620.72-3667.09Z" transform="translate(0 4555.57)" fill="#fff"/><path d="M4384.92-3715.51c5-17.64,11.05-24.93,21-31.82a673.09,673.09,0,0,0,68.33-54c39.16-35.44,59.21-79.3,54.51-133.45-2.5-28.24-3.4-56.74,9.94-83.37a38.76,38.76,0,0,1,17-20.1c-3.76,11.42-6.81,19.6-9.18,28a152.54,152.54,0,0,0-4.21,64.31c10,67.44-17.9,118.64-66.72,161.78C4448.74-3760.31,4415.75-3745.14,4384.92-3715.51Z" transform="translate(0 4555.57)" fill="#fff"/><path d="M3546.7-4196.25c-20.81-31.95-28.82-66.1-15-102.93a235.5,235.5,0,0,1,16.88-36.39c21.92-37.5,25.82-74.15-3.9-109.77,7.16-5.24,10.12,1.11,13.43,3.76,51.15,41.93,57.95,113.18,15.35,164.78C3554-4253.4,3541.73-4228.07,3546.7-4196.25Zm33.47-197.4c0,54.95-60.15,94.38-39.16,159.09,8-24.7,22.38-40.86,34.24-58.49C3597.22-4325.23,3597-4359.24,3580.17-4393.65Z" transform="translate(0 4555.57)" fill="#fff"/><path d="M4314.7-4195.94c6.49-34.68-7.52-61.17-29.31-86.64-42.16-49.23-28.11-125.71,29.36-166,.44,2.15,1.7,4.48,1,5.55-27.21,37-21.84,73.93.58,110.27,24.8,40.28,30.88,81.45,9.53,124.91C4323.7-4203.41,4322.71-4197.68,4314.7-4195.94Zm6.49-42.47c21.53-61-38.35-101.59-37.32-157.53-17.5,36.79-17.55,72.64,6.17,106.47,11.41,16.29,24.93,31.15,31.15,51.06Z" transform="translate(0 4555.57)" fill="#fff"/><path d="M4468.11-3353c68.57-25.95,144-28.06,178.57-103.33a96.68,96.68,0,0,1-40.59,61.09A211.22,211.22,0,0,1,4541.6-3365c-28.15,8.32-57.33,13.42-86.24,29.35a321.64,321.64,0,0,1,64.09-124.81c32.44-39.88,83-37,122.31-56.57-7.84,12.26-11.15,17.23-26,19.38C4533.5-3485.75,4500-3424.44,4468.11-3353Z" transform="translate(0 4555.57)" fill="#fff"/><path d="M4437.55-4316.5c10.2,23.85,4.7,45.74-10.79,65.12-9.71,12.12-21.26,22.86-32.18,34.05-39.78,40.68-52.94,89.15-31.32,141.42,20.76,49.9,28.33,99.62,17.32,153.5,0-10-.76-18.93,0-27.74,3.71-36.07-5-69.1-21.22-101.1-18.52-36.47-23.85-74.83-12.26-114.79,9.31-32.09,31.33-55.18,54.2-77.92C4421.62-4263.87,4437.68-4285.8,4437.55-4316.5Z" transform="translate(0 4555.57)" fill="#fff"/><path d="M3483.06-3935.88c-10.52-39.65-9.49-78.72,7.61-115.82,31.86-69,19.19-127.95-35.14-180.49-33.78-32.62-39.91-56.21-26.58-87.4-2.82,46.9,31.33,72,57.33,102.13,39.65,46.05,45.16,98.45,22.38,152.47C3491.07-4023.28,3472.14-3983.09,3483.06-3935.88Z" transform="translate(0 4555.57)" fill="#fff"/><path d="M3930.45-4035.63c-9.17,28.73-19.38,51.55-36.92,70.89,22.91-35.45,26-77.29,37.33-120.84a32.07,32.07,0,0,1,9.48,25.74,128.84,128.84,0,0,0,27.26,83.28c37.72,50.75,39.16,102.08,6.75,156-16.78,28-17.49,44.75-8.68,80.33-15-15.3-16.2-32.31-13-50.25a144.86,144.86,0,0,1,17.9-45.52c23.76-42.2,19.29-82.7-5.41-122.49C3951.08-3981.26,3937-4004.08,3930.45-4035.63Z" transform="translate(0 4555.57)" fill="#fff"/><path d="M4684.49-3402.69c27.17-57.37,68.48-92.24,135.65-88.52,56.08,3.09,95.68-22.38,118-74.43,6.8-15.93,16.6-29.8,37.14-32.49-19.06,15.67-23.85,39.16-35,59.08-20.09,35.49-51.42,55.18-91.7,60.1a175,175,0,0,1-29,1.07c-47.57-2.28-85.61,15.58-115,52.9C4698.32-3417.15,4691.16-3410.12,4684.49-3402.69Z" transform="translate(0 4555.57)" fill="#fff"/><path d="M3176.46-3402.29q-19.07-20.13-38.18-40.28a110.13,110.13,0,0,0-84-34.81c-11.19,0-22.38,0-33.52-.5-47.85-1.65-81.72-25.15-101.73-67.89-8.68-18.57-16.47-37.36-36.61-55.27,26.54,6.05,35.81,22.16,43.37,38.85,11.23,24.21,25.55,45.11,49.68,58.18,19,10.38,39.38,12.62,60.37,13.42C3114.16-3488.12,3140.61-3472,3176.46-3402.29Z" transform="translate(0 4555.57)" fill="#fff"/><path d="M4030.74-3521.29a91,91,0,0,0,.85,9.89c.41,3.58.85,7.43,1.08,11.24v.67l-.67.71a45.46,45.46,0,0,1-16.2,11.19,181.7,181.7,0,0,1-17.9,6.18,55.1,55.1,0,0,0-15.71,7.43,33.47,33.47,0,0,0-10.56,12.57l-6.58,13-1.84-14.41a50.66,50.66,0,0,1,3-26.32,36.72,36.72,0,0,1,18.49-19.29,41.64,41.64,0,0,1,12.84-3.26c4.48-.27,8.42,0,12.35,0a35.44,35.44,0,0,0,11.42-2.29A22.77,22.77,0,0,0,4030.74-3521.29Zm0,0a21.27,21.27,0,0,1-8.23,9.4,35.17,35.17,0,0,1-12,4.48c-4.21.8-8.51.94-12.13,1.61a37.67,37.67,0,0,0-10.47,3.71,30.56,30.56,0,0,0-13.74,16.2,43.31,43.31,0,0,0-2.06,21.84l-8.42-1.38a42.38,42.38,0,0,1,13.43-15.62,59.24,59.24,0,0,1,18.44-7.75c6.17-1.65,12.26-2.73,17.9-4.47a45.67,45.67,0,0,0,15.71-8.15l-.58,1.39c.22-3.22.58-6.4,1.07-9.89A99.58,99.58,0,0,0,4030.74-3521.29Z" transform="translate(0 4555.57)" fill="#fff"/><path d="M4122.26-3609c-2.46-17.9,3.49-32.85-3.53-49-26.5,49.23-70.26,88.39-67.13,149.83,1,20.9,2.73,41.08,11.19,60.51-15.58-14.68-17.9-34.55-21.66-57.38h0v-22.1a61.26,61.26,0,0,0,5-17.91c4.26-28.37,20.28-52.4,38.4-74.69,20-24.57,34.37-51,25.51-85C4126.2-3675.33,4133.94-3645.25,4122.26-3609Z" transform="translate(0 4555.57)" fill="#fff"/><path d="M3525.66-3245.21l15.93,23.77c-22.77-7.25-39.92-22-54.28-40-17.9-22.15-24.61-48.91-30.21-76.08-7.79-38-16.33-75.85-48.87-102.93,29.58,5,50.57,23.23,69.5,43.68a147,147,0,0,1,39.56,92.73c1.35,20,5.82,39.74,8.95,59.57-14.14-14.91-12.71-33.93-14.32-52.32-4.47-51.51-28.59-91.52-71.6-120.21,17.41,30.26,22.91,64.22,31.59,97.07a146,146,0,0,0,41.71,71.92C3516.76-3244.89,3519.84-3237.37,3525.66-3245.21Z" transform="translate(0 4555.57)" fill="#fff"/><path d="M3753.19-3654.92c-8,9.53-4.48,20.59-7,31.91-1.52-33,4.48-62.65,23.14-88.83,12.93-18.13,11.9-37.15,3.35-57.06,16.07,11.09,21.89,25.59,16.47,43.72a90.51,90.51,0,0,1-8.95,20.32c-18.75,31-15.26,59.52,9.4,85.56a145.28,145.28,0,0,1,33,59.71c12.09,40.5,7.34,78.31-21.16,111.88C3848.73-3531.22,3796.46-3591.77,3753.19-3654.92Z" transform="translate(0 4555.57)" fill="#fff"/><path d="M4451.15-3439.75c-34.5,27.71-41.53,67.89-49.23,107.05A163.07,163.07,0,0,1,4333-3227.17a73.66,73.66,0,0,1-9.48,5.82c-1,.49-2.6-.32-9-1.3,30.25-26.14,59.38-50.08,70.84-87.54,11.05-35.8,15.53-74.11,35-107.72-30,16.25-48.43,41.8-62.66,71.61s-6.8,64.71-21.34,98.45C4334.21-3346.17,4381.38-3425.6,4451.15-3439.75Z" transform="translate(0 4555.57)" fill="#fff"/><path d="M3636-2972.39c-49-22.69-95.68-20.14-142.23,5.06a187.53,187.53,0,0,1-73.93,23.67c-32.35,2.68-60.33-6.09-81.05-33.7,53.71,36.92,105.22,20.94,156.64-3.62a186,186,0,0,1,97.78-16.07C3611.63-2995.57,3623.36-2983.31,3636-2972.39Z" transform="translate(0 4555.57)" fill="#fff"/><path d="M4522.49-2979.46c-16.78,30.88-67.8,44.3-108.3,30.88a386.36,386.36,0,0,1-45.74-17.9c-45.65-21.89-91.79-30.17-141.42-6.09,11.86-16.69,21.21-22,40.28-23.94a189,189,0,0,1,104.27,18.26C4421.88-2953.6,4472.05-2944.82,4522.49-2979.46Z" transform="translate(0 4555.57)" fill="#fff"/><path d="M5040-3228.29c-31.33,13.65-58.18,12-81-2-76.75-47.7-146.3-31.15-213.43,19.07-5.91,4.47-12.62,7.83-20.27,12.48,60.19-70.48,141.1-88.07,221.66-49.27C4982.77-3230.62,4997-3227.44,5040-3228.29Z" transform="translate(0 4555.57)" fill="#fff"/><path d="M3133.9-3197.9,3089.72-3227c-56.34-36.74-114.25-44.48-174.85-10.24a124.19,124.19,0,0,1-55.53,16.15c-11.91.58-23.63,0-34.33-8.46,38.22,6.67,70.44-8.95,102.44-25.68,46.36-24.31,91.88-18.62,137,4.11,26.13,13.43,47.71,32.85,71.29,49.63a2.15,2.15,0,0,1,.67,1.79C3136.13-3199.2,3135.28-3198.75,3133.9-3197.9Z" transform="translate(0 4555.57)" fill="#fff"/><path d="M5118.87-3340.17c-44.09-23-84.18-11.46-123.88,9-23.59,12.13-49.9,10.65-76.44,8.59,2.64,13.43,15.71,8,20.23,17.9a111.46,111.46,0,0,0-79.44-4.07,92.63,92.63,0,0,1,66.1-21.48c32.49,2.1,61.49-6.13,90.18-20,29.81-14.45,60.91-19.69,92.24-3.71A16,16,0,0,1,5118.87-3340.17Z" transform="translate(0 4555.57)" fill="#fff"/><path d="M3006.08-3309c-37.9-2.51-71.38-15.53-107.18-13.88a69.62,69.62,0,0,1-34.15-8.95c-39.11-20.94-78.94-28.82-121.82-11.1,22.38-22.6,49.23-23.09,76.53-16.64a158,158,0,0,1,35.49,13.42,143.27,143.27,0,0,0,75.54,15.58C2957.12-3332.43,2981.51-3325,3006.08-3309Z" transform="translate(0 4555.57)" fill="#fff"/><path d="M4640.41-3273.49c-100.24-25.91-184.2,6.27-258.94,71.87C4448.6-3279.89,4533.72-3311.31,4640.41-3273.49Z" transform="translate(0 4555.57)" fill="#fff"/><path d="M3931.39-3467.27a83,83,0,0,1-14.27-34,50.76,50.76,0,0,1,1-19.06,61.81,61.81,0,0,1,7.74-17.46,81,81,0,0,0,12.89-32,48.86,48.86,0,0,0-8.41-31.78l-9.22-14.5,15.08,8.19a88.65,88.65,0,0,1,16.87,11.82,52.62,52.62,0,0,1,12.8,16.87,40.19,40.19,0,0,1,3.31,21.3,49.58,49.58,0,0,1-7,19.78c-6.71,11.32-13.78,22.38-19.24,33.79A128.59,128.59,0,0,0,3931.39-3467.27Zm0,0a114.91,114.91,0,0,1,7.39-38.76,306.72,306.72,0,0,1,17.18-35.48,45.82,45.82,0,0,0,5.28-17.14,32.18,32.18,0,0,0-3.18-16.88c-5-10.65-15.3-18.39-26.13-24.48l5.91-6.26a68.94,68.94,0,0,1,7.87,17.9,48.18,48.18,0,0,1,1.26,19.74,81.81,81.81,0,0,1-15.44,34.23,63.28,63.28,0,0,0-8,15.35,49.29,49.29,0,0,0-2.24,17.14A90.27,90.27,0,0,0,3931.39-3467.27Z" transform="translate(0 4555.57)" fill="#fff"/><path d="M4152.87-4446.6c-16.33,36.92,4.48,63.33,23,90.72,24.48,36.11,25.46,62.65,1.34,93.22,23.72-52.36-8.95-86.69-35.8-126.25-1.57,18.21,6.08,30.3,12.17,43.68C4126.74-4370.38,4125.44-4412.58,4152.87-4446.6Z" transform="translate(0 4555.57)" fill="#fff"/><path d="M3711.16-4448.66c27.84,34.51,26.85,67.94-4.2,112.78,4.25-19.33,17-31.33,14.32-51.46-26.85,38.53-59.39,71.24-36.66,121.63-17.09-14.32-18.52-32.53-14.94-51.69a101.37,101.37,0,0,1,20.05-42C3709.6-4385.87,3724.19-4413.61,3711.16-4448.66Z" transform="translate(0 4555.57)" fill="#fff"/><path d="M3213.69-3272.24c88.25-38.39,189.35-12.26,264.71,67.76-45.15-24.26-78.36-57.33-124.05-68.74S3264.71-3280.2,3213.69-3272.24Z" transform="translate(0 4555.57)" fill="#fff"/><path d="M4597.9-4000.86c24.84-34.82,19.91-73.8,19.2-112.37-.9-46.81,19.73-79.26,51.95-89.51-6.62,7.52-15.48,17.9-24.7,28.11-14.41,15.93-18.48,35.13-17.9,55.76.54,28.15,4.16,56.07-1.79,84.45C4621.08-4018.09,4613.78-4007.53,4597.9-4000.86Z" transform="translate(0 4555.57)" fill="#fff"/><path d="M3187.15-4204.62c33.88,9.67,56.26,40.28,59.43,75.86a120.53,120.53,0,0,1-.27,26.85c-4.92,35.31-2.9,69.32,17.46,100.87-14.77-6.49-21.66-17.9-25.69-31.59a114.6,114.6,0,0,1-3-53.17C3243.76-4133.33,3230.61-4172.31,3187.15-4204.62Z" transform="translate(0 4555.57)" fill="#fff"/><path d="M3935.06-3752.35c14.86,31.6,7.83,66.28,17.9,98.15-11.05-15.84-9.89-35.09-15.35-53.71-14.45,34.42-39.2,61.32-58,92-12.67,20.72-11.95,44-8.95,67.13.89,6.48,2.1,13,4.11,25.33-19.64-50.62-9.3-90.09,19.25-127.37C3916.89-3680.38,3936.85-3712.07,3935.06-3752.35Z" transform="translate(0 4555.57)" fill="#fff"/><path d="M3835.89-3635.41c27.12-43.05,13.43-83.86-4.48-125a139.36,139.36,0,0,1,28.83-150.73c2,10.88-3.76,18.89-9,26.58-26.27,38.54-31.32,79.08-14.54,122.94a449.28,449.28,0,0,1,16.87,57.73C3859.47-3678.23,3854.1-3658.27,3835.89-3635.41Z" transform="translate(0 4555.57)" fill="#fff"/><path d="M3985.9-3567.07a45.15,45.15,0,0,1,10.7,27.17,35.23,35.23,0,0,1-3.49,15,48.94,48.94,0,0,1-9,12.49,191.63,191.63,0,0,0-18.49,21.35,155.28,155.28,0,0,0-14.54,23.89l-5.64,11.19-2.69-12.17a67.75,67.75,0,0,1-.85-29,64.8,64.8,0,0,1,12.62-25.92c5.78-7.6,12.62-13.78,18.4-20.58A55.83,55.83,0,0,0,3985.9-3567.07Zm0,0a50.1,50.1,0,0,1-9.44,26c-5.24,7.75-11.41,14.64-16.2,22a56.68,56.68,0,0,0-8.73,48.91l-8.32-1a151.67,151.67,0,0,1,15.71-25,162.92,162.92,0,0,1,20.31-21.21,36.22,36.22,0,0,0,12.89-22.74A48.41,48.41,0,0,0,3985.9-3567.07Z" transform="translate(0 4555.57)" fill="#fff"/><path d="M3909.6-3474.39a59.56,59.56,0,0,1-26-42.64,44.15,44.15,0,0,1,5.28-26.19,30.85,30.85,0,0,1,3.89-5.72l2.19-2.64,2.55-2.33a37.73,37.73,0,0,1,5.51-4.16c2.06-1.39,3.4-2.15,5.5-3.4a17.18,17.18,0,0,1,8-2.42,12.71,12.71,0,0,1,12.35,12.35,15.09,15.09,0,0,1-2.55,8.1c-1.61,2.42-2.77,3.63-3.94,5.19a51,51,0,0,0-3.18,4.79,61,61,0,0,0-4.74,10.56C3909.64-3507.95,3910.72-3490.94,3909.6-3474.39Zm0,0c-1.39-8.18-2.64-16.42-3.36-24.79a84,84,0,0,1,1.48-25.6,54.52,54.52,0,0,1,4.47-12.44c1-2,2.2-3.89,3.4-5.77s2.78-3.76,3.41-4.83a7.9,7.9,0,0,0,1.11-3.63,3.42,3.42,0,0,0-1.16-2.46,3.4,3.4,0,0,0-2.46-1.12,8.81,8.81,0,0,0-3.71,1.39c-1.48.85-3.76,2.1-5.15,3.09a26.21,26.21,0,0,0-4.48,3.22l-2.1,1.79-1.79,2.1A31.57,31.57,0,0,0,3896-3539a39.14,39.14,0,0,0-5.64,21.57A66.63,66.63,0,0,0,3909.6-3474.39Z" transform="translate(0 4555.57)" fill="#fff"/><path d="M3739.58-3007.25c-26-72.15,14.37-138,24.84-205.38,6.35,13.43,9.62,23.72.27,42.48C3738.64-3117.44,3735.55-3061.76,3739.58-3007.25Z" transform="translate(0 4555.57)" fill="#fff"/><path d="M4997.09-3879.76c-20.63,22.11-21.61,48.47-22,75.1-.54,37.41-21,61-53.7,77.73-.45-9,5.55-12.08,10.2-14.36,30.61-15.08,37.64-41.67,36.61-72.59-.63-19.33-1.48-38.89,11.54-55.32C4983.49-3874,4986.49-3880.74,4997.09-3879.76Z" transform="translate(0 4555.57)" fill="#fff"/><path d="M2868-3879c17.9,9.85,25.51,25.78,25.78,45.56,0,12.67-.71,25.42.27,38,1.75,22.78,9.49,42,33.39,50.75a26.82,26.82,0,0,1,16.91,18.75c-37.9-16.52-58.18-42.61-58.18-82.79C2886.32-3833.89,2885.92-3858.54,2868-3879Z" transform="translate(0 4555.57)" fill="#fff"/><path d="M5033.39-3550.47c-1.66-8.05,8.63-11.32,8.55-20.36-16.29,4.79-25.38,17.59-40,30.52,21-39,59-54.77,93.08-39.78-27.12-2.82-44.39,13.42-62,29.27Z" transform="translate(0 4555.57)" fill="#fff"/><path d="M2822.59-3559.42c-16.91-13.15-35.26-22.37-58.17-19.28,27.07-16.38,60.23-7.25,82.43,20.81-8.59,7.42-15.44-24.22-24.75-1.12Z" transform="translate(0 4555.57)" fill="#fff"/><path d="M3782-3346.88c-20.77-22.83-40.28-46.73-35.81-81.1A464,464,0,0,0,3782-3346.88Z" transform="translate(0 4555.57)" fill="#fff"/><path d="M3036.24-4046.42c31.33,33.7-.44,66.06-.76,99.13C3032.66-3980.41,3054.77-4013,3036.24-4046.42Z" transform="translate(0 4555.57)" fill="#fff"/><path d="M4825.73-4044.13c-20.4,33.56,7.08,66.54-.71,99.93C4829.23-3977.45,4794.5-4010.48,4825.73-4044.13Z" transform="translate(0 4555.57)" fill="#fff"/><path d="M5033-3550.82c-11,29-12.48,60.46-24.16,89.23,9.62-29.22,1.07-63.37,24.57-88.88Z" transform="translate(0 4555.57)" fill="#fff"/><path d="M2776-3480.38c8.95,17.18,11.19,36.83,27.3,53.3C2766.56-3434.11,2787.51-3465.08,2776-3480.38Z" transform="translate(0 4555.57)" fill="#fff"/><path d="M4641.49-3735.12c.62-22.1,1.29-44.21,14-63.77C4651.6-3777.45,4644.26-3756.78,4641.49-3735.12Z" transform="translate(0 4555.57)" fill="#fff"/><path d="M4032-3523.43a16.1,16.1,0,0,1-1.21,2.14" transform="translate(0 4555.57)" fill="#fff"/><path d="M4032-3501.33l-1.21,1.17" transform="translate(0 4555.57)" fill="#fff"/></svg>