<svg id="Warstwa_1" data-name="Warstwa 1" xmlns="http://www.w3.org/2000/svg" viewBox="0 0 7861.81 4778.48"><path d="M112.36-2738.34v416.15a54.53,54.53,0,0,0,54.53,54.53h0v5.79H0v-5.79a54.54,54.54,0,0,0,54.56-54.5v-416.18A54.54,54.54,0,0,0,0-2792.88H0v-5.77H166.9v5.77a54.54,54.54,0,0,0-54.54,54.54Z" transform="translate(0 6827.39)" fill="#fff"/><path d="M620-2271.29v5.78H453.09v-5.78a54.55,54.55,0,0,0,54.54-54.53V-2427c0-90.61-28.35-170.1-104.67-170.1-40.2,0-74.48,18.68-98.88,48.88v222.45a54.53,54.53,0,0,0,54.54,54.53v5.78H191.75v-5.78a54.54,54.54,0,0,0,54.53-54.53h0v-208.12a54.54,54.54,0,0,0-54.53-54.54v-5.78H304.08v37.07c25.13-28.43,59.3-45.78,98.88-45.78,108.19,0,162.47,82.08,162.47,175.88v101.23a54.52,54.52,0,0,0,54.49,54.57Z" transform="translate(0 6827.39)" fill="#fff"/><path d="M804.16-2271.29v5.78H637.29v-5.78a54.55,54.55,0,0,0,54.54-54.53v-208.12a54.54,54.54,0,0,0-54.54-54.54v-5.78H749.63v268.44A54.54,54.54,0,0,0,804.16-2271.29ZM692.59-2683.9a28.89,28.89,0,0,1,21.49-34.76,28.9,28.9,0,0,1,34.77,21.47,28.89,28.89,0,0,1-21.47,34.76h0A28.9,28.9,0,0,1,692.59-2683.9Z" transform="translate(0 6827.39)" fill="#fff"/><path d="M1120.88-2341c-20.82,51.81-78.36,84-125.51,84-92.77,0-174-82.09-174-175.88s81.26-170.09,174-170.09c35.48,0,80,11.18,107.15,30.22v93.24h-5.78v-16.34c0-31.84-13.51-62.8-38.54-82.47-15.33-12-44.32-18.91-62.83-18.91-60.9,0-116.23,73.75-116.23,164.35s55.33,164.32,116.23,164.32c43.19,0,100.22-25,120.15-74.59Z" transform="translate(0 6827.39)" fill="#fff"/><path d="M1148.9-2594.26h112.33V-2219c0,93.78-35,170.09-127.78,170.09v-5.78c60.9,0,70-73.71,70-164.31v-314.94a54.54,54.54,0,0,0-54.53-54.54Zm54.53-96.26a28.9,28.9,0,0,1,28.9-28.9h0a28.89,28.89,0,0,1,28.9,28.88v0a28.9,28.9,0,0,1-28.88,28.9h0a28.89,28.89,0,0,1-28.9-28.88Z" transform="translate(0 6827.39)" fill="#fff"/><path d="M1674.6-2271.29v5.78H1562.26v-46.87c-22.51,32-58.18,55.42-105,55.42-85.5,2.66-135.21-35.9-139.34-83.4-7.35-84.15,88.16-110.83,204.76-153.28v5.15c-85.47,31.12-158.76,58.36-147,142.34,7.09,50.61,51.47,83.41,81.54,83.41,48.31,0,84-25.59,105-59.56v-110.54c0-90.6-20.65-164.31-81.55-164.31-18.5,0-35.94,6.83-51.26,18.87-25.05,19.67-38.55,50.63-38.55,82.47v16.34h-5.77v-93.24a165.89,165.89,0,0,1,95.58-30.22c92.77,0,139.35,76.3,139.35,170.09v107a54.54,54.54,0,0,0,54.53,54.55Z" transform="translate(0 6827.39)" fill="#fff"/><path d="M1760.39-2588.48v161.42c0,90.6,9.08,164.32,70,164.32v5.77c-92.77,0-127.78-76.3-127.78-170.09v-161.42h-49.23v-5.78c88.49,0,103.41-108.07,103.41-150.25h3.6v150.25h70v5.78Z" transform="translate(0 6827.39)" fill="#fff"/><path d="M2164.92-2594.27h132.19v5.78a97.31,97.31,0,0,0-89.45,59l-113.82,264.95c-30.59,63.61-97.19,180.12-188.06,215.52h-65.29v-5.78c92.14-17.54,146.88-44.71,203-131.28a741.27,741.27,0,0,0,44.45-79.44h-48.39l-114.9-268.35a90.07,90.07,0,0,0-82.8-54.61v-5.78h166.88v5.78a32.77,32.77,0,0,0-32.77,32.76,32.68,32.68,0,0,0,2.65,12.89l114.16,266.7h.16l109.42-255.62a40.72,40.72,0,0,0-21.41-53.45,40.81,40.81,0,0,0-16-3.28v-5.78Z" transform="translate(0 6827.39)" fill="#fff"/><path d="M2836.27-2594.26h132.19v5.78a97.31,97.31,0,0,0-89.45,59l-113,264h-55.17l-77.18-180.32-77.19,180.32h-55.16l-114.84-268.38a90.07,90.07,0,0,0-82.79-54.62v-5.78h166.87v5.78a32.74,32.74,0,0,0-32.76,32.74,32.74,32.74,0,0,0,2.65,12.91l114.23,266.89,75.87-177.25L2596-2533.86a90.07,90.07,0,0,0-82.79-54.62v-5.78h245.72v5.78a97.31,97.31,0,0,0-89.45,59l-6.9,16.12,101.62,237.42,109.5-255.81a40.73,40.73,0,0,0-21.43-53.45,40.75,40.75,0,0,0-16-3.28Zm-176.83,73.57,17.6-41.11c12-28-10.46-26.68-17.6-26.68s-29.59-1.37-17.59,26.68Z" transform="translate(0 6827.39)" fill="#fff"/><path d="M3304.19-2271.29v5.78H3191.85v-46.87c-22.51,32-58.18,55.42-105,55.42-85.5,2.66-135.21-35.9-139.34-83.4-7.33-84.15,88.18-110.84,204.78-153.28v5.15c-85.47,31.12-158.76,58.36-147,142.34,7.09,50.61,51.47,83.41,81.54,83.41,48.31,0,84-25.59,105-59.56v-110.54c0-90.6-20.65-164.31-81.55-164.31-18.5,0-35.94,6.83-51.26,18.87-25.05,19.67-38.55,50.63-38.55,82.47v16.34h-5.77v-93.24a165.89,165.89,0,0,1,95.58-30.22c92.77,0,139.35,76.3,139.35,170.09v107a54.54,54.54,0,0,0,54.53,54.55Z" transform="translate(0 6827.39)" fill="#fff"/><path d="M3845.55-2798.65a120.14,120.14,0,0,1,120.13,120.12A121.57,121.57,0,0,1,3844.11-2557H3775v-5.77h17a115.82,115.82,0,0,0,115.8-115.8,114.36,114.36,0,0,0-114.36-114.35h-52.26a54.54,54.54,0,0,0-54.54,54.54h0v416.15a54.53,54.53,0,0,0,54.53,54.53h0v5.79H3574.39v-5.79a54.54,54.54,0,0,0,54.53-54.53h0v-416.15a54.54,54.54,0,0,0-54.53-54.54v-5.77Z" transform="translate(0 6827.39)" fill="#fff"/><path d="M4282.05-2582.41v40.63c-16.48-33.64-43.24-55.41-83.05-55.41-40.22,0-74.49,18.68-98.89,48.88v222.45a54.53,54.53,0,0,0,54.54,54.53v5.78H3987.73v-5.78a54.54,54.54,0,0,0,54.53-54.53h0v-208.08a54.53,54.53,0,0,0-54.52-54.54h0v-5.78h112.33v37.07c25.13-28.43,59.3-45.78,98.89-45.78C4231.58-2602.93,4259.25-2595.42,4282.05-2582.41Z" transform="translate(0 6827.39)" fill="#fff"/><path d="M4605.69-2393.55h5.77v128H4315.17l233.58-323H4443.21A122.26,122.26,0,0,0,4321-2466.24v0h-5.78v-128.07h296.29l-233.58,323h105.54a122.28,122.28,0,0,0,122.27-122.26Z" transform="translate(0 6827.39)" fill="#fff"/><path d="M4952.89-2343.11l5.37,2.15c-20.83,51.81-78.37,84-125.52,84-92.77,0-174-82.09-174-175.88s81.25-170.09,174-170.09c54.52,0,89.61,20.09,111,52,35.6,53.13,3.1,125.5-59.86,136.75l-119.69,21.39v-5.87l54.35-9.71c67.4-12.05,107.64-84.28,79.31-146.61-11.78-25.92-31.67-42.2-65.13-42.2-60.9,0-116.22,73.71-116.22,164.31s55.32,164.32,116.22,164.32C4875.94-2268.52,4933-2293.54,4952.89-2343.11Z" transform="translate(0 6827.39)" fill="#fff"/><path d="M5372.59-2432.84C5372.59-2339,5301-2257,5192.8-2257c-39.59,0-73.76-17.36-98.89-45.78v37.23H4981.58v-5.78a54.54,54.54,0,0,0,54.53-54.53V-2742a54.53,54.53,0,0,0-54.52-54.54h0v-5.77h166.86v5.77a54.53,54.53,0,0,0-54.53,54.54v430.37c24.4,30.2,58.68,48.89,98.89,48.89,76.31,0,122-79.5,122-170.1s-45.7-164.35-122-164.35c-26.13,0-49.56,7.21-69.39,20v-6.76a132.48,132.48,0,0,1,69.39-19C5301-2602.93,5372.59-2526.63,5372.59-2432.84Z" transform="translate(0 6827.39)" fill="#fff"/><path d="M5761.7-2533.94v208.12a54.54,54.54,0,0,0,54.53,54.53v5.78H5703.9v-37.1c-25.13,28.42-59.3,45.77-98.88,45.77-108.18,0-162.47-82.08-162.47-175.87v-101.23a54.53,54.53,0,0,0-54.52-54.54h0v-5.78h166.87v5.78a54.54,54.54,0,0,0-54.54,54.54v101.23c0,90.6,28.36,170.1,104.67,170.1,40.2,0,74.48-18.69,98.88-48.89v-222.44a54.54,54.54,0,0,0-54.54-54.54h0v-5.78h166.87v5.78A54.54,54.54,0,0,0,5761.7-2533.94Z" transform="translate(0 6827.39)" fill="#fff"/><path d="M6226.89-2265.5H6114.55v-282.76c-24.4-30.2-58.67-48.88-98.87-48.88-76.32,0-122,79.49-122,170.1s45.69,164.31,122,164.31c26.12,0,49.54-7.21,69.38-20v6.76a132.78,132.78,0,0,1-69.38,19c-108.19,0-179.81-76.3-179.81-170.09s71.62-175.88,179.81-175.88c39.59,0,73.74,17.35,98.87,45.78V-2742a54.53,54.53,0,0,0-54.52-54.54h0v-5.77h166.87v5.77a54.54,54.54,0,0,0-54.54,54.54v416.18a54.55,54.55,0,0,0,54.54,54.53Z" transform="translate(0 6827.39)" fill="#fff"/><path d="M6549.7-2393.55h5.78v128h-296.3l233.59-323H6387.23A122.26,122.26,0,0,0,6265-2466.26v.07h-5.78v-128.07h296.3l-233.59,323h105.55A122.26,122.26,0,0,0,6549.7-2393.55Z" transform="translate(0 6827.39)" fill="#fff"/><path d="M6896.9-2343.11l5.37,2.15c-20.82,51.81-78.36,84-125.51,84-92.77,0-174-82.09-174-175.88s81.26-170.09,174-170.09c54.51,0,89.6,20.09,111,52,35.6,53.13,3.1,125.5-59.86,136.75l-119.69,21.39v-5.87l54.35-9.71c67.4-12.05,107.64-84.28,79.31-146.61-11.78-25.92-31.66-42.2-65.12-42.2-60.9,0-116.23,73.71-116.23,164.31s55.33,164.32,116.23,164.32C6820-2268.52,6877-2293.54,6896.9-2343.11Z" transform="translate(0 6827.39)" fill="#fff"/><path d="M7360.69-2271.29v5.78H7193.82v-5.78a54.54,54.54,0,0,0,54.53-54.53V-2427c0-90.61-28.34-170.1-104.66-170.1-40.2,0-74.48,18.68-98.88,48.88v222.45a54.54,54.54,0,0,0,54.53,54.53v5.78H6932.47v-5.78a54.54,54.54,0,0,0,54.53-54.53v-208.12a54.54,54.54,0,0,0-54.54-54.54h0v-5.78H7044.8v37.07c25.13-28.43,59.3-45.78,98.88-45.78,108.19,0,162.46,82.08,162.46,175.88v101.23a54.55,54.55,0,0,0,54.53,54.57Z" transform="translate(0 6827.39)" fill="#fff"/><path d="M7544.89-2271.29v5.78H7378v-5.78a54.54,54.54,0,0,0,54.53-54.53v-208.12a54.53,54.53,0,0,0-54.52-54.54h0v-5.78h112.33v268.44a54.54,54.54,0,0,0,54.55,54.53ZM7433.32-2683.9a28.89,28.89,0,0,1,21.47-34.76h0a28.9,28.9,0,0,1,34.77,21.47,28.92,28.92,0,0,1-21.49,34.77A28.9,28.9,0,0,1,7433.32-2683.9Z" transform="translate(0 6827.39)" fill="#fff"/><path d="M7856.24-2343.11l5.37,2.15c-20.83,51.81-78.37,84-125.52,84-92.77,0-174-82.09-174-175.88s81.25-170.09,174-170.09c54.52,0,89.61,20.09,111,52,35.6,53.13,3.1,125.5-59.86,136.75l-119.69,21.39v-5.87l54.35-9.71c67.4-12.05,107.64-84.28,79.31-146.61-11.78-25.92-31.67-42.2-65.13-42.2-60.9,0-116.22,73.71-116.22,164.31s55.32,164.32,116.22,164.32C7779.29-2268.52,7836.32-2293.54,7856.24-2343.11Z" transform="translate(0 6827.39)" fill="#fff"/><path d="M3656.59-2897.43a579.85,579.85,0,0,1,23.25-163.18,1324.81,1324.81,0,0,1,53.32-156.46c20.7-51.2,43.2-101.43,66.24-151.35l34.13-74.65,34.87-74.66,34.88-74.66,17.38-37.43,8.75-18.67c2.77-6,5.22-11.83,7.36-17.91a152.26,152.26,0,0,0,6.61-75.3c-3.84-25.06-14.93-47.78-35.2-57.38a76.57,76.57,0,0,0-33.91-7.68,140.09,140.09,0,0,0-18.77.85c-6.62.86-13.34,1.39-19.84,2.46a406.72,406.72,0,0,0-77.22,19.3,421.92,421.92,0,0,0-135.66,81.8l-27.41,23.15,2.35-36.58c.64-10.67,0-19.95.64-33.49a46,46,0,0,1,2.56-12.27l1.38-3.3.85-1.82,1.71-3.52c2.13-4.8,4.48-9.49,6.29-14.4a330.5,330.5,0,0,0,18-60.57,1096.25,1096.25,0,0,0,14.18-129,614.9,614.9,0,0,1,8-67.52,214.74,214.74,0,0,1,25.07-66.55,186.94,186.94,0,0,1,48-53.32,233.41,233.41,0,0,1,62.29-33.17,328.63,328.63,0,0,1,136.72-19.09,232.55,232.55,0,0,1,129.48,51.4,252.73,252.73,0,0,1,47.25,51.73,322.57,322.57,0,0,1,33.06,60.79,393,393,0,0,1,27.62,133.75,932.34,932.34,0,0,1-5.86,134.06,1266.32,1266.32,0,0,1-21,131.61c-9.28,43.41-20.16,86.39-30.83,128.94a1155.08,1155.08,0,0,0-23.57,129.05c-9.81,86.82-15.35,175.45,4.48,260.88A566.21,566.21,0,0,0,4199.13-2897a590.61,590.61,0,0,1-76.47-108,540.3,540.3,0,0,1-48.52-123.82,580.71,580.71,0,0,1-18-132.15,1027.25,1027.25,0,0,1,5.65-133.1,1168.5,1168.5,0,0,1,21.33-131.61c9.82-43.19,19.84-85.85,28.16-129.05a1274.61,1274.61,0,0,0,18.88-129.58,1004,1004,0,0,0,3.84-130.12,362.59,362.59,0,0,0-26.77-123.82,258.27,258.27,0,0,0-72.63-100,202,202,0,0,0-112.74-44.27,298.7,298.7,0,0,0-123.29,17.82,173.4,173.4,0,0,0-93.64,73.27,179.92,179.92,0,0,0-21.33,56.63,587.87,587.87,0,0,0-7.78,64,1114.28,1114.28,0,0,1-15.58,133.1,355.5,355.5,0,0,1-19.94,66c-2,5.44-4.59,10.67-7,15.89l-3,6.3a14.62,14.62,0,0,0-.64,3.94c0,8.43,0,21.33-.74,32.64l-25.28-12.37a450.51,450.51,0,0,1,146.12-85.86,427,427,0,0,1,82.76-19.84c26.77-3.62,59.62-7.46,89.05,8a81.41,81.41,0,0,1,34.24,33.92,125.51,125.51,0,0,1,13.65,43.62,176.89,176.89,0,0,1-9.38,87.14c-2.56,6.82-5.55,13.65-8.64,19.94l-9.39,17.92-18.13,37-36.37,73.91-36.37,74-35.73,74.66c-23.67,49.59-48.2,98.65-70.39,148.78a1329.55,1329.55,0,0,0-58.34,153.58A607.15,607.15,0,0,0,3656.59-2897.43Z" transform="translate(0 6827.39)" fill="#fff"/><path d="M3940.71-4067a236.58,236.58,0,0,0-65.16,22.07,234.43,234.43,0,0,0-29.12,18.14,224,224,0,0,0-25.38,22.71,234.56,234.56,0,0,0-38.29,55.25,57.48,57.48,0,0,0-6.83,28.37,42.64,42.64,0,0,0,10.67,24.64l-18-3.1a86.66,86.66,0,0,0,26.45-44.26,305.21,305.21,0,0,1,11.63-29.65,69.26,69.26,0,0,1,10.66-16.64,35.22,35.22,0,0,1,10.67-8.1,30.88,30.88,0,0,1,14.61-2.77,47.06,47.06,0,0,1,21.33,7.14,40.56,40.56,0,0,1,4.59,3,31.21,31.21,0,0,1,4.69,4,29.26,29.26,0,0,1,7.79,13.65,27.21,27.21,0,0,1-.64,15.68,46.65,46.65,0,0,1-4.59,10.67c-3.31,5.43-6.29,9-8.85,12.9-7.15,10.67-14.29,17.06-18.88,23.89a45.17,45.17,0,0,0-8.21,21.33l-16.64-11.84a329.9,329.9,0,0,0,59.09-24.63,166.31,166.31,0,0,0,49.06-40.11,150.57,150.57,0,0,0,28.58-57.59c1.28-5.33,2.67-10.66,3.63-16a65.06,65.06,0,0,0,1.92-16.21,12.28,12.28,0,0,0-8.54-12.48A36.21,36.21,0,0,0,3940.71-4067Zm0,0a36.55,36.55,0,0,1,16.32,0,13.12,13.12,0,0,1,9,12.58,66,66,0,0,1-1.28,16.53l-2.67,16.21a179,179,0,0,1-24.21,61.86,191.94,191.94,0,0,1-46.6,49.06,305.9,305.9,0,0,1-59,33.81l-16.21,7v-18.88a66.5,66.5,0,0,1,8.63-35.72c6.08-10.67,13.34-18.24,17-25L3849-3962c2.13-3.41,1.6-5.22,1.6-2.88s0,0-2.67-1a16.4,16.4,0,0,0-6.82-2.56c-.75,0,.53-.63-1.18.75a33.78,33.78,0,0,0-5.54,8.85A280.38,280.38,0,0,0,3823-3932.5a169.23,169.23,0,0,1-15,29.65,88.87,88.87,0,0,1-25.17,24.95l-11.41,7.26-6.62-10.67a67.3,67.3,0,0,1-11.19-39.89A75.7,75.7,0,0,1,3767.4-3958a260.81,260.81,0,0,1,47.46-52.8,249.78,249.78,0,0,1,59.3-36.69A309.33,309.33,0,0,1,3940.71-4067Z" transform="translate(0 6827.39)" fill="#fff"/><path d="M2566.81-3202.46c-85.33-22.61-152-74.13-216.94-126.17-80.2-64.53-166.27-72.95-260.23-38.61-65.06,23.68-129.58,49.59-196.13,68.26-188.89,53.32-355,13.43-492.1-130.65-69.86-73.49-151.45-110-260.13-79.78,55.25-44.26,127-47.67,192-12.69a410.55,410.55,0,0,1,91.18,72.95c125.64,122.76,277.3,175.66,444.43,118.7,201.79-68.89,410.72-111.77,611.65-183.55,176.62-63.24,349.72-60.68,499.46,74.66A312.88,312.88,0,0,1,3071-3305c-13.34,4.06-15.36-4.16-18.46-8.95-105.26-161.16-264-229.31-453.27-195.39-126.17,22.5-243.92,77.43-373.82,97.16,103.56,27.73,171.5,110,259.7,160a449.27,449.27,0,0,0,173.1,54.07c-130,6.83-226.75,89.16-337.24,139.29-123.93,56.1-248.39,51.94-368.7-15.47-13.86-7.89-27.41-16.42-41.06-24.74-128-79.14-173.84-77.11-291.48,12.8C1650.55-3162,1745-3203.53,1828-3177.4a452.5,452.5,0,0,1,104.31,52.69c138.65,87.45,280,91.08,424.26,13.44C2423.89-3147,2487.35-3191.9,2566.81-3202.46Z" transform="translate(0 6827.39)" fill="#fff"/><path d="M5307.15-3209.93c0-3.41,0-9.38,1.28-10,118.39-48,197.31-162.86,328.07-193.15-105.7-13.65-202.64-51.52-303.11-79.78-242-68.15-399.52-5-566.33,229.63A368.87,368.87,0,0,1,4891.2-3451c119.78-101,261.63-132.25,405.29-84.26,205.62,68.58,419.89,106.12,622.32,185.26,195.28,76.25,373.28,47.24,523.77-106.66,38-38.82,80.1-70.17,134.06-82.87,49.81-11.51,96.95-8.85,140.47,25.39-116.26-30.61-197,24-275.49,100-154.43,149.31-337.24,168.3-534.12,98.55-46.82-16.54-93-35.2-139.5-53.33-92-35.41-177.15-25-256,35.73-63.35,48.63-127.13,97.05-204.56,122.44Z" transform="translate(0 6827.39)" fill="#fff"/><path d="M3462.05-6083.8c-9.7,99.18,45,170.64,96.63,243.38a1509.62,1509.62,0,0,1,92.15,136.73c64,114.22,58.87,226.74,0,340.65-52.47,100.79-128.62,186.32-178.86,288.49-20.58-7.78-10.66-22.39-11.73-32.84-6.29-100.58-57.7-177.58-128-243.81-41.28-38.93-86.93-73.17-129.16-111.14-83.83-75.51-107.4-168.08-74.66-275.48,3.63-12,8.11-23.57,12.59-35.09,56.2-143.77,57.7-181.31,13-323.27,33.27,23.25,48,48.53,54.61,98.87a389.3,389.3,0,0,1-21.87,188.57c-10.66,30-23.68,59.51-32,90.22-25,91.41,1.06,168.52,70.39,231.12,43.4,39.25,91.19,73.91,132.89,114.87a424.06,424.06,0,0,1,126.81,227.06c49.38-106.12,118.38-186.11,156.46-283.38,34.13-86.81,32-174.91-17.28-256-46.5-77.65-98.33-152.09-144.84-229.63C3448.08-5967.23,3430.59-6023.54,3462.05-6083.8Z" transform="translate(0 6827.39)" fill="#fff"/><path d="M4398.68-6095.43c36.69,53.33,32,107.72,2,158.27-32,53.33-69,103.24-104.31,154.33-125.64,181.31-128,294.36-9.7,479.94,30.28,47.78,58.33,97,92.25,153.58,29.86-150.17,135.77-235.49,240.61-322.3,96.73-80.1,119.66-165.74,77.54-285.09-20.05-56.95-41.39-113.37-42.67-174.91s8-119.66,57.81-166.59c-64.74,124.89-22.5,240.07,21.33,358.14,37.12,100.15,14.29,193-65.8,267.38-37.76,34.87-78.71,66.34-116.79,101-86.39,78.6-151.45,169-151.45,294.68-6.5-1.92-13.65-1.81-15-4.58-42.67-84.26-98.45-160-149.32-239-100.79-155-86-304.92,19.09-450.93,12.48-17.28,26.24-33.6,39-50.56C4353.57-5902.6,4416.28-5982.91,4398.68-6095.43Z" transform="translate(0 6827.39)" fill="#fff"/><path d="M6571-4835.11c-29.22,79.14-83.72,115.72-152.51,135.88-44.9,13.12-91.51,10.13-137.48,13.33-172,11.62-322.84,66.12-428.53,212.13-41.38,57.27-60.79,123.83-82.23,189.63-11.52,35.41-22.82,70.93-32.74,106.65-30.93,110.92-104.1,183.13-207.44,227.92-9.71,4.27-19.2,9.07-28.59,13.87-1.49.74-2.24,2.77-9.38,12.48,91.93-4.16,169.36,37.86,254.26,46.6,108.79,10.67,201.15-23.57,271-106.65,46.19-54.82,99.94-80.74,170.65-79.88,68.58.74,136.94-5.66,201.57-33.92-42.66,37-94.38,49.81-147.6,48.85-90.55-1.71-162.22,25.49-224,97.59-77.75,91-184.93,115.61-301,91.08-94.39-19.95-185.68-55.68-286-59.09,30.07-13.54,60.47-26.24,90-40.74,110.92-54.5,186.32-137.37,218.11-259.91,24.42-94.18,46.71-190.06,102.49-272.82,104.41-155,260.13-212,437.28-228.56,21.33-2,42.66-1.17,64-2.13C6437.68-4727.18,6467.75-4741.79,6571-4835.11Z" transform="translate(0 6827.39)" fill="#fff"/><path d="M2976.57-4053.34c-61.54-158.49-178.75-226.32-313.67-280.5-188.67-75.83-259.17-222.48-210.53-420.21,20.16-82,21.33-160-16.75-238.27,42.66,24.85,54.72,64,60.48,106,7,52-4.16,102.39-15.79,152.83C2443-4570.61,2511.13-4435.59,2664.5-4370c74.66,32,153.47,57.91,213.31,117.31,24.63,24.32,46.39,51.52,72.63,81,16.21-224.93-73.91-394.61-244.45-526.12C2947.56-4555.57,2985.63-4323.28,2976.57-4053.34Z" transform="translate(0 6827.39)" fill="#fff"/><path d="M5421.7-4993c8.74,10.67,0,20.27-4.27,29-32.74,61.76-32,125.22-14.61,191.45,55.46,213.3-14.61,354.94-215.87,441.33C4996-4249.26,4996-4249.26,4885.13-4081c-49-155.29,35.62-435.9,163.5-528.36-107.83,126.81-150.92,274.63-144.09,451.14,69.21-126.6,185.89-170.65,301.72-219.39,141.74-59.51,206.37-195.17,174.8-349.93-9.6-47-21.33-93.53-18.45-142.06C5365.92-4928,5380.85-4959.79,5421.7-4993Z" transform="translate(0 6827.39)" fill="#fff"/><path d="M3966.84-6827.39c5.33,83.3,54.82,141.64,105.16,199.87a1037.73,1037.73,0,0,1,170.65,262.26c74.65,169.79,62.92,331.48-40.64,486.12-44.79,67-105.8,123.08-133,202.64-15.26-62.92,19.83-106,52.47-149.31,60.26-80.31,111.34-163.82,126.06-266.63,18.56-130.55-21.33-245.3-86.07-354.84-44.79-74.65-101.64-141.21-155.5-209.57C3966.74-6707.3,3947.11-6763.08,3966.84-6827.39Z" transform="translate(0 6827.39)" fill="#fff"/><path d="M3794.81-5679.16a414.91,414.91,0,0,0-71-119.77c-182.7-208.72-201.15-434.4-35.73-689a1005.75,1005.75,0,0,1,108.89-144.52c50.13-53.32,91.94-111.66,92.79-190.8,24.64,58.55,15.25,105.69-36.15,169.9-65.49,82-130.23,164.24-178,258.42-92.68,182.8-86.49,358.46,37.22,526.12,24.21,32.85,47.68,66.44,69.12,101.11C3798.33-5741,3808.78-5711.69,3794.81-5679.16Z" transform="translate(0 6827.39)" fill="#fff"/><path d="M4871.05-5539a189.63,189.63,0,0,1,43.41,139.61c-6.3,110.07-18.78,219.49-64,321.77-13.86,32-12.05,57.38,9.6,83.3,9.07,10.66,16,23.46,24.64,34.66,86.71,113.05,81.16,229.52,11.94,347.58a1002.7,1002.7,0,0,1-57.16,83.3c-56.53,76.79-59.94,85.32-66.66,179.92-22.29-57.8-14.72-111.13,28.05-176.61,28.05-42.67,58.66-84.69,79.88-131.72,41-91.19,50.66-180.78-18-264.93-51.3-62.71-58.13-124.68-27.73-205.2,41.7-110.6,62.07-229.2,35.19-349.93C4866.57-5495,4860.38-5514.49,4871.05-5539Z" transform="translate(0 6827.39)" fill="#fff"/><path d="M2991.82-5541.37c14.18,20.48,7.15,36.91,3.52,50.77-36.37,139.5-.53,271.43,44.47,400.91,17.39,49.7,15.89,90.12-18.45,128-101.21,111.14-87.35,228.56-20.26,348.87,18.13,32.53,39.25,63.35,58.76,95.13,32,52.05,44.37,107.61,26.67,168.94-2.88-40.53-5.23-81.59-27.52-116.47s-49.81-69.21-72.52-105.16c-115-182-93.54-288,2.24-405.92,31.25-38.29,33.7-73.37,16.1-117.32-37.54-93.32-48.85-192.61-55.78-291.91A231.34,231.34,0,0,1,2991.82-5541.37Z" transform="translate(0 6827.39)" fill="#fff"/><path d="M1790.16-5912.63c61.11-6.18,97.48,19,131.08,46.51,55.35,45.32,93.74,103.66,103.24,174.91,16,120.09,81.26,197.73,186.74,253.62,150.6,79.67,199.87,209,150.17,371.79a1354.3,1354.3,0,0,1-52.15,138.65c-4.37-41.28,9.17-79.14,19.09-117.32,48.31-186.64,13-282.52-150.17-381.39-94.39-57.17-153.68-133.21-168.3-244a240.39,240.39,0,0,0-81.59-157.85c33.6,81.8,28,167.23,26.35,252.34-15.89-39.67-10.67-82.33-14.4-123.72A284.34,284.34,0,0,0,1901.4-5825C1877.19-5863.67,1840.93-5886.92,1790.16-5912.63Z" transform="translate(0 6827.39)" fill="#fff"/><path d="M6073.24-5909.43C5915.82-5844,5927.13-5706.78,5912.3-5581c-5.76-82.12-12.8-163.39,30.29-245.3-46.71,27.3-76.58,64-84.57,131.61-15.9,135.13-90.87,220.34-205.31,284.65s-158.81,175.66-134.28,309.3c10.67,59,25.17,117.32,34,176.94-26.23-58.77-51.62-117.86-64-181.31-27.19-142.28,25.39-263.54,154.12-331.27,110.06-57.91,180.24-137.05,198.26-263.75,10.67-78.5,58.13-140.36,125.43-184C5994.53-5901.64,6023.86-5918.92,6073.24-5909.43Z" transform="translate(0 6827.39)" fill="#fff"/><path d="M2723.27-5492.31c-42.66-32-83.94-64.84-126.81-96-134.07-97.7-189-256.61-149.32-430.35,14.61-64,42.66-123.82,65.06-185.47,32-89.91,34.24-176.94-19.84-259.91a17.92,17.92,0,0,1,1.07-24.75c47.57,37.33,67.83,86.93,73.8,144.09,7.26,69.33-14.18,133.21-38.82,196.35s-49.81,128.94-55.67,199c-12,145.9,37.22,264.28,155.93,352C2667-5568.78,2703.43-5538.91,2723.27-5492.31Z" transform="translate(0 6827.39)" fill="#fff"/><path d="M5117-5470.12c25.17-57.59,74.66-93,120.52-131.4,146.54-122.44,189.09-262.79,134.49-447-21.33-73.06-57.49-141.64-69.65-217.79-13.76-87.13,2.14-164.46,70.61-226,12.47,9.39,6,15.9,2.56,21.34-57.17,83.82-56.21,172.67-24.75,264.92,23.36,68.79,57.49,134,69.22,206.7,27.52,170.64-16.64,312.6-162.11,415.94C5208.82-5549.26,5157.84-5516,5117-5470.12Z" transform="translate(0 6827.39)" fill="#fff"/><path d="M5307.15-3209.93a53.3,53.3,0,0,0-40.95,17c83-9.07,142.27,33.06,202.64,67.83,170.64,98.87,331.9,89.7,495.4-18.56,111.77-74,208.94-50.23,278.58,56-10.67,7.89-15.78-3.1-21.33-8-85.32-73.91-142.28-78.82-241.14-20.69-35.2,20.58-69.43,44-106.66,59.83-118.92,50.45-237.3,50.45-354.94-8.53-102.28-51.2-194.53-127-317.82-130.65,36.9-6.19,70.07-27.2,107.4-13.87Z" transform="translate(0 6827.39)" fill="#fff"/><path d="M2334.62-3952.13c-107.5-34-177.79-105.37-212.24-212.24q-16.32-50.55-30.18-102c-76.47-281-245.3-413.39-538.06-420.42-59.3-1.39-117.32-5.44-169.58-35.95a171.27,171.27,0,0,1-81.7-100.36c77.54,97.06,185.9,94.39,293.94,105.59,285.51,29.65,435.25,163.07,495.4,406.78,6.4,25.81,14.08,51.3,19.94,77.32a372.15,372.15,0,0,0,182.38,250.42c14.08,8.21,34.34,11.31,39.14,32Z" transform="translate(0 6827.39)" fill="#fff"/><path d="M3149.45-4173.22c-10.13,37.44-19,75.3-30.93,112.09-24.63,76.37-16.85,149.32,12.7,223.23a234.64,234.64,0,0,1,7.89,141.74c-34.67,150.59,10.66,276,117.32,383.95,55,55.46,105.26,114.76,112.51,199.12-37.64-97.9-120.73-158.59-185.25-234.63-78.07-91.94-107.4-200.51-78-318.9a347.71,347.71,0,0,0-16.95-218.53C3046.64-3993.19,3075.76-4089.39,3149.45-4173.22Z" transform="translate(0 6827.39)" fill="#fff"/><path d="M4706.38-4169.81c72.52,89.91,101.21,189.21,55.45,297.35a302.4,302.4,0,0,0-17.17,197.1c35.41,144.73-7.57,266.63-114.75,367.1a643.64,643.64,0,0,0-146,194.32,275.38,275.38,0,0,1,60.9-141.32c27.41-34.76,57.37-67.61,87-100.68,82-91.4,106.66-198.48,85.33-317.18-10.67-58.56-19.31-118.28,7.25-172.89,46.5-95.24,21.33-187.39-2.88-280.6C4717.89-4141.44,4711.6-4155.73,4706.38-4169.81Z" transform="translate(0 6827.39)" fill="#fff"/><path d="M4245-2950.87c-35.73-34.55-59.62-72.42-32.74-124.89,17.71-34.55,30.93-71.56,47.25-106.65,66.55-144.41,83.08-289.67,3.52-434.51-40.85-74.65-32-142.59,15.78-209.14,20.8-28.8,39.14-59.52,62.07-86.5,43.73-51.41,64-105.91,23.47-181.31,53.33,51,59.08,92.9,32,142.38-28.9,53.33-69.21,98.66-104.94,147.18-38.72,52.8-44.26,106.66-14.29,164.57a512.68,512.68,0,0,1,57.59,169c32-39.15,36.69-74.66,39.35-122.76,18,41.17,12.16,69.64-2.66,95.24a310.51,310.51,0,0,0-39.46,136.73,559.54,559.54,0,0,1-72.85,231.76C4227.82-3073.09,4213.53-3015,4245-2950.87Z" transform="translate(0 6827.39)" fill="#fff"/><path d="M2135.39-4612.42c-67.83-89.8-163.17-125.53-268.12-150.06-142.28-33.27-225.89-138.65-234.64-285.83a1317.1,1317.1,0,0,1,2.77-143.55C1642.34-5325,1624-5368.69,1525.66-5446c72.63,7.89,129.8,73.17,136.09,162.86,3.73,54.61,0,109.85-1.28,164.78-3.63,205.2,61.11,292.34,259.81,341.29C2016.37-4752.77,2091.56-4704.25,2135.39-4612.42Z" transform="translate(0 6827.39)" fill="#fff"/><path d="M3320.1-3361.27c-65.17-63.14-62.61-140.35-40.42-220.77a604.88,604.88,0,0,1,60.57-136.09c40.75-72.31,42-144.94,8.43-219.81a1416.86,1416.86,0,0,1-69.86-206.8c-28.05-102.82-29.65-202.64,30.29-298,36.58-58.13,59.73-121.59,12.59-201.9,71.24,50.66,79.13,91.73,42.66,146-105.8,157.21-98.34,320.49-24.53,487,12.26,27.62,26.24,54.5,36.79,82.76a248.7,248.7,0,0,1-8.42,206.7c-14.4,28.58-29.76,56.63-43.73,85.32C3272.21-3528.39,3272-3469,3320.1-3361.27Z" transform="translate(0 6827.39)" fill="#fff"/><path d="M4517.28-4618.39a134.07,134.07,0,0,0,15.36,124.68c107.18,151.77,77.21,305.45,13.54,461.17-14.08,34.45-26.34,69.75-40.31,104.3C4476.54-3856,4482.19-3787,4518.35-3718c32.84,62.81,65.8,126.27,70.92,199.33,6.08,86.18-27.94,152.3-101.85,200.19,119.77-110.49,96-233.36,28.37-354.73-63.36-113.37-57.49-218.53-.54-333.82,72.42-146.33,104.74-299.38,4.8-450.83a244.52,244.52,0,0,1-27.09-57.8C4480.59-4553.76,4476.54-4591.83,4517.28-4618.39Z" transform="translate(0 6827.39)" fill="#fff"/><path d="M2845.28-4843.32c-87.14-62.61-183.66-106.65-256.61-184.08-83.94-88.74-128.52-190.17-114.65-313.35,9.28-81.91,6.29-162.43-25.92-247.65,26.77,9.39,33.06,27.41,40.64,43.3a291.73,291.73,0,0,1,22.5,171.61c-22.93,155.92,36.26,278,155.29,373.28,44,35.3,83.4,77.75,140.67,97.06C2824.59-4897.29,2832.8-4864,2845.28-4843.32Z" transform="translate(0 6827.39)" fill="#fff"/><path d="M6339.87-5441.54c-89.05,49.7-113.47,124.15-112.94,211.07,0,64,5.33,128,.75,192-10,136.63-83.3,230.69-213.31,270.26-109.11,33.17-220.13,57.17-291.7,158.92a278.76,278.76,0,0,1,168.41-150.28c30.07-10.66,61.43-17.6,91.93-27.19q217.47-67.95,221.73-295.86c1.07-64-2.34-128,0-192a190.78,190.78,0,0,1,69.76-144.51C6290.49-5432.15,6306.28-5448.47,6339.87-5441.54Z" transform="translate(0 6827.39)" fill="#fff"/><path d="M1288.57-4452.44c35.94,20.59,43.62,57.38,51.83,93.11,6.4,27.52,8.53,56,13.87,83.83,22.82,119.67,106.65,196.56,228.55,209a482.53,482.53,0,0,0,69,4.05c81-3.3,144.3,21.87,199.65,87.14,80.21,94.6,189.1,119,309.3,90.65,65.38-15.46,128.94-39.88,197.84-37.11,3.52-20.48-23.14-15-24-30.5l-1,1.06c33.07,1,59.2,20.69,88.74,30.83-3.09,18.87-16.43,12.26-25.17,11.94-70.39-2.24-137.16,14.93-203.5,35.84-150.91,47.67-280.6,18.55-381.71-108.26-32-40.31-71.45-61.75-123.61-60.9-26.55,0-53.32-2.66-79.67-4.58-148.35-10.67-245.3-94.92-270.36-240.18a626.35,626.35,0,0,0-48.74-166.92Z" transform="translate(0 6827.39)" fill="#fff"/><path d="M4626.39-4616.26c43.19-76.57,0-136.62-33-198.9-22.5-42.67-46.61-84.05-65.59-128-50-115.5-17.6-258.85,87.67-356.86-50.13,130.22,15.89,222.27,68.25,317.29,67.3,122,41.49,236.24-26,347.69A34,34,0,0,1,4626.39-4616.26Zm42-92.68c41.91-100.68,37.65-193.25-14.4-283.16-38-65.38-78-129.69-85.32-220.67-62,96-61.54,184.19-21.33,272,36.26,76.9,78.49,150.59,121.05,231.86Z" transform="translate(0 6827.39)" fill="#fff"/><path d="M2676.66-3919c-75.83-40-150.28-51.83-221-74.66-93.42-30.71-176.93-74.65-226.21-165.41a61,61,0,0,1-9.17-56.21c86.18,182.06,259.91,195.07,412.32,249.89-15.78-133-158.7-293.09-288.92-324.76-45.12-10.67-90.12-20.69-121.16-64.85,100.15,50.66,221.73,42.66,299.7,138.65C2592.62-4130.13,2646.69-4037.24,2676.66-3919Z" transform="translate(0 6827.39)" fill="#fff"/><path d="M3258.35-5281.13c100.57,98.55,124.14,220,70.17,341.93-20.69,46.93-45.11,92.36-69.43,137.47-31.25,57.92-66.44,114.44-23.68,189.42-89.26-62.93-123.71-231.65-74.65-339.26a735.74,735.74,0,0,1,50.66-93.32C3257.17-5117.53,3289.91-5192.18,3258.35-5281.13ZM3191.69-4710c21.33-41.92,40.74-81.17,62.07-119.14,30.4-54,62.39-106.65,78-167.87,18.35-72,8.11-139.5-39.14-216.4-4.27,96-52.58,160.73-90.65,229.84C3153.61-4895.69,3150.09-4805.57,3191.69-4710Z" transform="translate(0 6827.39)" fill="#fff"/><path d="M5012.9-4825.4c11.94-42,26.34-59.41,50-75.83a1605.64,1605.64,0,0,0,162.86-128.63c93.32-84.47,141.1-189,129.9-318-6-67.3-8.11-135.23,23.68-198.69a92.35,92.35,0,0,1,40.52-47.89c-9,27.2-16.21,46.72-21.86,66.77a363.53,363.53,0,0,0-10,153.26c23.89,160.72-42.66,282.73-159,385.55C5165-4932.16,5086.38-4896,5012.9-4825.4Z" transform="translate(0 6827.39)" fill="#fff"/><path d="M3015.28-5971.07c-49.59-76.15-68.68-157.53-35.73-245.3a561.71,561.71,0,0,1,40.21-86.71c52.26-89.38,61.54-176.73-9.28-261.62,17.07-12.48,24.11,2.66,32,9,121.9,99.93,138.12,269.72,36.58,392.69C3032.77-6107.27,3003.44-6046.9,3015.28-5971.07Zm79.78-470.45c0,131-143.34,224.93-93.32,379.15,19-58.87,53.32-97.37,81.59-139.39C3135.69-6278.45,3135.27-6359.5,3095.06-6441.52Z" transform="translate(0 6827.39)" fill="#fff"/><path d="M4845.56-5970.32c15.46-82.66-17.92-145.8-69.86-206.49-100.47-117.31-67-299.58,70-395.57,1.07,5.12,4.06,10.66,2.35,13.22-64.84,88.1-52.05,176.19,1.39,262.8,59.08,96,73.59,194.11,22.71,297.67C4867-5988.14,4864.65-5974.48,4845.56-5970.32ZM4861-6071.54c51.3-145.37-91.4-242.1-89-375.42-41.7,87.67-41.8,173.1,14.72,253.73,27.2,38.82,59.41,74.23,74.23,121.69Z" transform="translate(0 6827.39)" fill="#fff"/><path d="M5211.16-3961.51c163.4-61.86,343.11-66.87,425.55-246.26A230.41,230.41,0,0,1,5540-4062.19a503.06,503.06,0,0,1-153.69,72c-67.09,19.83-136.62,32-205.52,70a766.82,766.82,0,0,1,152.73-297.45c77.32-95,197.73-88.21,291.48-134.81-18.67,29.22-26.56,41.06-62,46.18C5367-4277.85,5287.1-4131.73,5211.16-3961.51Z" transform="translate(0 6827.39)" fill="#fff"/><path d="M5138.32-6257.65c24.32,56.85,11.2,109-25.7,155.18-23.15,28.91-50.66,54.5-76.69,81.17-94.81,96.94-126.17,212.45-74.65,337,49.48,118.92,67.51,237.41,41.27,365.82,0-23.78-1.81-45.11,0-66.13,8.85-86-11.94-164.67-50.55-240.92-44.16-86.93-56.85-178.33-29.23-273.57,22.19-76.47,74.66-131.5,129.16-185.68C5100.35-6132.22,5138.64-6184.48,5138.32-6257.65Z" transform="translate(0 6827.39)" fill="#fff"/><path d="M2863.62-5350.56c-25.06-94.5-22.61-187.61,18.13-276,75.94-164.35,45.76-304.92-83.72-430.13-80.52-77.75-95.13-134-63.35-208.3-6.72,111.78,74.66,171.61,136.62,243.39,94.5,109.74,107.61,234.63,53.33,363.36C2882.71-5558.86,2837.6-5463.08,2863.62-5350.56Z" transform="translate(0 6827.39)" fill="#fff"/><path d="M3929.83-5588.29c-21.86,68.47-46.18,122.86-88,168.94,54.61-84.47,62-184.19,88.95-288A76.34,76.34,0,0,1,3953.4-5646a307.07,307.07,0,0,0,65,198.48c89.9,120.94,93.32,243.27,16.1,371.79-40,66.66-41.7,106.65-20.69,191.44-35.84-36.47-38.61-77-31-119.77a345.27,345.27,0,0,1,42.66-108.46c56.64-100.58,46-197.1-12.9-291.91C3979-5458.71,3945.4-5513.1,3929.83-5588.29Z" transform="translate(0 6827.39)" fill="#fff"/><path d="M5726.83-4079.9c64.74-136.73,163.18-219.81,323.27-211,133.63,7.36,228-53.32,281.14-177.36,16.21-38,39.56-71,88.52-77.43-45.44,37.33-56.85,93.32-83.51,140.78-47.89,84.58-122.55,131.5-218.53,143.24a417,417,0,0,1-69.22,2.55c-113.37-5.43-204,37.12-274,126.07C5759.79-4114.35,5742.72-4097.6,5726.83-4079.9Z" transform="translate(0 6827.39)" fill="#fff"/><path d="M2132.94-4078.94q-45.43-48-91-96a262.5,262.5,0,0,0-200.3-83c-26.66,0-53.32,0-79.88-1.18-114-3.94-194.75-59.93-242.42-161.79-20.69-44.26-39.25-89.05-87.25-131.71,63.25,14.39,85.33,52.79,103.35,92.57,26.77,57.7,60.9,107.51,118.39,138.65,45.22,24.74,93.85,30.08,143.87,32C1984.48-4283.5,2047.51-4245.1,2132.94-4078.94Z" transform="translate(0 6827.39)" fill="#fff"/><path d="M4168.84-4362.53c0,7.47,1.07,15,2,23.57s2,17.71,2.56,26.77v1.6l-1.6,1.71a108.65,108.65,0,0,1-38.61,26.66,432.37,432.37,0,0,1-42.66,14.72,132,132,0,0,0-37.44,17.7,80.35,80.35,0,0,0-25.17,30l-15.67,31-4.38-34.34a120.81,120.81,0,0,1,7.26-62.72,87.42,87.42,0,0,1,44-46,99.56,99.56,0,0,1,30.61-7.79c10.67-.64,20,0,29.44,0a84.46,84.46,0,0,0,27.2-5.44A54.28,54.28,0,0,0,4168.84-4362.53Zm0,0a51,51,0,0,1-19.62,22.4,83.49,83.49,0,0,1-28.58,10.66c-10,1.92-20.27,2.24-28.91,3.84a89.93,89.93,0,0,0-24.95,8.86,72.84,72.84,0,0,0-32.75,38.6,103.38,103.38,0,0,0-4.9,52.05l-20.05-3.31a101,101,0,0,1,32-37.22A141.52,141.52,0,0,1,4085-4285.1c14.72-3.94,29.23-6.5,42.67-10.66a109.12,109.12,0,0,0,37.43-19.42l-1.39,3.31c.54-7.68,1.39-15.25,2.56-23.57A233.78,233.78,0,0,0,4168.84-4362.53Z" transform="translate(0 6827.39)" fill="#fff"/><path d="M4387-4571.46c-5.87-42.66,8.32-78.29-8.43-116.79-63.14,117.32-167.44,210.64-160,357.08,2.35,49.8,6.51,97.9,26.67,144.19-37.12-35-42.66-82.33-51.62-136.73h0v-52.68a146.32,146.32,0,0,0,11.84-42.67c10.13-67.61,48.31-124.89,91.5-178,47.57-58.55,81.91-121.48,60.8-202.64C4396.33-4729.63,4414.79-4658,4387-4571.46Z" transform="translate(0 6827.39)" fill="#fff"/><path d="M2965.16-3704.59l38,56.64c-54.28-17.28-95.13-52.48-129.37-95.24-42.66-52.8-58.66-116.58-72-181.31-18.55-90.66-38.93-180.78-116.46-245.31,70.5,11.84,120.52,55.36,165.63,104.1a350.34,350.34,0,0,1,94.28,221c3.2,47.68,13.87,94.71,21.33,142-33.7-35.52-30.29-80.85-34.13-124.68-10.66-122.76-68.15-218.11-170.64-286.47,41.49,72.1,54.6,153.05,75.3,231.33a347.57,347.57,0,0,0,99.4,171.39C2943.93-3703.84,2951.29-3685.92,2965.16-3704.59Z" transform="translate(0 6827.39)" fill="#fff"/><path d="M3507.38-4681c-19.09,22.71-10.66,49.06-16.74,76-3.63-78.71,10.66-149.32,55.14-211.71,30.82-43.19,28.37-88.52,8-136,38.29,26.45,52.16,61,39.25,104.2a216.1,216.1,0,0,1-21.33,48.42c-44.69,73.91-36.37,141.85,22.4,203.92a346.27,346.27,0,0,1,78.6,142.28c28.8,96.52,17.49,186.64-50.44,266.63C3735.08-4386.21,3610.51-4530.51,3507.38-4681Z" transform="translate(0 6827.39)" fill="#fff"/><path d="M5170.74-4168.21c-82.23,66-99,161.8-117.32,255.12a388.64,388.64,0,0,1-164.24,251.49,177.31,177.31,0,0,1-22.61,13.86c-2.35,1.17-6.19-.75-21.33-3.09,72.1-62.29,141.53-119.35,168.83-208.62,26.34-85.32,37-176.61,83.4-256.71-71.56,38.71-115.4,99.61-149.31,170.64s-16.21,154.23-50.88,234.64C4892.06-3945.2,5004.47-4134.5,5170.74-4168.21Z" transform="translate(0 6827.39)" fill="#fff"/><path d="M3228.06-3054.43c-116.68-54.07-228-48-338.95,12A446.51,446.51,0,0,1,2712.92-2986c-77.11,6.4-143.77-14.5-193.15-80.31,128,88,250.74,49.92,373.29-8.64a443.23,443.23,0,0,1,233-38.28C3170-3109.67,3198-3080.45,3228.06-3054.43Z" transform="translate(0 6827.39)" fill="#fff"/><path d="M5340.75-3071.28c-40,73.59-161.58,105.59-258.1,73.59a919.61,919.61,0,0,1-109-42.66c-108.79-52.15-218.75-71.88-337-14.5,28.27-39.79,50.56-52.48,96-57.06a450.33,450.33,0,0,1,248.5,43.51C5101-3009.63,5220.55-2988.73,5340.75-3071.28Z" transform="translate(0 6827.39)" fill="#fff"/><path d="M6574-3664.27c-74.66,32.53-138.65,28.58-192.94-4.69-182.91-113.7-348.65-74.23-508.63,45.43-14.07,10.67-30.07,18.67-48.31,29.76,143.45-168,336.28-209.9,528.25-117.43C6437.68-3669.82,6471.48-3662.24,6574-3664.27Z" transform="translate(0 6827.39)" fill="#fff"/><path d="M2031.51-3591.85l-105.26-69.43c-134.28-87.57-272.29-106-416.7-24.43a295.74,295.74,0,0,1-132.35,38.5c-28.37,1.39-56.32,0-81.81-20.15,91.09,15.89,167.88-21.33,244.13-61.22,110.5-57.92,219-44.37,326.47,9.81,62.28,32,113.69,78.28,169.9,118.28a5.12,5.12,0,0,1,1.6,4.26C2036.85-3594.95,2034.82-3593.88,2031.51-3591.85Z" transform="translate(0 6827.39)" fill="#fff"/><path d="M6762-3930.9c-105.06-54.93-200.62-27.31-295.22,21.33-56.21,28.9-118.92,25.38-182.16,20.47,6.29,32,37.43,19,48.21,42.67a265.55,265.55,0,0,0-189.31-9.71,220.74,220.74,0,0,1,157.52-51.19c77.43,5,146.54-14.61,214.91-47.68,71-34.45,145.15-46.92,219.81-8.85A38,38,0,0,1,6762-3930.9Z" transform="translate(0 6827.39)" fill="#fff"/><path d="M1726.91-3856.67c-90.33-6-170.11-37-255.43-33.07a166,166,0,0,1-81.38-21.33c-93.21-49.91-188.13-68.68-290.31-26.45,53.33-53.86,117.32-55,182.38-39.67a376.8,376.8,0,0,1,84.58,32,341.17,341.17,0,0,0,180,37.12C1610.23-3912.45,1668.36-3894.85,1726.91-3856.67Z" transform="translate(0 6827.39)" fill="#fff"/><path d="M5621.78-3772c-238.9-61.75-439,14.93-617.1,171.28C5164.66-3787.24,5367.52-3862.11,5621.78-3772Z" transform="translate(0 6827.39)" fill="#fff"/><path d="M3932.07-4233.8a198.25,198.25,0,0,1-34-80.95,120.89,120.89,0,0,1,2.35-45.43,147.32,147.32,0,0,1,18.45-41.6,193.23,193.23,0,0,0,30.71-76.25,116.46,116.46,0,0,0-20-75.73l-22-34.55,35.95,19.51a211.83,211.83,0,0,1,40.2,28.16,125.47,125.47,0,0,1,30.51,40.21,96,96,0,0,1,7.89,50.77,118.24,118.24,0,0,1-16.64,47.14c-16,27-32.85,53.32-45.86,80.52A306.93,306.93,0,0,0,3932.07-4233.8Zm0,0a273.34,273.34,0,0,1,17.6-92.36,729.64,729.64,0,0,1,41-84.58,109.35,109.35,0,0,0,12.58-40.84,76.82,76.82,0,0,0-7.57-40.21c-11.95-25.39-36.48-43.84-62.29-58.34l14.08-14.93a164.5,164.5,0,0,1,18.77,42.66,114.71,114.71,0,0,1,3,47,194.58,194.58,0,0,1-36.8,81.59,151.56,151.56,0,0,0-19,36.58,117.32,117.32,0,0,0-5.33,40.85A214.73,214.73,0,0,0,3932.07-4233.8Z" transform="translate(0 6827.39)" fill="#fff"/><path d="M4459.9-6567.69c-38.93,88,10.66,150.92,54.82,216.19,58.34,86.07,60.69,149.31,3.2,222.16,56.52-124.79-21.33-206.59-85.32-300.87-3.74,43.4,14.5,72.2,29,104.09C4397.61-6386.06,4394.52-6486.63,4459.9-6567.69Z" transform="translate(0 6827.39)" fill="#fff"/><path d="M3407.23-6572.59c66.34,82.22,64,161.89-10,268.76,10.13-46.07,40.42-74.66,34.13-122.65-64,91.83-141.53,169.79-87.35,289.88-40.74-34.13-44.16-77.53-35.62-123.18a241.69,241.69,0,0,1,47.78-100C3403.5-6423,3438.27-6489.09,3407.23-6572.59Z" transform="translate(0 6827.39)" fill="#fff"/><path d="M2221.68-3769c210.32-91.51,451.25-29.23,630.85,161.47-107.61-57.81-186.75-136.62-295.64-163.82S2343.26-3788,2221.68-3769Z" transform="translate(0 6827.39)" fill="#fff"/><path d="M5520.46-5505.42c59.19-83,47.46-175.87,45.75-267.81-2.13-111.56,47-188.88,123.83-213.31-15.79,17.92-36.91,42.67-58.88,67-34.34,38-44,83.73-42.66,132.89,1.28,67.09,9.92,133.64-4.26,201.26C5575.7-5546.49,5558.32-5521.31,5520.46-5505.42Z" transform="translate(0 6827.39)" fill="#fff"/><path d="M2158.43-5991c80.74,23,134.06,96,141.64,180.78a290.07,290.07,0,0,1-.64,64c-11.73,84.15-6.94,165.21,41.59,240.4-35.19-15.46-51.62-42.66-61.22-75.3a273.19,273.19,0,0,1-7.14-126.7C2293.35-5821.12,2262-5914,2158.43-5991Z" transform="translate(0 6827.39)" fill="#fff"/><path d="M3940.82-4913.18c35.41,75.3,18.66,158,42.66,233.89-26.34-37.75-23.57-83.61-36.58-128-34.45,82-93.43,146.11-138.12,219.28-30.18,49.38-28.47,104.94-21.33,160,2.13,15.46,5,30.93,9.81,60.36-46.82-120.62-22.18-214.69,45.86-303.53C3897.52-4741.68,3945.09-4817.19,3940.82-4913.18Z" transform="translate(0 6827.39)" fill="#fff"/><path d="M3704.48-4634.49c64.63-102.6,32-199.87-10.67-297.89a332.11,332.11,0,0,1,68.68-359.2c4.8,25.91-8.95,45-21.33,63.35-62.6,91.83-74.65,188.45-34.66,293a1070.53,1070.53,0,0,1,40.21,137.59C3760.68-4736.56,3747.88-4689,3704.48-4634.49Z" transform="translate(0 6827.39)" fill="#fff"/><path d="M4062-4471.63a107.64,107.64,0,0,1,25.49,64.73,84.25,84.25,0,0,1-8.32,35.84,116.65,116.65,0,0,1-21.33,29.76,456.57,456.57,0,0,0-44.05,50.87,368.83,368.83,0,0,0-34.66,57l-13.44,26.66-6.4-29a161,161,0,0,1-2-69.22,153.9,153.9,0,0,1,30.08-61.75c13.76-18.14,30.08-32.85,43.83-49.07A132.86,132.86,0,0,0,4062-4471.63Zm0,0a119.41,119.41,0,0,1-22.51,62c-12.48,18.45-27.19,34.88-38.61,52.37a135.13,135.13,0,0,0-20.79,116.57l-19.84-2.35a361.06,361.06,0,0,1,37.44-59.62,388.23,388.23,0,0,1,48.42-50.55,86.39,86.39,0,0,0,30.71-54.18A115.45,115.45,0,0,0,4062-4471.63Z" transform="translate(0 6827.39)" fill="#fff"/><path d="M3880.13-4250.76a142,142,0,0,1-62-101.64,105.24,105.24,0,0,1,12.58-62.39,74,74,0,0,1,9.28-13.65l5.23-6.29,6.08-5.55a89.83,89.83,0,0,1,13.12-9.92c4.9-3.3,8.1-5.12,13.11-8.1a41.17,41.17,0,0,1,19-5.76,30.27,30.27,0,0,1,29.43,29.43,36.09,36.09,0,0,1-6.07,19.31c-3.84,5.76-6.62,8.64-9.39,12.37a117.47,117.47,0,0,0-7.57,11.41,145,145,0,0,0-11.31,25.17C3880.24-4330.75,3882.8-4290.22,3880.13-4250.76Zm0,0c-3.3-19.51-6.29-39.14-8-59.08a200.34,200.34,0,0,1,3.52-61,130.79,130.79,0,0,1,10.67-29.65c2.45-4.69,5.22-9.28,8.1-13.76s6.62-8.95,8.11-11.51a18.77,18.77,0,0,0,2.67-8.64,8.21,8.21,0,0,0-2.78-5.87,8.13,8.13,0,0,0-5.86-2.67,21.35,21.35,0,0,0-8.85,3.31c-3.52,2-9,5-12.27,7.36a62,62,0,0,0-10.66,7.68l-5,4.27-4.26,5a74.47,74.47,0,0,0-7.68,10.66,93.47,93.47,0,0,0-13.44,51.41A158.92,158.92,0,0,0,3880.13-4250.76Z" transform="translate(0 6827.39)" fill="#fff"/><path d="M3475-3137.51c-62.07-171.93,34.23-328.92,59.19-489.43,15.15,32,22.93,56.52.64,101.21C3472.72-3400.09,3465.36-3267.41,3475-3137.51Z" transform="translate(0 6827.39)" fill="#fff"/><path d="M6471.8-5216.82c-49.16,52.69-51.51,115.5-52.36,179-1.28,89.17-50,145.48-128,185.26-1.06-21.33,13.23-28.8,24.32-34.24,72.95-35.94,89.7-99.29,87.24-173-1.49-46.07-3.52-92.68,27.52-131.82C6439.38-5203.17,6446.53-5219.17,6471.8-5216.82Z" transform="translate(0 6827.39)" fill="#fff"/><path d="M1397.78-5215c42.66,23.47,60.79,61.44,61.43,108.58,0,30.18-1.7,60.57.64,90.54,4.16,54.29,22.61,100.15,79.57,121a64,64,0,0,1,40.31,44.69c-90.33-39.36-138.65-101.54-138.65-197.31C1441.51-5107.5,1440.55-5166.27,1397.78-5215Z" transform="translate(0 6827.39)" fill="#fff"/><path d="M6558.3-4432.07c-3.95-19.19,20.58-27,20.37-48.52-38.82,11.41-60.47,41.91-95.35,72.73,50-93,140.57-130.54,221.84-94.81-64.63-6.72-105.8,32-147.82,69.75Z" transform="translate(0 6827.39)" fill="#fff"/><path d="M1289.64-4453.4c-40.32-31.35-84.05-53.32-138.65-46,64.52-39,143.55-17.28,196.45,49.59-20.48,17.7-36.79-57.7-59-2.67Z" transform="translate(0 6827.39)" fill="#fff"/><path d="M3576.07-3946.9c-49.49-54.39-96-111.35-85.33-193.26A1105.34,1105.34,0,0,0,3576.07-3946.9Z" transform="translate(0 6827.39)" fill="#fff"/><path d="M1798.8-5614c74.65,80.31-1.07,157.42-1.82,236.24C1790.27-5456.68,1843-5534.33,1798.8-5614Z" transform="translate(0 6827.39)" fill="#fff"/><path d="M6063.43-5608.56c-48.63,80,16.85,158.6-1.71,238.16C6071.75-5449.64,5989-5528.35,6063.43-5608.56Z" transform="translate(0 6827.39)" fill="#fff"/><path d="M6557.34-4432.92c-26.34,69-29.76,144.09-57.59,212.67,22.93-69.65,2.56-151,58.55-211.82Z" transform="translate(0 6827.39)" fill="#fff"/><path d="M1178.5-4265c21.33,41,26.67,87.78,65.06,127C1156.11-4154.77,1206-4228.57,1178.5-4265Z" transform="translate(0 6827.39)" fill="#fff"/><path d="M5624.34-4872.12c1.49-52.68,3.09-105.37,33.38-152C5648.44-4973,5631-4923.74,5624.34-4872.12Z" transform="translate(0 6827.39)" fill="#fff"/><path d="M4171.72-4367.65a38.38,38.38,0,0,1-2.88,5.12" transform="translate(0 6827.39)" fill="#fff"/><path d="M4171.72-4315l-2.88,2.77" transform="translate(0 6827.39)" fill="#fff"/></svg>