<svg id="Warstwa_1" data-name="Warstwa 1" xmlns="http://www.w3.org/2000/svg" viewBox="0 0 2185.33 209.41"><defs><style>.cls-1{fill:#fff;}</style></defs><path class="cls-1" d="M-896.75-794.34v115.68a15.16,15.16,0,0,0,15.16,15.16v1.61H-928v-1.61a15.16,15.16,0,0,0,15.16-15.16V-794.34A15.16,15.16,0,0,0-928-809.5v-1.61h46.39v1.61A15.16,15.16,0,0,0-896.75-794.34Z" transform="translate(927.98 812.12)"/><path class="cls-1" d="M-755.65-664.52v1.61H-802v-1.61a15.16,15.16,0,0,0,15.16-15.16v-28.13c0-25.19-7.88-47.29-29.09-47.29-11.18,0-20.71,5.2-27.49,13.59v61.83a15.16,15.16,0,0,0,15.16,15.16v1.61h-46.38v-1.61a15.16,15.16,0,0,0,15.16-15.16v-57.85a15.15,15.15,0,0,0-15.16-15.15v-1.61h31.22V-744A36.2,36.2,0,0,1-816-756.7c30.07,0,45.16,22.81,45.16,48.89v28.13A15.15,15.15,0,0,0-755.65-664.52Z" transform="translate(927.98 812.12)"/><path class="cls-1" d="M-704.45-664.52v1.61h-46.39v-1.61a15.15,15.15,0,0,0,15.16-15.16v-57.85a15.15,15.15,0,0,0-15.16-15.15v-1.61h31.23v74.61A15.16,15.16,0,0,0-704.45-664.52Zm-31-114.69a8,8,0,0,1,6-9.66,8,8,0,0,1,9.66,6,8,8,0,0,1-6,9.67A8,8,0,0,1-735.46-779.21Z" transform="translate(927.98 812.12)"/><path class="cls-1" d="M-616.41-683.88c-5.79,14.4-21.79,23.35-34.89,23.35-25.79,0-48.38-22.82-48.38-48.89s22.59-47.28,48.38-47.28c9.86,0,22.23,3.1,29.78,8.4v25.92h-1.6v-4.55a29,29,0,0,0-10.72-22.92c-4.26-3.35-12.32-5.25-17.46-5.25-16.93,0-32.31,20.49-32.31,45.68s15.38,45.67,32.31,45.67c12,0,27.86-7,33.4-20.73Z" transform="translate(927.98 812.12)"/><path class="cls-1" d="M-608.63-754.29l31.23,0V-650c0,26.07-9.73,47.28-35.52,47.28v-1.6c16.93,0,19.45-20.49,19.45-45.68v-87.53a15.15,15.15,0,0,0-15.16-15.15ZM-593.47-781a8,8,0,0,1,8-8,8,8,0,0,1,8,8,8,8,0,0,1-8,8A8,8,0,0,1-593.47-781Z" transform="translate(927.98 812.12)"/><path class="cls-1" d="M-462.5-664.52v1.61h-31.23v-13c-6.25,8.89-16.17,15.41-29.19,15.41-23.76.73-37.58-10-38.73-23.19-2-23.39,24.51-30.81,56.92-42.6v1.43c-23.76,8.65-44.13,16.22-40.85,39.57,2,14.06,14.3,23.18,22.66,23.18,13.43,0,23.35-7.11,29.19-16.56v-30.72c0-25.19-5.73-45.68-22.66-45.68a22.92,22.92,0,0,0-14.25,5.25,29,29,0,0,0-10.72,22.92v4.55H-543V-748.3a46.06,46.06,0,0,1,26.57-8.4c25.79,0,38.73,21.21,38.73,47.28v29.74A15.16,15.16,0,0,0-462.5-664.52Z" transform="translate(927.98 812.12)"/><path class="cls-1" d="M-438.65-752.68v44.86c0,25.19,2.52,45.68,19.45,45.68v1.6c-25.79,0-35.52-21.2-35.52-47.28v-44.86H-468.4v-1.61c24.6,0,28.75-30,28.75-41.77h1v41.77h19.45v1.61Z" transform="translate(927.98 812.12)"/><path class="cls-1" d="M-326.2-754.29h36.74v1.6a27.05,27.05,0,0,0-24.86,16.41L-346-662.64c-8.51,17.68-27,50.07-52.28,59.91h-18.15v-1.61c25.62-4.87,40.83-12.43,56.42-36.49a207.52,207.52,0,0,0,12.36-22.08h-13.45L-393-737.5a25,25,0,0,0-23-15.19v-1.6h46.39v1.6A9.1,9.1,0,0,0-378-740l31.73,74.14h.05l30.41-71.06a11.31,11.31,0,0,0-10.4-15.76v-1.61Z" transform="translate(927.98 812.12)"/><path class="cls-1" d="M-139.59-754.29h36.74v1.6a27.05,27.05,0,0,0-24.86,16.41l-31.41,73.37h-15.33L-195.9-713l-21.46,50.12h-15.33l-31.93-74.59a25,25,0,0,0-23-15.19v-1.6h46.38v1.6A9.11,9.11,0,0,0-249.62-740l31.75,74.19,21.09-49.27-9.6-22.42a25,25,0,0,0-23-15.18v-1.61h68.3v1.61a27,27,0,0,0-24.86,16.4l-1.92,4.48,28.25,66,30.43-71.11a11.31,11.31,0,0,0-10.4-15.76Zm-49.15,20.45,4.89-11.43c3.34-7.8-2.91-7.41-4.89-7.41s-8.23-.39-4.89,7.41Z" transform="translate(927.98 812.12)"/><path class="cls-1" d="M-9.53-664.52v1.61H-40.75v-13C-47-667-56.92-660.53-69.94-660.53c-23.77.73-37.59-10-38.74-23.19-2-23.39,24.52-30.81,56.93-42.6v1.43c-23.76,8.65-44.13,16.22-40.86,39.57,2,14.06,14.31,23.18,22.67,23.18,13.43,0,23.35-7.11,29.19-16.56v-30.72c0-25.19-5.74-45.68-22.67-45.68a22.94,22.94,0,0,0-14.25,5.25,29,29,0,0,0-10.71,22.92v4.55H-90V-748.3a46.08,46.08,0,0,1,26.57-8.4c25.79,0,38.74,21.21,38.74,47.28v29.74A15.15,15.15,0,0,0-9.53-664.52Z" transform="translate(927.98 812.12)"/><path class="cls-1" d="M141-811.11a33.39,33.39,0,0,1,33.39,33.39,33.79,33.79,0,0,1-33.79,33.8H121.35v-1.61h4.74a32.19,32.19,0,0,0,32.19-32.19,31.78,31.78,0,0,0-31.79-31.78H112a15.16,15.16,0,0,0-15.16,15.16v115.68A15.16,15.16,0,0,0,112-663.5v1.61H65.58v-1.61a15.16,15.16,0,0,0,15.16-15.16V-794.34A15.16,15.16,0,0,0,65.58-809.5v-1.61Z" transform="translate(927.98 812.12)"/><path class="cls-1" d="M262.29-751v11.3c-4.58-9.36-12-15.4-23.1-15.4s-20.7,5.2-27.49,13.59v61.83a15.16,15.16,0,0,0,15.16,15.16v1.61H180.48v-1.61a15.16,15.16,0,0,0,15.16-15.16v-57.85a15.15,15.15,0,0,0-15.16-15.15v-1.61H211.7V-744a36.2,36.2,0,0,1,27.49-12.72A46,46,0,0,1,262.29-751Z" transform="translate(927.98 812.12)"/><path class="cls-1" d="M352.25-698.5h1.61v35.59H271.5l64.93-89.77H307.09a34,34,0,0,0-34,34h-1.6v-35.59h82.36l-64.93,89.77h29.34a34,34,0,0,0,34-34Z" transform="translate(927.98 812.12)"/><path class="cls-1" d="M448.76-684.48l1.49.6c-5.78,14.4-21.78,23.35-34.89,23.35-25.78,0-48.37-22.82-48.37-48.89s22.59-47.28,48.37-47.28c15.16,0,24.91,5.58,30.86,14.46,9.9,14.77.86,34.89-16.64,38l-33.27,6v-1.63l15.11-2.7c18.74-3.35,29.92-23.43,22.05-40.76-3.28-7.2-8.8-11.73-18.11-11.73-16.92,0-32.3,20.49-32.3,45.68s15.38,45.67,32.3,45.67C427.37-663.75,443.22-670.7,448.76-684.48Z" transform="translate(927.98 812.12)"/><path class="cls-1" d="M565.43-709.42c0,26.07-19.91,48.89-50,48.89-11,0-20.5-4.83-27.49-12.73v10.35H456.74v-1.61a15.15,15.15,0,0,0,15.15-15.16V-795.36a15.15,15.15,0,0,0-15.15-15.16v-1.6h46.38v1.6A15.16,15.16,0,0,0,488-795.36v119.63c6.78,8.4,16.31,13.59,27.49,13.59,21.21,0,33.91-22.1,33.91-47.28s-12.7-45.68-33.91-45.68a35.27,35.27,0,0,0-19.29,5.55v-1.88a36.88,36.88,0,0,1,19.29-5.27C545.52-756.7,565.43-735.49,565.43-709.42Z" transform="translate(927.98 812.12)"/><path class="cls-1" d="M673.58-737.53v57.85a15.16,15.16,0,0,0,15.16,15.16v1.61H657.52v-10.31A36.2,36.2,0,0,1,630-660.5c-30.07,0-45.16-22.82-45.16-48.89v-28.14a15.15,15.15,0,0,0-15.16-15.15v-1.61H616.1v1.61a15.15,15.15,0,0,0-15.16,15.15v28.14c0,25.19,7.88,47.28,29.09,47.28,11.18,0,20.71-5.19,27.49-13.58v-61.84a15.15,15.15,0,0,0-15.16-15.15v-1.61h46.38v1.61A15.15,15.15,0,0,0,673.58-737.53Z" transform="translate(927.98 812.12)"/><path class="cls-1" d="M802.89-662.91H771.67V-741.5c-6.79-8.4-16.31-13.59-27.49-13.59-21.21,0-33.91,22.09-33.91,47.28s12.7,45.67,33.91,45.67a35.21,35.21,0,0,0,19.29-5.55v1.88a36.89,36.89,0,0,1-19.29,5.28c-30.07,0-50-21.21-50-47.28s19.91-48.89,50-48.89A36.19,36.19,0,0,1,771.67-744v-51.38a15.16,15.16,0,0,0-15.16-15.16v-1.6h46.38v1.6a15.16,15.16,0,0,0-15.16,15.16v115.68a15.16,15.16,0,0,0,15.16,15.16Z" transform="translate(927.98 812.12)"/><path class="cls-1" d="M892.63-698.5h1.6v35.59H811.87l64.93-89.77H847.46a34,34,0,0,0-34,34h-1.6v-35.59h82.36L829.3-664.52h29.34a34,34,0,0,0,34-34Z" transform="translate(927.98 812.12)"/><path class="cls-1" d="M989.13-684.48l1.5.6c-5.79,14.4-21.79,23.35-34.89,23.35-25.79,0-48.38-22.82-48.38-48.89S930-756.7,955.74-756.7c15.15,0,24.91,5.58,30.86,14.46,9.89,14.77.86,34.89-16.64,38l-33.27,6v-1.63l15.1-2.7c18.74-3.35,29.93-23.43,22.05-40.76-3.27-7.2-8.8-11.73-18.1-11.73-16.93,0-32.31,20.49-32.31,45.68s15.38,45.67,32.31,45.67C967.75-663.75,983.6-670.7,989.13-684.48Z" transform="translate(927.98 812.12)"/><path class="cls-1" d="M1118.05-664.52v1.61h-46.38v-1.61a15.16,15.16,0,0,0,15.16-15.16v-28.13c0-25.19-7.88-47.29-29.09-47.29-11.18,0-20.71,5.2-27.49,13.59v61.83a15.16,15.16,0,0,0,15.16,15.16v1.61H999v-1.61a15.15,15.15,0,0,0,15.16-15.16v-57.85A15.15,15.15,0,0,0,999-752.68v-1.61h31.23V-744a36.17,36.17,0,0,1,27.49-12.72c30.07,0,45.15,22.81,45.15,48.89v28.13A15.16,15.16,0,0,0,1118.05-664.52Z" transform="translate(927.98 812.12)"/><path class="cls-1" d="M1169.25-664.52v1.61h-46.38v-1.61A15.16,15.16,0,0,0,1138-679.68v-57.85a15.15,15.15,0,0,0-15.16-15.15v-1.61h31.22v74.61A15.16,15.16,0,0,0,1169.25-664.52Zm-31-114.69a8,8,0,0,1,6-9.66,8,8,0,0,1,9.66,6,8,8,0,0,1-6,9.67A8,8,0,0,1,1138.24-779.21Z" transform="translate(927.98 812.12)"/><path class="cls-1" d="M1255.8-684.48l1.49.6c-5.79,14.4-21.78,23.35-34.89,23.35-25.78,0-48.37-22.82-48.37-48.89s22.59-47.28,48.37-47.28c15.16,0,24.91,5.58,30.86,14.46,9.9,14.77.86,34.89-16.64,38l-33.27,6v-1.63l15.11-2.7c18.73-3.35,29.92-23.43,22-40.76-3.28-7.2-8.81-11.73-18.11-11.73-16.93,0-32.3,20.49-32.3,45.68s15.37,45.67,32.3,45.67C1234.41-663.75,1250.26-670.7,1255.8-684.48Z" transform="translate(927.98 812.12)"/></svg>