<svg id="Warstwa_1" data-name="Warstwa 1" xmlns="http://www.w3.org/2000/svg" viewBox="0 0 7861.8 753.35"><path d="M-815.64-748.15V-332a54.53,54.53,0,0,0,54.54,54.53v5.79H-928v-5.79A54.53,54.53,0,0,0-873.44-332V-748.15A54.54,54.54,0,0,0-928-802.69v-5.77H-761.1v5.77A54.54,54.54,0,0,0-815.64-748.15Z" transform="translate(927.98 812.12)" fill="#fff"/><path d="M-308-281.1v5.78H-474.91v-5.78a54.54,54.54,0,0,0,54.54-54.53V-436.86c0-90.61-28.35-170.1-104.67-170.1-40.2,0-74.48,18.68-98.88,48.88v222.45a54.54,54.54,0,0,0,54.54,54.53v5.78H-736.25v-5.78a54.53,54.53,0,0,0,54.53-54.53V-543.75a54.54,54.54,0,0,0-54.53-54.54v-5.78h112.33V-567c25.13-28.43,59.3-45.78,98.88-45.78,108.19,0,162.47,82.08,162.47,175.88v101.23A54.53,54.53,0,0,0-308-281.1Z" transform="translate(927.98 812.12)" fill="#fff"/><path d="M-123.84-281.1v5.78H-290.71v-5.78a54.54,54.54,0,0,0,54.54-54.53V-543.75a54.54,54.54,0,0,0-54.54-54.54v-5.78h112.34v268.44A54.54,54.54,0,0,0-123.84-281.1ZM-235.41-693.71a28.9,28.9,0,0,1,21.49-34.76A28.9,28.9,0,0,1-179.15-707a28.89,28.89,0,0,1-21.49,34.77A28.9,28.9,0,0,1-235.41-693.71Z" transform="translate(927.98 812.12)" fill="#fff"/><path d="M192.88-350.77c-20.82,51.81-78.36,84-125.51,84-92.77,0-174-82.09-174-175.88s81.26-170.09,174-170.09c35.48,0,80,11.18,107.15,30.22v93.24h-5.78v-16.34c0-31.84-13.51-62.8-38.54-82.47C114.87-600.14,85.88-607,67.37-607,6.47-607-48.86-533.25-48.86-442.65S6.47-278.33,67.37-278.33c43.19,0,100.22-25,120.15-74.59Z" transform="translate(927.98 812.12)" fill="#fff"/><path d="M220.9-604.07l112.33,0v375.26c0,93.78-35,170.09-127.78,170.09v-5.78c60.9,0,70-73.71,70-164.31V-543.75a54.54,54.54,0,0,0-54.53-54.54Zm54.53-96.26a28.9,28.9,0,0,1,28.9-28.9,28.89,28.89,0,0,1,28.9,28.9,28.89,28.89,0,0,1-28.9,28.9A28.89,28.89,0,0,1,275.43-700.33Z" transform="translate(927.98 812.12)" fill="#fff"/><path d="M746.6-281.1v5.78H634.26v-46.87c-22.51,32-58.18,55.42-105,55.42-85.5,2.66-135.21-35.9-139.34-83.4C382.57-434.32,478.08-461,594.68-503.45v5.15c-85.47,31.12-158.76,58.36-147,142.34,7.09,50.61,51.47,83.41,81.54,83.41,48.31,0,84-25.59,105-59.56V-442.65c0-90.6-20.65-164.31-81.55-164.31-18.5,0-35.94,6.83-51.26,18.87-25.05,19.67-38.55,50.63-38.55,82.47v16.34h-5.77v-93.24a165.94,165.94,0,0,1,95.58-30.22c92.77,0,139.35,76.3,139.35,170.09v107A54.54,54.54,0,0,0,746.6-281.1Z" transform="translate(927.98 812.12)" fill="#fff"/><path d="M832.39-598.29v161.42c0,90.6,9.08,164.32,70,164.32v5.77c-92.77,0-127.78-76.3-127.78-170.09V-598.29H725.38v-5.78c88.49,0,103.41-108.07,103.41-150.25h3.6v150.25h70v5.78Z" transform="translate(927.98 812.12)" fill="#fff"/><path d="M1236.92-604.08h132.19v5.78a97.32,97.32,0,0,0-89.45,59L1165.84-274.35c-30.59,63.61-97.19,180.12-188.06,215.52H912.49v-5.78c92.14-17.54,146.88-44.71,203-131.28a740.42,740.42,0,0,0,44.45-79.44h-48.39L996.65-543.68a90.07,90.07,0,0,0-82.8-54.61v-5.78h166.88v5.78a32.76,32.76,0,0,0-30.12,45.65l114.16,266.7h.16l109.42-255.62a40.71,40.71,0,0,0-37.43-56.73v-5.78Z" transform="translate(927.98 812.12)" fill="#fff"/><path d="M1908.27-604.07h132.19v5.78a97.31,97.31,0,0,0-89.45,59l-113,264h-55.17l-77.18-180.32-77.19,180.32h-55.16L1458.47-543.67a90.06,90.06,0,0,0-82.79-54.62v-5.78h166.87v5.78a32.75,32.75,0,0,0-30.11,45.65l114.23,266.89L1702.54-463,1668-543.67a90.06,90.06,0,0,0-82.79-54.62v-5.78h245.72v5.78a97.32,97.32,0,0,0-89.45,59l-6.9,16.12L1836.2-285.75l109.5-255.81a40.72,40.72,0,0,0-37.43-56.73ZM1731.44-530.5l17.6-41.11c12-28-10.46-26.68-17.6-26.68s-29.59-1.37-17.59,26.68Z" transform="translate(927.98 812.12)" fill="#fff"/><path d="M2376.19-281.1v5.78H2263.85v-46.87c-22.51,32-58.18,55.42-105,55.42-85.5,2.66-135.21-35.9-139.34-83.4-7.33-84.15,88.18-110.84,204.78-153.28v5.15c-85.47,31.12-158.76,58.36-147,142.34,7.09,50.61,51.47,83.41,81.54,83.41,48.31,0,84-25.59,105-59.56V-442.65c0-90.6-20.65-164.31-81.55-164.31-18.5,0-35.94,6.83-51.26,18.87-25.05,19.67-38.55,50.63-38.55,82.47v16.34h-5.77v-93.24a165.94,165.94,0,0,1,95.58-30.22c92.77,0,139.35,76.3,139.35,170.09v107A54.54,54.54,0,0,0,2376.19-281.1Z" transform="translate(927.98 812.12)" fill="#fff"/><path d="M2917.55-808.46a120.13,120.13,0,0,1,120.13,120.12A121.57,121.57,0,0,1,2916.1-566.77H2847v-5.77h17a115.81,115.81,0,0,0,115.8-115.8,114.36,114.36,0,0,0-114.36-114.35h-52.26a54.54,54.54,0,0,0-54.54,54.54V-332a54.53,54.53,0,0,0,54.54,54.53v5.79H2646.39v-5.79A54.53,54.53,0,0,0,2700.92-332V-748.15a54.54,54.54,0,0,0-54.53-54.54v-5.77Z" transform="translate(927.98 812.12)" fill="#fff"/><path d="M3354.05-592.22v40.63C3337.57-585.23,3310.81-607,3271-607c-40.22,0-74.49,18.68-98.89,48.88v222.45a54.54,54.54,0,0,0,54.54,54.53v5.78H3059.73v-5.78a54.53,54.53,0,0,0,54.53-54.53V-543.75a54.53,54.53,0,0,0-54.53-54.54v-5.78h112.33V-567c25.13-28.43,59.3-45.78,98.89-45.78C3303.58-612.74,3331.25-605.23,3354.05-592.22Z" transform="translate(927.98 812.12)" fill="#fff"/><path d="M3677.69-403.36h5.77v128H3387.17l233.58-323H3515.21A122.26,122.26,0,0,0,3393-476h-5.78V-604.07h296.29l-233.58,323h105.54a122.27,122.27,0,0,0,122.27-122.26Z" transform="translate(927.98 812.12)" fill="#fff"/><path d="M4024.89-352.92l5.37,2.15c-20.83,51.81-78.37,84-125.52,84-92.77,0-174-82.09-174-175.88s81.25-170.09,174-170.09c54.52,0,89.61,20.09,111,52,35.6,53.13,3.1,125.5-59.86,136.75l-119.69,21.39v-5.87l54.35-9.71c67.4-12.05,107.64-84.28,79.31-146.61-11.78-25.92-31.67-42.2-65.13-42.2-60.9,0-116.22,73.71-116.22,164.31s55.32,164.32,116.22,164.32C3947.94-278.33,4005-303.35,4024.89-352.92Z" transform="translate(927.98 812.12)" fill="#fff"/><path d="M4444.59-442.65c0,93.79-71.61,175.88-179.79,175.88-39.59,0-73.76-17.36-98.89-45.78v37.23H4053.58v-5.78a54.53,54.53,0,0,0,54.53-54.53V-751.81a54.53,54.53,0,0,0-54.53-54.54v-5.77h166.86v5.77a54.54,54.54,0,0,0-54.53,54.54v430.37c24.4,30.2,58.68,48.89,98.89,48.89,76.31,0,122-79.5,122-170.1S4341.1-607,4264.8-607c-26.13,0-49.56,7.21-69.39,20v-6.76a132.51,132.51,0,0,1,69.39-19C4373-612.74,4444.59-536.44,4444.59-442.65Z" transform="translate(927.98 812.12)" fill="#fff"/><path d="M4833.7-543.75v208.12a54.54,54.54,0,0,0,54.53,54.53v5.78H4775.9v-37.1c-25.13,28.42-59.3,45.77-98.88,45.77-108.18,0-162.47-82.08-162.47-175.87V-543.75A54.53,54.53,0,0,0,4460-598.29v-5.78h166.87v5.78a54.55,54.55,0,0,0-54.54,54.54v101.23c0,90.6,28.36,170.1,104.67,170.1,40.2,0,74.48-18.69,98.88-48.89V-543.75a54.54,54.54,0,0,0-54.54-54.54v-5.78h166.87v5.78A54.54,54.54,0,0,0,4833.7-543.75Z" transform="translate(927.98 812.12)" fill="#fff"/><path d="M5298.89-275.31H5186.55V-558.07c-24.4-30.2-58.67-48.88-98.87-48.88-76.32,0-122,79.49-122,170.1s45.69,164.31,122,164.31c26.12,0,49.54-7.21,69.38-20v6.76a132.68,132.68,0,0,1-69.38,19c-108.19,0-179.81-76.3-179.81-170.09s71.62-175.88,179.81-175.88c39.59,0,73.74,17.35,98.87,45.78V-751.81A54.53,54.53,0,0,0,5132-806.35v-5.77h166.87v5.77a54.55,54.55,0,0,0-54.54,54.54v416.18a54.55,54.55,0,0,0,54.54,54.53Z" transform="translate(927.98 812.12)" fill="#fff"/><path d="M5621.7-403.36h5.78v128h-296.3l233.59-323H5459.23A122.26,122.26,0,0,0,5337-476h-5.78V-604.07h296.3l-233.59,323h105.55A122.26,122.26,0,0,0,5621.7-403.36Z" transform="translate(927.98 812.12)" fill="#fff"/><path d="M5968.9-352.92l5.37,2.15c-20.82,51.81-78.36,84-125.51,84-92.77,0-174-82.09-174-175.88s81.26-170.09,174-170.09c54.51,0,89.6,20.09,111,52,35.6,53.13,3.1,125.5-59.86,136.75l-119.69,21.39v-5.87l54.35-9.71c67.4-12.05,107.64-84.28,79.31-146.61-11.78-25.92-31.66-42.2-65.12-42.2-60.9,0-116.23,73.71-116.23,164.31s55.33,164.32,116.23,164.32C5892-278.33,5949-303.35,5968.9-352.92Z" transform="translate(927.98 812.12)" fill="#fff"/><path d="M6432.69-281.1v5.78H6265.82v-5.78a54.53,54.53,0,0,0,54.53-54.53V-436.86c0-90.61-28.34-170.1-104.66-170.1-40.2,0-74.48,18.68-98.88,48.88v222.45a54.54,54.54,0,0,0,54.53,54.53v5.78H6004.47v-5.78A54.53,54.53,0,0,0,6059-335.63V-543.75a54.54,54.54,0,0,0-54.54-54.54v-5.78h112.34V-567c25.13-28.43,59.3-45.78,98.88-45.78,108.19,0,162.46,82.08,162.46,175.88v101.23A54.55,54.55,0,0,0,6432.69-281.1Z" transform="translate(927.98 812.12)" fill="#fff"/><path d="M6616.89-281.1v5.78H6450v-5.78a54.53,54.53,0,0,0,54.53-54.53V-543.75A54.53,54.53,0,0,0,6450-598.29v-5.78h112.33v268.44A54.54,54.54,0,0,0,6616.89-281.1ZM6505.32-693.71a28.89,28.89,0,0,1,21.49-34.76A28.9,28.9,0,0,1,6561.58-707a28.91,28.91,0,0,1-21.49,34.77A28.9,28.9,0,0,1,6505.32-693.71Z" transform="translate(927.98 812.12)" fill="#fff"/><path d="M6928.24-352.92l5.37,2.15c-20.83,51.81-78.37,84-125.52,84-92.77,0-174-82.09-174-175.88s81.25-170.09,174-170.09c54.52,0,89.61,20.09,111,52,35.6,53.13,3.1,125.5-59.86,136.75l-119.69,21.39v-5.87l54.35-9.71c67.4-12.05,107.64-84.28,79.31-146.61-11.78-25.92-31.67-42.2-65.13-42.2-60.9,0-116.22,73.71-116.22,164.31s55.32,164.32,116.22,164.32C6851.29-278.33,6908.32-303.35,6928.24-352.92Z" transform="translate(927.98 812.12)" fill="#fff"/></svg>