<svg xmlns="http://www.w3.org/2000/svg" viewBox="0 0 7861.81 2450.8"><g id="Warstwa_2" data-name="Warstwa 2"><g id="Warstwa_1-2" data-name="Warstwa 1"><path d="M112.4,1761.3v416.1a54.5,54.5,0,0,0,54.5,54.5h0v5.8H0v-5.8a54.65,54.65,0,0,0,54.6-54.5V1761.2A54.5,54.5,0,0,0,.1,1706.7h0v-5.8H167v5.8a54.67,54.67,0,0,0-54.6,54.6Z" fill="#fff"/><path d="M620,2228.4v5.8H453.1v-5.8a54.5,54.5,0,0,0,54.5-54.5V2072.7c0-90.6-28.4-170.1-104.7-170.1-40.2,0-74.5,18.7-98.9,48.9v222.4a54.5,54.5,0,0,0,54.5,54.5h0v5.8H191.8v-5.8a54.5,54.5,0,0,0,54.5-54.5h0V1965.8a54.5,54.5,0,0,0-54.5-54.5v-5.8H304.1v37.1c25.1-28.4,59.3-45.8,98.9-45.8,108.2,0,162.5,82.1,162.5,175.9v101.2a54.65,54.65,0,0,0,54.5,54.6c-.1-.1-.1-.1,0-.1Z" fill="#fff"/><path d="M804.2,2228.4v5.8H637.3v-5.8a54.5,54.5,0,0,0,54.5-54.5V1965.8a54.5,54.5,0,0,0-54.5-54.5h0v-5.8H749.6v268.4A54.52,54.52,0,0,0,804.2,2228.4ZM692.6,1815.8a28.9,28.9,0,0,1,21.5-34.8h0a28.92,28.92,0,0,1,13.3,56.3h0a29.05,29.05,0,0,1-34.8-21.5Z" fill="#fff"/><path d="M1120.9,2158.7c-20.8,51.8-78.4,84-125.5,84-92.8,0-174-82.1-174-175.9s81.3-170.1,174-170.1c35.5,0,80,11.2,107.1,30.2v93.2h-5.8v-16.3c0-31.8-13.5-62.8-38.5-82.5-15.3-12-44.3-18.9-62.8-18.9-60.9,0-116.2,73.8-116.2,164.4s55.3,164.3,116.2,164.3c43.2,0,100.2-25,120.1-74.6Z" fill="#fff"/><path d="M1148.9,1905.4h112.3v375.3c0,93.8-35,170.1-127.8,170.1V2445c60.9,0,70-73.7,70-164.3V1965.8a54.5,54.5,0,0,0-54.5-54.5Zm54.5-96.2a28.85,28.85,0,0,1,28.9-28.9h0a28.85,28.85,0,0,1,28.9,28.9h0a28.85,28.85,0,0,1-28.9,28.9h0a29,29,0,0,1-28.9-28.9Z" fill="#fff"/><path d="M1674.6,2228.4v5.8H1562.3v-46.9c-22.5,32-58.2,55.4-105,55.4-85.5,2.7-135.2-35.9-139.3-83.4-7.3-84.1,88.2-110.8,204.8-153.3v5.1c-85.5,31.1-158.8,58.4-147,142.3,7.1,50.6,51.5,83.4,81.5,83.4,48.3,0,84-25.6,105-59.6V2066.7c0-90.6-20.7-164.3-81.6-164.3-18.5,0-35.9,6.8-51.3,18.9-25.1,19.7-38.6,50.6-38.6,82.5v16.3H1385v-93.2a166.1,166.1,0,0,1,95.6-30.2c92.8,0,139.3,76.3,139.3,170.1v107a54.69,54.69,0,0,0,54.7,54.6Z" fill="#fff"/><path d="M1760.4,1911.2v161.4c0,90.6,9.1,164.3,70,164.3v5.8c-92.8,0-127.8-76.3-127.8-170.1V1911.2h-49.2v-5.8c88.5,0,103.4-108.1,103.4-150.3h3.6v150.3h70v5.8Z" fill="#fff"/><path d="M2164.9,1905.4h132.2v5.8a97.23,97.23,0,0,0-89.4,59l-113.8,264.9c-30.6,63.6-97.2,180.1-188.1,215.5h-65.3v-5.8c92.1-17.5,146.9-44.7,203-131.3a752.84,752.84,0,0,0,44.5-79.4h-48.4l-114.9-268.4a90.16,90.16,0,0,0-82.8-54.6v-5.8h166.9v5.8a32.82,32.82,0,0,0-32.8,32.8,32.1,32.1,0,0,0,2.7,12.9l114.2,266.7h.2l109.4-255.6a40.64,40.64,0,0,0-21.4-53.4,40.22,40.22,0,0,0-16-3.3l-.2-5.8Z" fill="#fff"/><path d="M2836.3,1905.4h132.2v5.8a97.23,97.23,0,0,0-89.4,59l-113,264h-55.2l-77.2-180.3-77.2,180.3h-55.2l-114.8-268.4a90.16,90.16,0,0,0-82.8-54.6v-5.8h166.9v5.8a32.8,32.8,0,0,0-32.8,32.7h0a33.77,33.77,0,0,0,2.6,12.9l114.2,266.9,75.9-177.3-34.5-80.7a90.16,90.16,0,0,0-82.8-54.6v-5.8h245.7v5.8a97.23,97.23,0,0,0-89.4,59l-6.9,16.1,101.6,237.4,109.5-255.8a40.73,40.73,0,0,0-21.4-53.4,40.22,40.22,0,0,0-16-3.3ZM2659.4,1979l17.6-41.1c12-28-10.5-26.7-17.6-26.7s-29.6-1.4-17.6,26.7Z" fill="#fff"/><path d="M3304.2,2228.4v5.8H3191.9v-46.9c-22.5,32-58.2,55.4-105,55.4-85.5,2.7-135.2-35.9-139.3-83.4-7.3-84.1,88.2-110.8,204.8-153.3v5.1c-85.5,31.1-158.8,58.4-147,142.3,7.1,50.6,51.5,83.4,81.5,83.4,48.3,0,84-25.6,105-59.6V2066.7c0-90.6-20.6-164.3-81.6-164.3-18.5,0-35.9,6.8-51.3,18.9-25.1,19.7-38.6,50.6-38.6,82.5v16.3h-5.8v-93.2a166.1,166.1,0,0,1,95.6-30.2c92.8,0,139.4,76.3,139.4,170.1v107a54.54,54.54,0,0,0,54.6,54.6Z" fill="#fff"/><path d="M3845.6,1701a120.14,120.14,0,0,1,120.1,120.1,121.52,121.52,0,0,1-121.6,121.5H3775v-5.8h17A115.87,115.87,0,0,0,3907.8,1821a114.38,114.38,0,0,0-114.4-114.4h-52.3a54.5,54.5,0,0,0-54.5,54.5h0v416.1a54.5,54.5,0,0,0,54.5,54.5h0v5.8H3574.3v-5.8a54.5,54.5,0,0,0,54.5-54.5h0V1761.1a54.5,54.5,0,0,0-54.5-54.5v-5.8Z" fill="#fff"/><path d="M4282.1,1917.3v40.6c-16.5-33.6-43.2-55.4-83-55.4-40.2,0-74.5,18.7-98.9,48.9v222.4a54.5,54.5,0,0,0,54.5,54.5h0v5.8H3987.8v-5.8a54.5,54.5,0,0,0,54.5-54.5h0V1965.7a54.5,54.5,0,0,0-54.5-54.5h0v-5.8h112.3v37.1c25.1-28.4,59.3-45.8,98.9-45.8C4231.6,1896.8,4259.3,1904.3,4282.1,1917.3Z" fill="#fff"/><path d="M4605.7,2106.1h5.8v128H4315.2l233.6-323H4443.3a122.27,122.27,0,0,0-122.2,122.3h-5.8v-128h296.3l-233.6,323h105.5a122.27,122.27,0,0,0,122.2-122.3Z" fill="#fff"/><path d="M4952.9,2156.6l5.4,2.1c-20.8,51.8-78.4,84-125.5,84-92.8,0-174-82.1-174-175.9s81.3-170.1,174-170.1c54.5,0,89.6,20.1,111,52,35.6,53.1,3.1,125.5-59.9,136.8l-119.7,21.4V2101l54.4-9.7c67.4-12.1,107.6-84.3,79.3-146.6-11.8-25.9-31.7-42.2-65.1-42.2-60.9,0-116.2,73.7-116.2,164.3s55.3,164.3,116.2,164.3C4875.9,2231.2,4933,2206.1,4952.9,2156.6Z" fill="#fff"/><path d="M5372.6,2066.8c0,93.8-71.6,175.8-179.8,175.8-39.6,0-73.8-17.4-98.9-45.8V2234H4981.6v-5.8a54.5,54.5,0,0,0,54.5-54.5V1757.6a54.5,54.5,0,0,0-54.5-54.5h0v-5.8h166.9v5.8a54.5,54.5,0,0,0-54.5,54.5h0V2188c24.4,30.2,58.7,48.9,98.9,48.9,76.3,0,122-79.5,122-170.1s-45.7-164.4-122-164.4c-26.1,0-49.6,7.2-69.4,20v-6.8a132.54,132.54,0,0,1,69.4-19C5301,1896.8,5372.6,1973.1,5372.6,2066.8Z" fill="#fff"/><path d="M5761.7,1965.7v208.1a54.5,54.5,0,0,0,54.5,54.5v5.8H5703.9V2197c-25.1,28.4-59.3,45.8-98.9,45.8-108.2,0-162.5-82.1-162.5-175.9V1965.7a54.5,54.5,0,0,0-54.5-54.5h0v-5.8h166.9v5.8a54.5,54.5,0,0,0-54.5,54.5h0v101.2c0,90.6,28.4,170.1,104.7,170.1,40.2,0,74.5-18.7,98.9-48.9V1965.7a54.5,54.5,0,0,0-54.5-54.5h0v-5.8h166.9v5.8A54.54,54.54,0,0,0,5761.7,1965.7Z" fill="#fff"/><path d="M6226.9,2234.2H6114.6V1951.4c-24.4-30.2-58.7-48.9-98.9-48.9-76.3,0-122,79.5-122,170.1s45.7,164.3,122,164.3c26.1,0,49.5-7.2,69.4-20v6.8a132.29,132.29,0,0,1-69.4,19c-108.2,0-179.8-76.3-179.8-170.1s71.6-175.9,179.8-175.9c39.6,0,73.7,17.4,98.9,45.8V1757.7a54.5,54.5,0,0,0-54.5-54.5h0v-5.8H6227v5.8a54.5,54.5,0,0,0-54.5,54.5h0v416.2a54.5,54.5,0,0,0,54.5,54.5Z" fill="#fff"/><path d="M6549.7,2106.1h5.8v128H6259.2l233.6-323H6387.3a122.27,122.27,0,0,0-122.2,122.3h0v.1h-5.8V1905.4h296.3l-233.6,323h105.5A122.21,122.21,0,0,0,6549.7,2106.1Z" fill="#fff"/><path d="M6896.9,2156.6l5.4,2.1c-20.8,51.8-78.4,84-125.5,84-92.8,0-174-82.1-174-175.9s81.3-170.1,174-170.1c54.5,0,89.6,20.1,111,52,35.6,53.1,3.1,125.5-59.9,136.8l-119.7,21.4V2101l54.4-9.7c67.4-12.1,107.6-84.3,79.3-146.6-11.8-25.9-31.7-42.2-65.1-42.2-60.9,0-116.2,73.7-116.2,164.3s55.3,164.3,116.2,164.3C6820,2231.2,6877,2206.1,6896.9,2156.6Z" fill="#fff"/><path d="M7360.7,2228.4v5.8H7193.8v-5.8a54.5,54.5,0,0,0,54.5-54.5V2072.7c0-90.6-28.3-170.1-104.7-170.1-40.2,0-74.5,18.7-98.9,48.9v222.4a54.5,54.5,0,0,0,54.5,54.5v5.8H6932.3v-5.8a54.5,54.5,0,0,0,54.5-54.5V1965.8a54.5,54.5,0,0,0-54.5-54.5h0v-5.8h112.3v37.1c25.1-28.4,59.3-45.8,98.9-45.8,108.2,0,162.5,82.1,162.5,175.9v101.2a54.67,54.67,0,0,0,54.7,54.5Z" fill="#fff"/><path d="M7544.9,2228.4v5.8H7378v-5.8a54.5,54.5,0,0,0,54.5-54.5V1965.8a54.5,54.5,0,0,0-54.5-54.5h0v-5.8h112.3v268.4a54.58,54.58,0,0,0,54.6,54.5Zm-111.6-412.6a28.9,28.9,0,0,1,21.5-34.8h0a28.92,28.92,0,1,1-21.5,34.8Z" fill="#fff"/><path d="M7856.2,2156.6l5.4,2.1c-20.8,51.8-78.4,84-125.5,84-92.8,0-174-82.1-174-175.9s81.3-170.1,174-170.1c54.5,0,89.6,20.1,111,52,35.6,53.1,3.1,125.5-59.9,136.8l-119.7,21.4V2101l54.4-9.7c67.4-12.1,107.6-84.3,79.3-146.6-11.8-25.9-31.7-42.2-65.1-42.2-60.9,0-116.2,73.7-116.2,164.3s55.3,164.3,116.2,164.3C7779.3,2231.2,7836.3,2206.1,7856.2,2156.6Z" fill="#fff"/><path d="M3745.7,545.3c-16.5-44.3-10-80.3,9.3-113.9,9.9-17.2,15.3-32.7,13.2-53.4-6.6-66.2,25.5-113.5,83.2-140.5,63.2-29.6,125.1-19.5,179,24.6,49.9,40.9,75.7,97.1,92.8,158.2,34.4,123.6,15.1,242.9-25.8,361.3-29.2,84.7-61.5,168.9-81.8,255.9-34.1,146.5,5.2,274.7,122.8,372,93.6,77.4,197.4,82,301.8,20.7a13.6,13.6,0,0,1,8.8-2c-16.6,25.5-40.4,42-68.4,52.4-63.3,23.5-124.8,10.9-183.3-15.3-166.1-74.4-252.3-244.9-220.1-425.7,16.6-93,52.9-179.2,86.1-266.5,45.7-120.4,59.5-242.5,22.2-367.4-16.7-55.9-41.8-108.1-94.6-139.6-46.7-27.8-95-29-141.2,1.4-46,30.3-70.1,71.7-60.7,128.9,1.2,7.2-2.3,15.8-5.5,22.8-8.1,17.8-17.3,35.2-23.9,54.9,35.5-32.2,78.4-39.6,122.6-46.5,42.2-6.6,73.3-30.3,84-75.5,2.5.8,4.9,1.6,7.4,2.3-1.6,13.6-.3,28.3-5.2,40.6-18.2,46.1-56.3,62.9-102.9,62.3-40.5-.6-74.2,10.6-96.6,46.1C3761.5,514.9,3755.6,527.2,3745.7,545.3Z" fill="#fff"/><path d="M3945.9,449.7c31.8,25.6,44.4,61.7,47.2,99.7,5.4,72.9-24.6,135.4-63.2,195.4-48,74.7-100.4,147.7-138.6,227.3-94.3,196.8-89.2,393.6,25.9,581.8,27.4,44.8,67.6,81.8,97,116.5-39.1-21.6-77.7-57.2-109.2-99.7-117.9-159-139.6-334.5-85.9-521.8,30.5-106.5,92-196.3,154.8-285.7,29.4-41.7,56.9-85.7,78.6-131.7C3980.8,571.6,3980.1,509.6,3945.9,449.7Z" fill="#fff"/><path d="M3224.5,278.8c36.5-10,72.4-15.4,103.7,9.3,66.5,52.7,119.2,117.1,133.5,202.5,7.8,46.8,3.4,96.1,0,144-5.6,78.3-10.2,155.9,10.1,233.1,20.9,79.1,61.2,146.6,116.6,205.8,12.3,13.2,24.8,26.3,34.3,43.2-6-3.8-12.4-7.1-17.9-11.5-116.4-94.1-181.5-214.4-182.1-365.5-.2-58.1,7.6-116.2,10.1-174.3,4.8-111.6-51.2-192.8-135.4-257.1C3277.8,293.2,3250.2,288.8,3224.5,278.8Z" fill="#fff"/><path d="M4639.5,279.7c-116.1,26.6-169.4,109.4-203.3,205.9-12.5,35.7-9.9,78.9-5.9,117.8,10.1,99.4,12.5,197.2-21.8,293.1-31.7,88.7-109.2,186-185.5,230.5-1.6-1.5-3.3-3-4.9-4.5,5.5-3.9,11.6-7.3,16.6-11.9q193.05-177.15,166.1-437.9c-3.8-35.8-6.3-71.8-8.6-107.7-5.4-85.4,26.1-157.5,82.3-219.7a558.92,558.92,0,0,1,57.3-55.8C4562.8,263.7,4598.3,268,4639.5,279.7Z" fill="#fff"/><path d="M3056.9,746.1c57.2.7,104.3,25.5,138.5,69.1,28.6,36.5,54.5,76.4,74.5,118.2,48.7,102.1,120.3,179.6,221.5,231.1,36.7,18.7,70.3,43.6,104.6,66.6,12.5,8.4,23,19.7,31.6,34.2-7.9-4.6-15.7-9.5-23.9-13.6-41.8-20.9-82.7-44.1-125.9-61.6-102.4-41.6-175.9-112-222.6-211.6q-21-44.7-45.1-88C3174.7,826.4,3126.8,775.2,3056.9,746.1Z" fill="#fff"/><path d="M4218.8,1265c24.4-18.7,47.8-39,73.6-55.6,39.3-25.2,80.3-47.8,120.6-71.4,76.6-44.8,130-110.1,169.8-188.4,20.1-39.5,41.8-78.6,66.8-115.1,32.8-47.8,78.3-79.3,136.9-88.9a89.25,89.25,0,0,1,13.7-.9c1.1,0,2.3,1.3,4.7,2.7-16.5,8.9-32.9,16.5-48.1,26-63.2,39.3-100.7,99-130.8,164.9-35.4,77.4-77.6,150.2-149.7,199.7-23.3,16-48.5,29.4-73.8,41.9-60.2,29.6-121,58-181.6,86.9C4220.1,1266.2,4219.5,1265.6,4218.8,1265Z" fill="#fff"/><path d="M3526.8,36.6c55,16.8,92.3,51.5,120.1,97.3,64.6,106.2,53.1,215.3,9.9,324.9-14.9,37.8-31.3,74.9-47.5,112.2-52.2,120.3-51.8,241-3.4,362.3,1.4,3.5,2.5,7,3.8,10.6-1.8.8-3.7,1.5-5.5,2.3-9.5-22.9-20.8-45.2-28.1-68.7-32.2-104.8-27.6-208.4,10.4-311.3,23.4-63.2,47.5-126.5,64.6-191.5,25.6-97.1,10.4-189.3-53.3-269.4C3578.1,80.4,3552.1,60.7,3526.8,36.6Z" fill="#fff"/><path d="M4332.8,41.3c-15.1,12.7-31.2,24.3-45.1,38.3-92.5,93-108.2,204.6-73.4,325.5,18.8,65.4,44.7,128.8,67.2,193.1,36.2,103.1,29,205.1-8.4,306.1-5.4,14.6-13.2,28.3-22.2,47.2,11.9-46.9,24-87.8,32.3-129.4,19.8-99.2-6.8-191.4-46.2-281.2-28.7-65.3-59.3-129.9-66.2-202.3-10.8-114.4,23.4-210.2,118.4-279.7,12.4-9.1,27.4-14.8,41.2-22C4331.1,38.3,4332,39.8,4332.8,41.3Z" fill="#fff"/><path d="M3172.9,1089c7.6,14.1,15.3,28.1,22.8,42.2,47.7,89.4,126.9,133.7,221.9,155.6,37.3,8.6,74.6,17,111.8,26.1,8.4,2,16.3,6.3,23.7,12-83.1-10.7-168.7-4.6-247.3-39.8-73.9-33.1-116.4-92-135.4-169.2-2.1-8.5-1.5-17.7-2.2-26.5C3169.8,1089.2,3171.3,1089.1,3172.9,1089Z" fill="#fff"/><path d="M4691.8,1088.7c1.9,43.5-17.7,78.6-40.8,111.9-43.1,62.2-104,96.7-177.9,107.5-53.8,7.9-108,12.4-164.2,14.5,4.9-2.5,9.6-6,14.8-7.3,28.2-7.1,56.4-14.6,85-20.2C4535.1,1270.7,4634.8,1210.3,4691.8,1088.7Z" fill="#fff"/><path d="M3267.8,394.1c3.8,25.9,11.3,51.8,10.6,77.5-1,36.5-4,74-13.2,109.2-21.3,80.8-7.1,154.8,33.1,225.9,3.4,6,6.3,12.3,9.3,18.5.5,1.1.1,2.7.1,7.2-57.2-70.6-93.9-144.2-72.1-236,6.7-28.3,14.6-56.6,18.7-85.3,5.5-38.3,8-77.1,11.7-115.6A11,11,0,0,1,3267.8,394.1Z" fill="#fff"/><path d="M4600.3,391.2c-11.4,66.4,8.8,129.2,22.1,192.8,20,95.2-.1,169.1-69.2,245.6,2.1-6.7,2.4-9.8,3.8-12.1,49.3-80.5,58.6-165.5,34.4-256.6C4575,498.9,4580.8,431.2,4600.3,391.2Z" fill="#fff"/><path d="M3918.3,176.9c6.4-23.2,9.5-47.9,19.8-69.3,16.9-35,39.1-67.7,5.7-107.6,48.1,7.9,69.3,60.5,44.2,99-7.4,11.4-17.9,20.9-26.8,31.4-13,15.4-25.7,31-38.6,46.6C3921.3,176.9,3919.8,176.9,3918.3,176.9Z" fill="#fff"/><path d="M3650.4,1465.4c-78.5,47.2-194.6,28.1-241.1-41.2C3486.3,1469.9,3563,1486.4,3650.4,1465.4Z" fill="#fff"/><path d="M3955.3,176.6c31.1-38.8,58.6-73.2,86.1-107.5,24.3,25.2,15.2,60-22.3,79C4000.3,157.6,3980.7,165.4,3955.3,176.6Z" fill="#fff"/><path d="M3929.7,81.4c-22.4,35.7-45.5,69-34.6,112.6-25.7-20.8-35.5-50.2-25.7-75.8C3879.3,92.4,3897.7,80.3,3929.7,81.4Z" fill="#fff"/><path d="M3896.5,313.6c-8,41.8-22.3,56.5-51.9,54.7C3837,333.8,3859.3,309.5,3896.5,313.6Z" fill="#fff"/></g></g></svg>