<?xml version="1.0" encoding="utf-8"?>
<!-- Generator: Adobe Illustrator 24.1.2, SVG Export Plug-In . SVG Version: 6.00 Build 0)  -->
<svg version="1.1" id="Warstwa_1" xmlns="http://www.w3.org/2000/svg" xmlns:xlink="http://www.w3.org/1999/xlink" x="0px" y="0px"
	 viewBox="0 0 841.9 595.3" style="enable-background:new 0 0 841.9 595.3;" xml:space="preserve">
<style type="text/css">
	.st0{fill:#FFFFFF;}
</style>
<g>
	<path class="st0" d="M70.2,267.2v39.1c0,2.8,2.3,5.1,5.1,5.1v0.5H59.7v-0.5c2.8,0,5.1-2.3,5.1-5.1v-39.1c0-2.8-2.3-5.1-5.1-5.1
		v-0.5h15.7v0.5C72.5,262.1,70.2,264.4,70.2,267.2z"/>
	<path class="st0" d="M117.9,311.1v0.5h-15.7v-0.5c2.8,0,5.1-2.3,5.1-5.1v-9.5c0-8.5-2.7-16-9.8-16c-3.8,0-7,1.8-9.3,4.6V306
		c0,2.8,2.3,5.1,5.1,5.1v0.5H77.7v-0.5c2.8,0,5.1-2.3,5.1-5.1v-19.5c0-2.8-2.3-5.1-5.1-5.1v-0.5h10.5v3.5c2.4-2.7,5.6-4.3,9.3-4.3
		c10.2,0,15.3,7.7,15.3,16.5v9.5C112.8,308.8,115.1,311.1,117.9,311.1z"/>
	<path class="st0" d="M135.2,311.1v0.5h-15.7v-0.5c2.8,0,5.1-2.3,5.1-5.1v-19.5c0-2.8-2.3-5.1-5.1-5.1v-0.5h10.5V306
		C130.1,308.8,132.4,311.1,135.2,311.1z M124.7,272.3c-0.3-1.5,0.6-2.9,2-3.3c1.5-0.3,2.9,0.6,3.3,2c0.3,1.5-0.6,2.9-2,3.3
		C126.5,274.7,125.1,273.8,124.7,272.3z"/>
	<path class="st0" d="M164.9,304.5c-2,4.9-7.4,7.9-11.8,7.9c-8.7,0-16.3-7.7-16.3-16.5c0-8.8,7.6-16,16.3-16c3.3,0,7.5,1,10.1,2.8
		v8.8h-0.5V290c0-3-1.3-5.9-3.6-7.7c-1.4-1.1-4.2-1.8-5.9-1.8c-5.7,0-10.9,6.9-10.9,15.4c0,8.5,5.2,15.4,10.9,15.4
		c4.1,0,9.4-2.3,11.3-7L164.9,304.5z"/>
	<path class="st0" d="M167.6,280.8l10.5,0V316c0,8.8-3.3,16-12,16v-0.5c5.7,0,6.6-6.9,6.6-15.4v-29.6c0-2.8-2.3-5.1-5.1-5.1V280.8z
		 M172.7,271.7c0-1.5,1.2-2.7,2.7-2.7c1.5,0,2.7,1.2,2.7,2.7s-1.2,2.7-2.7,2.7C173.9,274.4,172.7,273.2,172.7,271.7z"/>
	<path class="st0" d="M216.9,311.1v0.5h-10.5v-4.4c-2.1,3-5.5,5.2-9.9,5.2c-8,0.2-12.7-3.4-13.1-7.8c-0.7-7.9,8.3-10.4,19.2-14.4
		v0.5c-8,2.9-14.9,5.5-13.8,13.4c0.7,4.8,4.8,7.8,7.7,7.8c4.5,0,7.9-2.4,9.9-5.6v-10.4c0-8.5-1.9-15.4-7.7-15.4
		c-1.7,0-3.4,0.6-4.8,1.8c-2.4,1.8-3.6,4.8-3.6,7.7v1.5h-0.5v-8.8c2.6-1.8,5.6-2.8,9-2.8c8.7,0,13.1,7.2,13.1,16v10
		C211.8,308.8,214.1,311.1,216.9,311.1z"/>
	<path class="st0" d="M225,281.3v15.2c0,8.5,0.9,15.4,6.6,15.4v0.5c-8.7,0-12-7.2-12-16v-15.2h-4.6v-0.5c8.3,0,9.7-10.1,9.7-14.1
		h0.3v14.1h6.6v0.5H225z"/>
	<path class="st0" d="M263,280.8h12.4v0.5c-3.7,0-7,2.2-8.4,5.5l-10.7,24.9c-2.9,6-9.1,16.9-17.7,20.2h-6.1v-0.5
		c8.7-1.6,13.8-4.2,19.1-12.3c1.8-2.7,3.2-5.4,4.2-7.5h-4.5l-10.8-25.2c-1.3-3.1-4.4-5.1-7.8-5.1v-0.5h15.7v0.5
		c-2.2,0-3.7,2.3-2.8,4.3l10.7,25h0l10.3-24c1.1-2.5-0.8-5.3-3.5-5.3V280.8L263,280.8z"/>
	<path class="st0" d="M326,280.8h12.4v0.5c-3.7,0-7,2.2-8.4,5.5l-10.6,24.8h-5.2l-7.2-16.9l-7.2,16.9h-5.2l-10.8-25.2
		c-1.3-3.1-4.4-5.1-7.8-5.1v-0.5h15.7v0.5c-2.2,0-3.7,2.3-2.8,4.3l10.7,25.1l7.1-16.6l-3.2-7.6c-1.3-3.1-4.4-5.1-7.8-5.1v-0.5h23.1
		v0.5c-3.7,0-7,2.2-8.4,5.5l-0.6,1.5l9.5,22.3l10.3-24c1.1-2.5-0.8-5.3-3.5-5.3V280.8z M309.4,287.7l1.7-3.9c1.1-2.6-1-2.5-1.7-2.5
		c-0.7,0-2.8-0.1-1.7,2.5L309.4,287.7z"/>
	<path class="st0" d="M369.9,311.1v0.5h-10.5v-4.4c-2.1,3-5.5,5.2-9.9,5.2c-8,0.2-12.7-3.4-13.1-7.8c-0.7-7.9,8.3-10.4,19.2-14.4
		v0.5c-8,2.9-14.9,5.5-13.8,13.4c0.7,4.8,4.8,7.8,7.7,7.8c4.5,0,7.9-2.4,9.9-5.6v-10.4c0-8.5-1.9-15.4-7.7-15.4
		c-1.7,0-3.4,0.6-4.8,1.8c-2.4,1.8-3.6,4.8-3.6,7.7v1.5h-0.5v-8.8c2.6-1.8,5.6-2.8,9-2.8c8.7,0,13.1,7.2,13.1,16v10
		C364.8,308.8,367.1,311.1,369.9,311.1z"/>
	<path class="st0" d="M420.7,261.6c6.2,0,11.3,5,11.3,11.3c0,6.3-5.1,11.4-11.4,11.4h-6.5v-0.5h1.6c6,0,10.9-4.9,10.9-10.9
		c0-5.9-4.8-10.7-10.7-10.7H411c-2.8,0-5.1,2.3-5.1,5.1v39.1c0,2.8,2.3,5.1,5.1,5.1v0.5h-15.7v-0.5c2.8,0,5.1-2.3,5.1-5.1v-39.1
		c0-2.8-2.3-5.1-5.1-5.1v-0.5H420.7z"/>
	<path class="st0" d="M461.7,281.9v3.8c-1.5-3.2-4.1-5.2-7.8-5.2c-3.8,0-7,1.8-9.3,4.6V306c0,2.8,2.3,5.1,5.1,5.1v0.5h-15.7v-0.5
		c2.8,0,5.1-2.3,5.1-5.1v-19.5c0-2.8-2.3-5.1-5.1-5.1v-0.5h10.5v3.5c2.4-2.7,5.6-4.3,9.3-4.3C457,279.9,459.6,280.6,461.7,281.9z"/>
	<path class="st0" d="M492.1,299.6h0.5v12h-27.8l21.9-30.3h-9.9c-6.3,0-11.5,5.1-11.5,11.5h-0.5v-12h27.8l-21.9,30.3h9.9
		C487,311.1,492.1,305.9,492.1,299.6L492.1,299.6z"/>
	<path class="st0" d="M524.7,304.3l0.5,0.2c-2,4.9-7.4,7.9-11.8,7.9c-8.7,0-16.3-7.7-16.3-16.5c0-8.8,7.6-16,16.3-16
		c5.1,0,8.4,1.9,10.4,4.9c3.3,5,0.3,11.8-5.6,12.8l-11.2,2v-0.6l5.1-0.9c6.3-1.1,10.1-7.9,7.4-13.8c-1.1-2.4-3-4-6.1-4
		c-5.7,0-10.9,6.9-10.9,15.4c0,8.5,5.2,15.4,10.9,15.4C517.5,311.3,522.8,309,524.7,304.3z"/>
	<path class="st0" d="M564.1,295.9c0,8.8-6.7,16.5-16.9,16.5c-3.7,0-6.9-1.6-9.3-4.3v3.5h-10.5v-0.5c2.8,0,5.1-2.3,5.1-5.1v-39.1
		c0-2.8-2.3-5.1-5.1-5.1v-0.5h15.7v0.5c-2.8,0-5.1,2.3-5.1,5.1v40.4c2.3,2.8,5.5,4.6,9.3,4.6c7.2,0,11.5-7.5,11.5-16
		s-4.3-15.4-11.5-15.4c-2.5,0-4.7,0.7-6.5,1.9v-0.6c1.9-1.1,4.1-1.8,6.5-1.8C557.4,279.9,564.1,287.1,564.1,295.9z"/>
	<path class="st0" d="M600.7,286.4V306c0,2.8,2.3,5.1,5.1,5.1v0.5h-10.5v-3.5c-2.4,2.7-5.6,4.3-9.3,4.3c-10.2,0-15.3-7.7-15.3-16.5
		v-9.5c0-2.8-2.3-5.1-5.1-5.1v-0.5h15.7v0.5c-2.8,0-5.1,2.3-5.1,5.1v9.5c0,8.5,2.7,16,9.8,16c3.8,0,7-1.8,9.3-4.6v-20.9
		c0-2.8-2.3-5.1-5.1-5.1v-0.5h15.7v0.5C602.9,281.3,600.7,283.6,600.7,286.4z"/>
	<path class="st0" d="M644.3,311.6h-10.5v-26.5c-2.3-2.8-5.5-4.6-9.3-4.6c-7.2,0-11.5,7.5-11.5,16s4.3,15.4,11.5,15.4
		c2.5,0,4.7-0.7,6.5-1.9v0.6c-1.9,1.1-4.1,1.8-6.5,1.8c-10.2,0-16.9-7.2-16.9-16c0-8.8,6.7-16.5,16.9-16.5c3.7,0,6.9,1.6,9.3,4.3
		v-17.4c0-2.8-2.3-5.1-5.1-5.1v-0.5h15.7v0.5c-2.8,0-5.1,2.3-5.1,5.1V306c0,2.8,2.3,5.1,5.1,5.1V311.6z"/>
	<path class="st0" d="M674.6,299.6h0.5v12h-27.8l21.9-30.3h-9.9c-6.3,0-11.5,5.1-11.5,11.5h-0.5v-12h27.8l-21.9,30.3h9.9
		C669.5,311.1,674.6,305.9,674.6,299.6L674.6,299.6z"/>
	<path class="st0" d="M707.2,304.3l0.5,0.2c-2,4.9-7.4,7.9-11.8,7.9c-8.7,0-16.3-7.7-16.3-16.5c0-8.8,7.6-16,16.3-16
		c5.1,0,8.4,1.9,10.4,4.9c3.3,5,0.3,11.8-5.6,12.8l-11.2,2v-0.6l5.1-0.9c6.3-1.1,10.1-7.9,7.4-13.8c-1.1-2.4-3-4-6.1-4
		c-5.7,0-10.9,6.9-10.9,15.4c0,8.5,5.2,15.4,10.9,15.4C700,311.3,705.4,309,707.2,304.3z"/>
	<path class="st0" d="M750.8,311.1v0.5h-15.7v-0.5c2.8,0,5.1-2.3,5.1-5.1v-9.5c0-8.5-2.7-16-9.8-16c-3.8,0-7,1.8-9.3,4.6V306
		c0,2.8,2.3,5.1,5.1,5.1v0.5h-15.7v-0.5c2.8,0,5.1-2.3,5.1-5.1v-19.5c0-2.8-2.3-5.1-5.1-5.1v-0.5h10.5v3.5c2.4-2.7,5.6-4.3,9.3-4.3
		c10.2,0,15.3,7.7,15.3,16.5v9.5C745.7,308.8,748,311.1,750.8,311.1z"/>
	<path class="st0" d="M768.1,311.1v0.5h-15.7v-0.5c2.8,0,5.1-2.3,5.1-5.1v-19.5c0-2.8-2.3-5.1-5.1-5.1v-0.5H763V306
		C763,308.8,765.2,311.1,768.1,311.1z M757.6,272.3c-0.3-1.5,0.6-2.9,2-3.3c1.5-0.3,2.9,0.6,3.3,2c0.3,1.5-0.6,2.9-2,3.3
		C759.4,274.7,757.9,273.8,757.6,272.3z"/>
	<path class="st0" d="M797.3,304.3l0.5,0.2c-2,4.9-7.4,7.9-11.8,7.9c-8.7,0-16.3-7.7-16.3-16.5c0-8.8,7.6-16,16.3-16
		c5.1,0,8.4,1.9,10.4,4.9c3.3,5,0.3,11.8-5.6,12.8l-11.2,2v-0.6l5.1-0.9c6.3-1.1,10.1-7.9,7.4-13.8c-1.1-2.4-3-4-6.1-4
		c-5.7,0-10.9,6.9-10.9,15.4c0,8.5,5.2,15.4,10.9,15.4C790.1,311.3,795.4,309,797.3,304.3z"/>
</g>
</svg>
