<svg id="Warstwa_1" data-name="Warstwa 1" xmlns="http://www.w3.org/2000/svg" viewBox="0 0 738.13 70.73"><defs><style>.cls-1{fill:#fff;}</style></defs><path class="cls-1" d="M62.43,252.45v39.08a5.12,5.12,0,0,0,5.12,5.12v.54H51.88v-.54A5.12,5.12,0,0,0,57,291.53V252.45a5.12,5.12,0,0,0-5.12-5.12v-.54H67.55v.54A5.12,5.12,0,0,0,62.43,252.45Z" transform="translate(-51.88 -246.45)"/><path class="cls-1" d="M110.09,296.3v.55H94.42v-.55a5.12,5.12,0,0,0,5.12-5.12v-9.5c0-8.51-2.66-16-9.83-16a11.76,11.76,0,0,0-9.28,4.59v20.88a5.12,5.12,0,0,0,5.12,5.12v.55H69.88v-.55A5.12,5.12,0,0,0,75,291.18V271.64a5.12,5.12,0,0,0-5.12-5.12V266H80.43v3.48a12.25,12.25,0,0,1,9.28-4.29c10.16,0,15.25,7.7,15.25,16.51v9.5A5.13,5.13,0,0,0,110.09,296.3Z" transform="translate(-51.88 -246.45)"/><path class="cls-1" d="M127.38,296.3v.55H111.71v-.55a5.12,5.12,0,0,0,5.12-5.12V271.64a5.12,5.12,0,0,0-5.12-5.12V266h10.55v25.2A5.12,5.12,0,0,0,127.38,296.3ZM116.9,257.56a2.72,2.72,0,1,1,3.27,2A2.71,2.71,0,0,1,116.9,257.56Z" transform="translate(-51.88 -246.45)"/><path class="cls-1" d="M157.12,289.76a13.38,13.38,0,0,1-11.79,7.89c-8.71,0-16.34-7.71-16.34-16.51s7.63-16,16.34-16A19.27,19.27,0,0,1,155.39,268v8.76h-.54v-1.54a9.81,9.81,0,0,0-3.62-7.74,11,11,0,0,0-5.9-1.77c-5.72,0-10.91,6.92-10.91,15.43s5.19,15.42,10.91,15.42c4.06,0,9.41-2.35,11.28-7Z" transform="translate(-51.88 -246.45)"/><path class="cls-1" d="M159.75,266h10.54v35.24c0,8.8-3.28,16-12,16v-.55c5.71,0,6.57-6.92,6.57-15.42V271.64a5.13,5.13,0,0,0-5.12-5.12Zm5.12-9a2.71,2.71,0,1,1,2.71,2.72A2.71,2.71,0,0,1,164.87,256.94Z" transform="translate(-51.88 -246.45)"/><path class="cls-1" d="M209.1,296.3v.55H198.56v-4.41a11.82,11.82,0,0,1-9.86,5.21c-8,.25-12.7-3.37-13.09-7.83-.68-7.9,8.28-10.41,19.23-14.39v.48c-8,2.92-14.91,5.48-13.8,13.36.67,4.76,4.83,7.84,7.66,7.84a11.37,11.37,0,0,0,9.86-5.6V281.14c0-8.51-1.94-15.43-7.66-15.43a7.74,7.74,0,0,0-4.81,1.77,9.78,9.78,0,0,0-3.62,7.74v1.54h-.55V268a15.68,15.68,0,0,1,9-2.83c8.71,0,13.08,7.16,13.08,16v10A5.12,5.12,0,0,0,209.1,296.3Z" transform="translate(-51.88 -246.45)"/><path class="cls-1" d="M217.16,266.52v15.16c0,8.5.85,15.43,6.57,15.43v.54c-8.71,0-12-7.17-12-16V266.52h-4.62V266c8.31,0,9.71-10.15,9.71-14.11h.34V266h6.57v.54Z" transform="translate(-51.88 -246.45)"/><path class="cls-1" d="M255.14,266h12.41v.54a9.14,9.14,0,0,0-8.4,5.54l-10.69,24.88c-2.87,6-9.12,16.91-17.65,20.23h-6.13v-.54c8.65-1.65,13.79-4.2,19-12.33a69,69,0,0,0,4.18-7.46h-4.55l-10.78-25.19a8.46,8.46,0,0,0-7.77-5.13V266h15.66v.54a3.08,3.08,0,0,0-2.82,4.29l10.71,25h0l10.27-24a3.82,3.82,0,0,0-3.51-5.33V266Z" transform="translate(-51.88 -246.45)"/><path class="cls-1" d="M318.17,266h12.41v.54a9.15,9.15,0,0,0-8.4,5.54l-10.6,24.79H306.4l-7.25-16.93-7.25,16.93h-5.18l-10.78-25.2a8.46,8.46,0,0,0-7.77-5.13V266h15.66v.54a3.08,3.08,0,0,0-2.82,4.29l10.72,25.06,7.12-16.64-3.24-7.58a8.46,8.46,0,0,0-7.77-5.13V266h23.07v.54a9.14,9.14,0,0,0-8.4,5.54l-.65,1.52,9.54,22.29,10.28-24a3.82,3.82,0,0,0-3.51-5.33Zm-16.6,6.91,1.65-3.86c1.13-2.64-1-2.51-1.65-2.51s-2.78-.13-1.65,2.51Z" transform="translate(-51.88 -246.45)"/><path class="cls-1" d="M362.1,296.3v.55H351.55v-4.41a11.79,11.79,0,0,1-9.86,5.21c-8,.25-12.69-3.37-13.08-7.83-.69-7.9,8.28-10.41,19.23-14.39v.48c-8,2.92-14.91,5.48-13.8,13.36.66,4.76,4.83,7.84,7.65,7.84a11.34,11.34,0,0,0,9.86-5.6V281.14c0-8.51-1.93-15.43-7.65-15.43a7.72,7.72,0,0,0-4.81,1.77,9.78,9.78,0,0,0-3.62,7.74v1.54h-.55V268a15.65,15.65,0,0,1,9-2.83c8.71,0,13.08,7.16,13.08,16v10A5.12,5.12,0,0,0,362.1,296.3Z" transform="translate(-51.88 -246.45)"/><path class="cls-1" d="M412.93,246.79a11.28,11.28,0,0,1,11.28,11.28,11.41,11.41,0,0,1-11.42,11.41h-6.48v-.54h1.6a10.87,10.87,0,0,0,10.87-10.87A10.74,10.74,0,0,0,408,247.33h-4.9a5.12,5.12,0,0,0-5.12,5.12v39.08a5.12,5.12,0,0,0,5.12,5.12v.54H387.47v-.54a5.12,5.12,0,0,0,5.12-5.12V252.45a5.12,5.12,0,0,0-5.12-5.12v-.54Z" transform="translate(-51.88 -246.45)"/><path class="cls-1" d="M453.91,267.09v3.82c-1.55-3.16-4.06-5.2-7.8-5.2a11.78,11.78,0,0,0-9.29,4.59v20.88a5.12,5.12,0,0,0,5.12,5.12v.55H426.28v-.55a5.12,5.12,0,0,0,5.12-5.12V271.64a5.12,5.12,0,0,0-5.12-5.12V266h10.54v3.48a12.25,12.25,0,0,1,9.29-4.29A15.53,15.53,0,0,1,453.91,267.09Z" transform="translate(-51.88 -246.45)"/><path class="cls-1" d="M484.3,284.82h.54v12H457L479,266.52H469A11.48,11.48,0,0,0,457.56,278H457V266h27.82L462.91,296.3h9.91a11.48,11.48,0,0,0,11.48-11.48Z" transform="translate(-51.88 -246.45)"/><path class="cls-1" d="M516.9,289.56l.5.2a13.38,13.38,0,0,1-11.79,7.89c-8.71,0-16.33-7.71-16.33-16.51s7.62-16,16.33-16c5.12,0,8.42,1.88,10.43,4.88a8.4,8.4,0,0,1-5.62,12.84l-11.24,2v-.55l5.1-.91a10,10,0,0,0,7.45-13.77,6.21,6.21,0,0,0-6.12-4c-5.71,0-10.91,6.92-10.91,15.43s5.2,15.42,10.91,15.42C509.67,296.56,515,294.21,516.9,289.56Z" transform="translate(-51.88 -246.45)"/><path class="cls-1" d="M556.3,281.14c0,8.8-6.72,16.51-16.88,16.51a12.19,12.19,0,0,1-9.28-4.3v3.5H519.59v-.55a5.12,5.12,0,0,0,5.12-5.12V252.11a5.12,5.12,0,0,0-5.12-5.12v-.54h15.67V247a5.12,5.12,0,0,0-5.12,5.12v40.41a11.79,11.79,0,0,0,9.28,4.59c7.16,0,11.45-7.47,11.45-16s-4.29-15.43-11.45-15.43a11.92,11.92,0,0,0-6.52,1.87V267a12.46,12.46,0,0,1,6.52-1.78C549.58,265.17,556.3,272.33,556.3,281.14Z" transform="translate(-51.88 -246.45)"/><path class="cls-1" d="M592.83,271.64v19.54A5.12,5.12,0,0,0,598,296.3v.55H587.41v-3.49a12.23,12.23,0,0,1-9.29,4.3c-10.15,0-15.25-7.71-15.25-16.51v-9.51a5.12,5.12,0,0,0-5.12-5.12V266h15.67v.54a5.12,5.12,0,0,0-5.12,5.12v9.51c0,8.5,2.66,16,9.82,16a11.81,11.81,0,0,0,9.29-4.59V271.64a5.13,5.13,0,0,0-5.12-5.12V266H598v.54A5.13,5.13,0,0,0,592.83,271.64Z" transform="translate(-51.88 -246.45)"/><path class="cls-1" d="M636.51,296.85H626V270.3a11.76,11.76,0,0,0-9.28-4.59c-7.17,0-11.46,7.46-11.46,16s4.29,15.43,11.46,15.43a11.86,11.86,0,0,0,6.51-1.88v.64a12.42,12.42,0,0,1-6.51,1.78c-10.16,0-16.88-7.17-16.88-16s6.72-16.51,16.88-16.51a12.23,12.23,0,0,1,9.28,4.29V252.11a5.12,5.12,0,0,0-5.12-5.12v-.54h15.67V247a5.12,5.12,0,0,0-5.12,5.12v39.07a5.12,5.12,0,0,0,5.12,5.12Z" transform="translate(-51.88 -246.45)"/><path class="cls-1" d="M666.82,284.82h.54v12H639.54l21.93-30.33h-9.91A11.48,11.48,0,0,0,640.08,278h-.54V266h27.82L645.43,296.3h9.91a11.48,11.48,0,0,0,11.48-11.48Z" transform="translate(-51.88 -246.45)"/><path class="cls-1" d="M699.41,289.56l.51.2a13.38,13.38,0,0,1-11.79,7.89c-8.71,0-16.33-7.71-16.33-16.51s7.62-16,16.33-16c5.12,0,8.42,1.88,10.43,4.88a8.4,8.4,0,0,1-5.62,12.84l-11.24,2v-.55l5.1-.91a10,10,0,0,0,7.45-13.77,6.21,6.21,0,0,0-6.12-4c-5.71,0-10.91,6.92-10.91,15.43s5.2,15.42,10.91,15.42C692.19,296.56,697.54,294.21,699.41,289.56Z" transform="translate(-51.88 -246.45)"/><path class="cls-1" d="M743,296.3v.55H727.29v-.55a5.12,5.12,0,0,0,5.12-5.12v-9.5c0-8.51-2.66-16-9.82-16a11.76,11.76,0,0,0-9.29,4.59v20.88a5.12,5.12,0,0,0,5.12,5.12v.55H702.75v-.55a5.12,5.12,0,0,0,5.12-5.12V271.64a5.12,5.12,0,0,0-5.12-5.12V266H713.3v3.48a12.25,12.25,0,0,1,9.29-4.29c10.15,0,15.25,7.7,15.25,16.51v9.5A5.12,5.12,0,0,0,743,296.3Z" transform="translate(-51.88 -246.45)"/><path class="cls-1" d="M760.25,296.3v.55H744.59v-.55a5.12,5.12,0,0,0,5.12-5.12V271.64a5.13,5.13,0,0,0-5.12-5.12V266h10.54v25.2A5.12,5.12,0,0,0,760.25,296.3Zm-10.47-38.74a2.71,2.71,0,1,1,3.26,2A2.71,2.71,0,0,1,749.78,257.56Z" transform="translate(-51.88 -246.45)"/><path class="cls-1" d="M789.48,289.56l.51.2a13.38,13.38,0,0,1-11.79,7.89c-8.71,0-16.33-7.71-16.33-16.51s7.62-16,16.33-16c5.12,0,8.42,1.88,10.43,4.88A8.4,8.4,0,0,1,783,282.89l-11.24,2v-.55l5.1-.91a10,10,0,0,0,7.45-13.77,6.21,6.21,0,0,0-6.12-4c-5.71,0-10.91,6.92-10.91,15.43s5.2,15.42,10.91,15.42C782.26,296.56,787.61,294.21,789.48,289.56Z" transform="translate(-51.88 -246.45)"/></svg>